<svg width="100" height="100" viewBox="0 0 100 100" fill="none" xmlns="http://www.w3.org/2000/svg">
<rect x="0.5" y="0.5" width="99" height="99" fill="#F5F6FB" stroke="#D7DAEB"/>
<path d="M54.4531 70H39.2969C35.8505 70 33.0469 67.1964 33.0469 63.75V36.25C33.0469 32.8036 35.8505 30 39.2969 30H54.4531C57.8995 30 60.7031 32.8036 60.7031 36.25V38.6813C60.7031 39.5444 60.0037 40.2438 59.1406 40.2438C58.2776 40.2438 57.5781 39.5444 57.5781 38.6813V36.25C57.5781 34.527 56.1761 33.125 54.4531 33.125H39.2969C37.5739 33.125 36.1719 34.527 36.1719 36.25V63.75C36.1719 65.473 37.5739 66.875 39.2969 66.875H54.4531C56.1761 66.875 57.5781 65.473 57.5781 63.75V60.7907C57.5781 59.9277 58.2776 59.2282 59.1406 59.2282C60.0037 59.2282 60.7031 59.9277 60.7031 60.7907V63.75C60.7031 67.1964 57.8995 70 54.4531 70ZM48.4375 62.9001C48.4375 62.037 47.738 61.3376 46.875 61.3376C46.012 61.3376 45.3125 62.037 45.3125 62.9001C45.3125 63.7631 46.012 64.4626 46.875 64.4626C47.738 64.4626 48.4375 63.7631 48.4375 62.9001ZM50 37.1188C50 36.2558 49.3005 35.5563 48.4375 35.5563H45.3125C44.4495 35.5563 43.75 36.2558 43.75 37.1188C43.75 37.9819 44.4495 38.6813 45.3125 38.6813H48.4375C49.3005 38.6813 50 37.9819 50 37.1188ZM52.1317 57.822C52.8412 57.822 53.5422 57.3544 53.7344 56.6776L57.2833 44.1934C57.5684 43.1915 56.8088 42.197 55.759 42.197C55.0494 42.197 54.4266 42.6645 54.2343 43.3414L50.6854 55.8258C50.4007 56.8277 51.0819 57.822 52.1317 57.822ZM48.0722 55.9354C48.6267 55.274 48.54 54.2883 47.8787 53.7341L44.0146 50.4941C43.8525 50.3546 43.8281 50.1797 43.8281 50.0876C43.8281 49.9954 43.8525 49.8206 44.0146 49.6811L47.8787 46.441C48.54 45.8868 48.6267 44.9011 48.0722 44.2398C47.518 43.5788 46.5323 43.4918 45.871 44.0463L42.002 47.2903C41.9995 47.2925 41.9968 47.2946 41.9943 47.2971C41.1737 47.9938 40.7031 49.0109 40.7031 50.0876C40.7031 51.1642 41.1737 52.1814 41.9943 52.8781C41.9968 52.8802 41.9992 52.8824 42.002 52.8848L45.871 56.1288C46.1636 56.3742 46.5198 56.4938 46.8741 56.4938C47.3203 56.4938 47.7634 56.3037 48.0722 55.9354ZM61.7972 56.1185L65.5838 52.8781C66.4044 52.1814 66.875 51.1642 66.875 50.0876C66.875 49.0109 66.4044 47.9938 65.5881 47.3007L61.7972 44.0567C61.1414 43.4955 60.155 43.5724 59.5941 44.2279C59.0329 44.8837 59.1098 45.8701 59.7653 46.431L63.5608 49.6786C63.7253 49.8184 63.75 49.9948 63.75 50.0876C63.75 50.1801 63.7256 50.3564 63.5565 50.4999L59.7653 53.7442C59.1098 54.3051 59.0329 55.2914 59.5941 55.947C59.9033 56.3083 60.3412 56.4938 60.7822 56.4938C61.1414 56.4938 61.5027 56.3705 61.7972 56.1185Z" fill="#FFCF23"/>
</svg>
