<svg width="100" height="100" viewBox="0 0 100 100" fill="none" xmlns="http://www.w3.org/2000/svg">
<rect x="0.5" y="0.5" width="99" height="99" fill="#F5F6FB" stroke="#D7DAEB"/>
<path d="M63.3333 32.0833H36.6666C34.1333 32.0833 32.0833 34.1333 32.0833 36.6666V63.3333C32.0833 65.8666 34.1333 67.9166 36.6666 67.9166H63.3333C65.8666 67.9166 67.9166 65.8666 67.9166 63.3333V36.6666C67.9166 34.1333 65.8666 32.0833 63.3333 32.0833ZM34.5833 36.6666C34.5833 35.5166 35.5166 34.5833 36.6666 34.5833H63.3333C64.4833 34.5833 65.4166 35.5166 65.4166 36.6666V38.7499H34.5833V36.6666ZM65.4166 63.3333C65.4166 64.4832 64.4833 65.4166 63.3333 65.4166H36.6666C35.5166 65.4166 34.5833 64.4832 34.5833 63.3333V41.2499H65.4166V63.3333ZM38.8333 54.2166C38.35 53.7333 38.35 52.9333 38.8333 52.4499L43 48.2833C43.4833 47.7999 44.2833 47.7999 44.7666 48.2833C45.25 48.7666 45.25 49.5666 44.7666 50.0499L41.4833 53.3333L44.7666 56.6166C45.25 57.0999 45.25 57.8999 44.7666 58.3833C44.5166 58.6333 44.2 58.7499 43.8833 58.7499C43.5666 58.7499 43.25 58.6333 43 58.3833L38.8333 54.2166ZM55.2166 56.6166L58.5 53.3333L55.2166 50.0499C54.7333 49.5666 54.7333 48.7666 55.2166 48.2833C55.7 47.7999 56.5 47.7999 56.9833 48.2833L61.15 52.4499C61.6333 52.9333 61.6333 53.7333 61.15 54.2166L56.9833 58.3833C56.7333 58.6333 56.4166 58.7499 56.1 58.7499C55.7833 58.7499 55.4666 58.6333 55.2166 58.3833C54.7333 57.8999 54.7333 57.0999 55.2166 56.6166ZM46.75 59.6333L50.8333 46.2999C51.0333 45.6499 51.7333 45.2666 52.4 45.4666C53.0666 45.6666 53.4333 46.3666 53.2333 47.0333L49.15 60.3666C48.9833 60.8999 48.4833 61.2499 47.95 61.2499C47.8333 61.2499 47.7 61.2332 47.5833 61.1999C46.9166 60.9999 46.55 60.2999 46.75 59.6333Z" fill="#FFCF23"/>
</svg>
