<svg width="100" height="100" viewBox="0 0 100 100" fill="none" xmlns="http://www.w3.org/2000/svg">
<rect x="0.5" y="0.5" width="99" height="99" fill="#F5F6FB" stroke="#D7DAEB"/>
<g clip-path="url(#clip0_148_61)">
<path d="M68.8281 30H64.1406C63.4934 30 62.9688 30.5247 62.9688 31.1719V32.3438H53.3141C52.8303 30.9798 51.5277 30 50 30C48.4723 30 47.1697 30.9798 46.6859 32.3438H37.0312V31.1719C37.0312 30.5247 36.5066 30 35.8594 30H31.1719C30.5247 30 30 30.5247 30 31.1719V35.8594C30 36.5066 30.5247 37.0312 31.1719 37.0312H35.8594C36.5066 37.0312 37.0312 36.5066 37.0312 35.8594V34.6719H41.9045C37.6766 37.3495 35.1066 41.873 34.7975 46.6752C33.417 47.1498 32.4219 48.4605 32.4219 50C32.4219 51.9385 33.999 53.5156 35.9375 53.5156C37.876 53.5156 39.4531 51.9385 39.4531 50C39.4531 48.4859 38.491 47.1923 37.1461 46.6984C37.5622 41.1791 41.5366 36.4255 46.8512 35.0767C47.4273 36.2339 48.622 37.0312 50 37.0312C51.378 37.0312 52.5727 36.2339 53.1487 35.0768C58.4635 36.4255 62.4378 41.1792 62.8539 46.6985C61.509 47.1923 60.5469 48.4859 60.5469 50C60.5469 51.9385 62.124 53.5156 64.0625 53.5156C66.001 53.5156 67.5781 51.9385 67.5781 50C67.5781 48.4605 66.583 47.1498 65.2025 46.6752C64.8927 41.8634 62.3151 37.3599 58.0955 34.6875H62.9688V35.8594C62.9688 36.5066 63.4934 37.0312 64.1406 37.0312H68.8281C69.4753 37.0312 70 36.5066 70 35.8594V31.1719C70 30.5247 69.4753 30 68.8281 30ZM34.6875 34.6875H32.3438V32.3438H34.6875V34.6875ZM35.9375 51.1719C35.2913 51.1719 34.7656 50.6462 34.7656 50C34.7656 49.3538 35.2913 48.8281 35.9375 48.8281C36.5837 48.8281 37.1094 49.3538 37.1094 50C37.1094 50.6462 36.5837 51.1719 35.9375 51.1719ZM50 34.6875C49.3538 34.6875 48.8281 34.1618 48.8281 33.5156C48.8281 32.8695 49.3538 32.3438 50 32.3438C50.6462 32.3438 51.1719 32.8695 51.1719 33.5156C51.1719 34.1618 50.6462 34.6875 50 34.6875ZM64.0625 48.8281C64.7087 48.8281 65.2344 49.3538 65.2344 50C65.2344 50.6462 64.7087 51.1719 64.0625 51.1719C63.4163 51.1719 62.8906 50.6462 62.8906 50C62.8906 49.3538 63.4163 48.8281 64.0625 48.8281ZM67.6562 34.6875H65.3125V32.3438H67.6562V34.6875Z" fill="#FFCF23"/>
<path d="M60.35 54.0373L50.975 39.9749C50.9747 39.9745 50.9743 39.974 50.974 39.9734C50.9706 39.9684 50.9669 39.9637 50.9635 39.9588C50.9474 39.9354 50.9305 39.9129 50.9128 39.8909C50.419 39.2773 49.4787 39.3188 49.0365 39.9588C49.033 39.9637 49.0294 39.9684 49.026 39.9734C49.0257 39.974 49.0253 39.9744 49.025 39.9749L39.65 54.0374C39.3401 54.5022 39.4014 55.1211 39.7964 55.5161C42.1344 57.8541 43.6226 60.9104 44.028 64.1802C43.846 64.3273 43.6703 64.4848 43.5037 64.6553C42.403 65.7813 41.7969 67.2632 41.7969 68.828C41.7969 69.4752 42.3216 69.9999 42.9687 69.9999H57.0312C57.6784 69.9999 58.2031 69.4752 58.2031 68.828C58.2031 67.2632 57.5969 65.7813 56.4963 64.6552C56.3297 64.4848 56.1541 64.3273 55.972 64.1802C56.3773 60.9102 57.8655 57.8539 60.2035 55.5161C60.5986 55.1211 60.6599 54.5021 60.35 54.0373ZM50 53.5155C50.6462 53.5155 51.1719 54.0413 51.1719 54.6874C51.1719 55.3336 50.6462 55.8593 50 55.8593C49.3538 55.8593 48.8281 55.3336 48.8281 54.6874C48.8281 54.0413 49.3538 53.5155 50 53.5155ZM44.3405 67.6562C44.828 66.263 46.1498 65.2343 47.6562 65.2343H52.3437C53.8502 65.2343 55.1719 66.263 55.6595 67.6562H44.3405ZM53.7691 63.0689C53.3082 62.9513 52.8304 62.8905 52.3437 62.8905H47.6562C47.1696 62.8905 46.6918 62.9513 46.2309 63.069C45.6824 59.9105 44.2581 56.958 42.1176 54.5613L48.8281 44.4954V51.3734C47.4641 51.8572 46.4844 53.1598 46.4844 54.6875C46.4844 56.626 48.0615 58.2031 50 58.2031C51.9385 58.2031 53.5156 56.626 53.5156 54.6875C53.5156 53.1598 52.5359 51.8572 51.1719 51.3734V44.4954L57.8825 54.5613C55.7419 56.9577 54.3175 59.9103 53.7691 63.0689Z" fill="#FFCF23"/>
</g>
<defs>
<clipPath id="clip0_148_61">
<rect width="40" height="40" fill="white" transform="translate(30 30)"/>
</clipPath>
</defs>
</svg>
