<svg width="100" height="100" viewBox="0 0 100 100" fill="none" xmlns="http://www.w3.org/2000/svg">
<rect x="0.5" y="0.5" width="99" height="99" fill="#F5F6FB" stroke="#D7DAEB"/>
<path d="M67.9784 50.3452L48.0912 30.4579C47.4809 29.8477 46.4916 29.8477 45.8815 30.4579C45.2713 31.0681 45.2713 32.0574 45.8815 32.6676L47.3158 34.1019L40.0952 49.5023L32.9343 56.6632C31.1067 58.4908 31.1067 61.4646 32.9343 63.2923L35.1441 65.502C36.976 67.334 39.9412 67.334 41.7732 65.502L43.6039 63.6712L48.5198 68.5871C49.4094 69.4983 50.5999 69.9999 51.8737 69.9999C54.4584 69.9999 56.5612 67.8971 56.5612 65.3124C56.5612 64.0386 56.0596 62.8481 55.1484 61.9585L50.7021 57.5122L64.3345 51.1205L65.7688 52.5548C66.379 53.165 67.3683 53.165 67.9784 52.5548C68.5886 51.9446 68.5886 50.9553 67.9784 50.3452ZM39.5634 63.2923C38.9528 63.903 37.9644 63.903 37.3537 63.2923L35.144 61.0826C34.5348 60.4734 34.5348 59.4821 35.144 58.8729L41.3936 52.6233L45.8131 57.0427L39.5634 63.2923ZM52.9621 64.1915C53.2678 64.4884 53.4361 64.8866 53.4361 65.3126C53.4361 66.1741 52.7352 66.8751 51.8736 66.8751C51.4476 66.8751 51.0495 66.7067 50.7526 66.401C50.7472 66.3955 45.8134 61.4617 45.8134 61.4617L48.0226 59.2525C48.0228 59.2524 52.9566 64.1862 52.9621 64.1915ZM48.3523 55.1625L43.2738 50.084L49.6654 36.4516L61.9847 48.7707L48.3523 55.1625Z" fill="#FFCF23"/>
<path d="M62.3005 40.1394C62.6917 40.9085 63.6325 41.2148 64.4016 40.8235L67.582 39.2055C68.3512 38.8142 68.6575 37.8735 68.2662 37.1043C67.8749 36.3352 66.9343 36.0289 66.1651 36.4202L62.9846 38.0382C62.2155 38.4296 61.9091 39.3703 62.3005 40.1394Z" fill="#FFCF23"/>
<path d="M58.2972 36.136C59.0664 36.5273 60.0071 36.221 60.3983 35.4518L62.0163 32.2713C62.4076 31.5021 62.1013 30.5614 61.3321 30.1702C60.563 29.7789 59.6224 30.0852 59.2311 30.8544L57.6131 34.0349C57.2218 34.8041 57.5281 35.7448 58.2972 36.136Z" fill="#FFCF23"/>
</svg>
