<svg width="250" height="66" viewBox="0 0 250 66" fill="none" xmlns="http://www.w3.org/2000/svg">
<rect width="250" height="66" fill="#00FFE3"/>
<path d="M187.81 48.6399C185.597 48.6399 183.824 47.9599 182.49 46.5999C181.17 45.2399 180.51 43.4532 180.51 41.2399V39.8399H185.11V41.2399C185.11 42.0799 185.35 42.7599 185.83 43.2799C186.31 43.7865 186.97 44.0399 187.81 44.0399C188.65 44.0399 189.31 43.7865 189.79 43.2799C190.27 42.7599 190.51 42.0799 190.51 41.2399V38.4399C190.51 37.9599 190.49 37.5865 190.45 37.3199C190.41 37.0399 190.31 36.8132 190.15 36.6399C190.004 36.4665 189.744 36.3132 189.37 36.1799C189.01 36.0332 188.49 35.8532 187.81 35.6399C185.984 35.0665 184.57 34.5865 183.57 34.1999C182.57 33.8132 181.85 33.3932 181.41 32.9399C180.984 32.4865 180.724 31.8999 180.63 31.1799C180.55 30.4465 180.51 29.4665 180.51 28.2399V24.7599C180.51 22.5332 181.17 20.7465 182.49 19.3999C183.824 18.0399 185.597 17.3599 187.81 17.3599C190.037 17.3599 191.81 18.0399 193.13 19.3999C194.45 20.7465 195.11 22.5332 195.11 24.7599V26.1599H190.51V24.7599C190.51 23.9199 190.27 23.2465 189.79 22.7399C189.31 22.2199 188.65 21.9599 187.81 21.9599C186.97 21.9599 186.31 22.2199 185.83 22.7399C185.35 23.2465 185.11 23.9199 185.11 24.7599V28.2399C185.11 28.7199 185.124 29.0999 185.15 29.3799C185.19 29.6465 185.284 29.8665 185.43 30.0399C185.59 30.1999 185.857 30.3532 186.23 30.4999C186.604 30.6465 187.13 30.8265 187.81 31.0399C189.637 31.5999 191.05 32.0799 192.05 32.4799C193.05 32.8665 193.764 33.2865 194.19 33.7399C194.63 34.1932 194.89 34.7799 194.97 35.4999C195.064 36.2199 195.11 37.1999 195.11 38.4399V41.2399C195.11 43.4532 194.45 45.2399 193.13 46.5999C191.81 47.9599 190.037 48.6399 187.81 48.6399Z" fill="#011C75"/>
<path d="M169.099 48.6399C166.886 48.6399 165.113 47.9599 163.779 46.5999C162.459 45.2399 161.799 43.4532 161.799 41.2399V39.8399H166.399V41.2399C166.399 42.0799 166.639 42.7599 167.119 43.2799C167.599 43.7865 168.259 44.0399 169.099 44.0399C169.939 44.0399 170.599 43.7865 171.079 43.2799C171.559 42.7599 171.799 42.0799 171.799 41.2399V38.4399C171.799 37.9599 171.779 37.5865 171.739 37.3199C171.699 37.0399 171.599 36.8132 171.439 36.6399C171.293 36.4665 171.033 36.3132 170.659 36.1799C170.299 36.0332 169.779 35.8532 169.099 35.6399C167.273 35.0665 165.859 34.5865 164.859 34.1999C163.859 33.8132 163.139 33.3932 162.699 32.9399C162.273 32.4865 162.013 31.8999 161.919 31.1799C161.839 30.4465 161.799 29.4665 161.799 28.2399V24.7599C161.799 22.5332 162.459 20.7465 163.779 19.3999C165.113 18.0399 166.886 17.3599 169.099 17.3599C171.326 17.3599 173.099 18.0399 174.419 19.3999C175.739 20.7465 176.399 22.5332 176.399 24.7599V26.1599H171.799V24.7599C171.799 23.9199 171.559 23.2465 171.079 22.7399C170.599 22.2199 169.939 21.9599 169.099 21.9599C168.259 21.9599 167.599 22.2199 167.119 22.7399C166.639 23.2465 166.399 23.9199 166.399 24.7599V28.2399C166.399 28.7199 166.413 29.0999 166.439 29.3799C166.479 29.6465 166.573 29.8665 166.719 30.0399C166.879 30.1999 167.146 30.3532 167.519 30.4999C167.893 30.6465 168.419 30.8265 169.099 31.0399C170.926 31.5999 172.339 32.0799 173.339 32.4799C174.339 32.8665 175.053 33.2865 175.479 33.7399C175.919 34.1932 176.179 34.7799 176.259 35.4999C176.353 36.2199 176.399 37.1999 176.399 38.4399V41.2399C176.399 43.4532 175.739 45.2399 174.419 46.5999C173.099 47.9599 171.326 48.6399 169.099 48.6399Z" fill="#011C75"/>
<path d="M157.971 18V22.6H150.271V30.1H156.891V34.7H150.271V43.4H157.971V48H145.671V18H157.971Z" fill="#011C75"/>
<path d="M125.124 48V18H128.684L136.364 39.1L135.124 39.16V18H139.424V48H135.884L128.184 26.88L129.424 26.82V48H125.124Z" fill="#011C75"/>
<path d="M118.865 48H114.265V18H118.865V48Z" fill="#011C75"/>
<path d="M101.834 48.6399C99.6204 48.6399 97.847 47.9599 96.5137 46.5999C95.1937 45.2399 94.5337 43.4532 94.5337 41.2399V39.8399H99.1337V41.2399C99.1337 42.0799 99.3737 42.7599 99.8537 43.2799C100.334 43.7865 100.994 44.0399 101.834 44.0399C102.674 44.0399 103.334 43.7865 103.814 43.2799C104.294 42.7599 104.534 42.0799 104.534 41.2399V38.4399C104.534 37.9599 104.514 37.5865 104.474 37.3199C104.434 37.0399 104.334 36.8132 104.174 36.6399C104.027 36.4665 103.767 36.3132 103.394 36.1799C103.034 36.0332 102.514 35.8532 101.834 35.6399C100.007 35.0665 98.5937 34.5865 97.5937 34.1999C96.5937 33.8132 95.8737 33.3932 95.4337 32.9399C95.007 32.4865 94.747 31.8999 94.6537 31.1799C94.5737 30.4465 94.5337 29.4665 94.5337 28.2399V24.7599C94.5337 22.5332 95.1937 20.7465 96.5137 19.3999C97.847 18.0399 99.6204 17.3599 101.834 17.3599C104.06 17.3599 105.834 18.0399 107.154 19.3999C108.474 20.7465 109.134 22.5332 109.134 24.7599V26.1599H104.534V24.7599C104.534 23.9199 104.294 23.2465 103.814 22.7399C103.334 22.2199 102.674 21.9599 101.834 21.9599C100.994 21.9599 100.334 22.2199 99.8537 22.7399C99.3737 23.2465 99.1337 23.9199 99.1337 24.7599V28.2399C99.1337 28.7199 99.147 29.0999 99.1737 29.3799C99.2137 29.6465 99.307 29.8665 99.4537 30.0399C99.6137 30.1999 99.8804 30.3532 100.254 30.4999C100.627 30.6465 101.154 30.8265 101.834 31.0399C103.66 31.5999 105.074 32.0799 106.074 32.4799C107.074 32.8665 107.787 33.2865 108.214 33.7399C108.654 34.1932 108.914 34.7799 108.994 35.4999C109.087 36.2199 109.134 37.1999 109.134 38.4399V41.2399C109.134 43.4532 108.474 45.2399 107.154 46.5999C105.834 47.9599 104.06 48.6399 101.834 48.6399Z" fill="#011C75"/>
<path d="M89.5238 18V41.24C89.5238 43.4533 88.8638 45.24 87.5438 46.6C86.2238 47.96 84.4505 48.64 82.2238 48.64C80.0105 48.64 78.2372 47.96 76.9038 46.6C75.5838 45.24 74.9238 43.4533 74.9238 41.24V18H79.5238V41.24C79.5238 42.08 79.7638 42.76 80.2438 43.28C80.7238 43.7867 81.3838 44.04 82.2238 44.04C83.0638 44.04 83.7238 43.7867 84.2038 43.28C84.6838 42.76 84.9238 42.08 84.9238 41.24V18H89.5238Z" fill="#011C75"/>
<path d="M54.8896 48V18H62.2896C64.463 18 66.1896 18.66 67.4696 19.98C68.7496 21.2867 69.3896 23.0267 69.3896 25.2V28.14C69.3896 29.34 69.183 30.42 68.7696 31.38C68.3696 32.34 67.7963 33.1267 67.0496 33.74L66.9496 31.98C67.8163 32.58 68.503 33.3933 69.0097 34.42C69.5296 35.4467 69.7896 36.62 69.7896 37.94V40.8C69.7896 42.9467 69.1497 44.6867 67.8697 46.02C66.5897 47.34 64.863 48 62.6896 48H54.8896ZM59.4896 43.4H62.6896C63.4763 43.4 64.0896 43.16 64.5296 42.68C64.9696 42.2 65.1896 41.5733 65.1896 40.8V37.94C65.1896 37.1667 64.9696 36.54 64.5296 36.06C64.0896 35.58 63.4763 35.34 62.6896 35.34H59.4896V43.4ZM59.4896 30.74H62.2896C63.0763 30.74 63.6896 30.5067 64.1296 30.04C64.5696 29.56 64.7896 28.9267 64.7896 28.14V25.2C64.7896 24.4133 64.5696 23.7867 64.1296 23.32C63.6896 22.84 63.0763 22.6 62.2896 22.6H59.4896V30.74Z" fill="#011C75"/>
</svg>
