<svg width="280" height="66" viewBox="0 0 280 66" fill="none" xmlns="http://www.w3.org/2000/svg">
<rect width="280" height="66" fill="#00FFE3"/>
<path d="M243.901 48.6399C241.688 48.6399 239.914 47.9599 238.581 46.5999C237.261 45.2399 236.601 43.4532 236.601 41.2399V24.7599C236.601 22.5332 237.261 20.7465 238.581 19.3999C239.914 18.0399 241.688 17.3599 243.901 17.3599C246.128 17.3599 247.901 18.0399 249.221 19.3999C250.541 20.7465 251.201 22.5332 251.201 24.7599V26.1599H246.601V24.7599C246.601 23.9199 246.361 23.2465 245.881 22.7399C245.401 22.2199 244.741 21.9599 243.901 21.9599C243.061 21.9599 242.401 22.2199 241.921 22.7399C241.441 23.2465 241.201 23.9199 241.201 24.7599V41.2399C241.201 42.0799 241.441 42.7599 241.921 43.2799C242.401 43.7865 243.061 44.0399 243.901 44.0399C244.741 44.0399 245.401 43.7865 245.881 43.2799C246.361 42.7599 246.601 42.0799 246.601 41.2399V37.7999H243.581V33.1999H251.201V41.2399C251.201 43.4532 250.541 45.2399 249.221 46.5999C247.901 47.9599 246.128 48.6399 243.901 48.6399Z" fill="#011C75"/>
<path d="M216.494 48V18H220.054L227.734 39.1L226.494 39.16V18H230.794V48H227.254L219.554 26.88L220.794 26.82V48H216.494Z" fill="#011C75"/>
<path d="M210.235 48H205.635V18H210.235V48Z" fill="#011C75"/>
<path d="M196.812 48L191.312 33.66L189.952 35.68V28.12L196.812 18H201.772L194.452 28.92L201.752 48H196.812ZM185.752 48V18H190.352V48H185.752Z" fill="#011C75"/>
<path d="M165.205 48V18H168.765L176.445 39.1L175.205 39.16V18H179.505V48H175.965L168.265 26.88L169.505 26.82V48H165.205Z" fill="#011C75"/>
<path d="M158.946 48H154.346V18H158.946V48Z" fill="#011C75"/>
<path d="M134.189 48V18H138.789V33.1H143.489V18H148.089V48H143.489V37.7H138.789V48H134.189Z" fill="#011C75"/>
<path d="M121.327 48V22.6H116.667V18H130.567V22.6H125.927V48H121.327Z" fill="#011C75"/>
<path d="M97.1478 48V22.6H92.4878V18H106.388V22.6H101.748V48H97.1478Z" fill="#011C75"/>
<path d="M82.6569 48.6399C80.4436 48.6399 78.6703 47.9599 77.3369 46.5999C76.0169 45.2399 75.3569 43.4532 75.3569 41.2399V39.8399H79.9569V41.2399C79.9569 42.0799 80.1969 42.7599 80.6769 43.2799C81.1569 43.7865 81.8169 44.0399 82.6569 44.0399C83.4969 44.0399 84.1569 43.7865 84.6369 43.2799C85.1169 42.7599 85.3569 42.0799 85.3569 41.2399V38.4399C85.3569 37.9599 85.3369 37.5865 85.2969 37.3199C85.2569 37.0399 85.1569 36.8132 84.9969 36.6399C84.8503 36.4665 84.5903 36.3132 84.2169 36.1799C83.8569 36.0332 83.3369 35.8532 82.6569 35.6399C80.8303 35.0665 79.4169 34.5865 78.4169 34.1999C77.4169 33.8132 76.6969 33.3932 76.2569 32.9399C75.8303 32.4865 75.5703 31.8999 75.4769 31.1799C75.3969 30.4465 75.3569 29.4665 75.3569 28.2399V24.7599C75.3569 22.5332 76.0169 20.7465 77.3369 19.3999C78.6703 18.0399 80.4436 17.3599 82.6569 17.3599C84.8836 17.3599 86.6569 18.0399 87.9769 19.3999C89.2969 20.7465 89.9569 22.5332 89.9569 24.7599V26.1599H85.3569V24.7599C85.3569 23.9199 85.1169 23.2465 84.6369 22.7399C84.1569 22.2199 83.4969 21.9599 82.6569 21.9599C81.8169 21.9599 81.1569 22.2199 80.6769 22.7399C80.1969 23.2465 79.9569 23.9199 79.9569 24.7599V28.2399C79.9569 28.7199 79.9703 29.0999 79.9969 29.3799C80.0369 29.6465 80.1303 29.8665 80.2769 30.0399C80.4369 30.1999 80.7036 30.3532 81.0769 30.4999C81.4503 30.6465 81.9769 30.8265 82.6569 31.0399C84.4836 31.5999 85.8969 32.0799 86.8969 32.4799C87.8969 32.8665 88.6103 33.2865 89.0369 33.7399C89.4769 34.1932 89.7369 34.7799 89.8169 35.4999C89.9103 36.2199 89.9569 37.1999 89.9569 38.4399V41.2399C89.9569 43.4532 89.2969 45.2399 87.9769 46.5999C86.6569 47.9599 84.8836 48.6399 82.6569 48.6399Z" fill="#011C75"/>
<path d="M56.1035 48V18H63.5035C65.6768 18 67.4035 18.66 68.6835 19.98C69.9635 21.2867 70.6035 23.0267 70.6035 25.2V29.74C70.6035 31.1533 70.3235 32.3933 69.7635 33.46C69.2035 34.5267 68.4035 35.3733 67.3635 36L67.0435 34.54C68.1769 34.9533 69.0502 35.58 69.6635 36.42C70.2902 37.26 70.6035 38.2667 70.6035 39.44V48H66.0035V39.44C66.0035 38.6933 65.7835 38.0933 65.3435 37.64C64.9035 37.1733 64.2902 36.94 63.5035 36.94H60.7035V48H56.1035ZM60.7035 32.34H63.5035C64.2902 32.34 64.9035 32.1067 65.3435 31.64C65.7835 31.16 66.0035 30.5267 66.0035 29.74V25.2C66.0035 24.4133 65.7835 23.7867 65.3435 23.32C64.9035 22.84 64.2902 22.6 63.5035 22.6H60.7035V32.34Z" fill="#011C75"/>
<path d="M49.8441 48H45.2441V18H49.8441V48Z" fill="#011C75"/>
<path d="M28.7988 48V18H41.0988V22.6H33.3988V33.1H40.0188V37.7H33.3988V48H28.7988Z" fill="#011C75"/>
</svg>
