<svg width="156" height="24" viewBox="0 0 156 24" fill="none" xmlns="http://www.w3.org/2000/svg">
<g clip-path="url(#clip0_493_387)">
<path d="M5.92731 6.5036C5.81278 6.04317 5.84141 5.58273 5.89868 5.32374C6.04185 4.60432 6.52863 3.82734 7.93172 3.82734C9.2489 3.82734 9.99339 4.63309 9.99339 5.8705C9.99339 6.27338 9.99339 7.2518 9.99339 7.2518H15.5485V5.66906C15.5771 0.776979 11.196 0 8.04626 0C4.09471 0 0.859031 1.32374 0.257709 4.97842C0.0859031 5.98561 0.0572687 6.8777 0.314978 8C1.28855 12.5755 9.22026 13.8993 10.3656 16.8058C10.5947 17.3525 10.5088 18.0432 10.4229 18.4748C10.2511 19.223 9.73568 20 8.2467 20C6.84361 20 6.01322 19.1942 6.01322 17.9568V15.7986H0V17.5252C0 22.5324 3.92291 24.0288 8.10352 24.0288C12.141 24.0288 15.4339 22.6475 15.978 18.9065C16.2357 16.9784 16.0352 15.7122 15.9493 15.2518C15.033 10.5036 6.55727 9.1223 5.92731 6.5036ZM78.4581 6.53237C78.3722 6.10072 78.4009 5.61151 78.4295 5.3813C78.6013 4.66187 79.0595 3.88489 80.4626 3.88489C81.7511 3.88489 82.4956 4.69065 82.4956 5.89928C82.4956 6.30216 82.4956 7.28058 82.4956 7.28058H87.9934V5.72662C87.9934 0.892086 83.6982 0.143885 80.5771 0.143885C76.6542 0.143885 73.4471 1.43885 72.8458 5.06475C72.7026 6.04317 72.6454 6.93525 72.9031 8.05755C73.848 12.5755 81.6938 13.8993 82.8392 16.777C83.0396 17.3237 82.9824 18.0144 82.8678 18.4173C82.696 19.1655 82.2092 19.9137 80.7203 19.9137C79.3458 19.9137 78.4868 19.1079 78.4868 17.8993V15.741H72.5595V17.4388C72.5595 22.3885 76.4251 23.8849 80.5771 23.8849C84.5573 23.8849 87.8502 22.5036 88.3656 18.8201C88.6233 16.8921 88.4229 15.6547 88.337 15.1942C87.4493 10.5324 79.0881 9.15108 78.4581 6.53237ZM129.084 18.7626L123.844 0.719424H115.568V22.9065H121.037L120.722 4.28777L126.363 22.9065H134.295V0.719424H128.797L129.084 18.7626ZM23.8811 0.719424L19.7291 23.1367H25.7423L28.8634 2.38849L31.8987 23.1367H37.8833L33.7885 0.719424H23.8811ZM57.5551 0.719424L54.7489 18.2446L51.9427 0.719424H42.837L42.3502 23.1367H47.9339L48.0771 2.38849L51.9141 23.1367H57.5551L61.3921 2.38849L61.5352 23.1367H67.1189L66.6322 0.719424H57.5551ZM109.383 0.719424H103.742V17.295C103.742 17.5827 103.742 17.8993 103.685 18.1583C103.57 18.705 103.112 19.7986 101.537 19.7986C99.9912 19.7986 99.533 18.7338 99.4185 18.1583C99.3612 17.9281 99.3612 17.5827 99.3612 17.295V0.719424H93.7203V16.777C93.7203 17.1799 93.7489 18.0432 93.7775 18.2446C94.1784 22.4173 97.4427 23.7986 101.537 23.7986C105.632 23.7986 108.925 22.446 109.326 18.2446C109.355 18.0144 109.412 17.1799 109.383 16.777V0.719424ZM148.097 10.5324V13.813H150.388V17.0647C150.388 17.3525 150.388 17.6691 150.33 17.9281C150.244 18.5324 149.672 19.5683 148.04 19.5683C146.436 19.5683 145.863 18.5324 145.778 17.9281C145.749 17.6691 145.72 17.3525 145.72 17.0647V6.82014C145.72 6.44604 145.749 6.07194 145.835 5.7554C145.949 5.20863 146.436 4.14389 148.04 4.14389C149.758 4.14389 150.159 5.26619 150.273 5.7554C150.33 6.07194 150.33 6.61871 150.33 6.61871V7.85612H155.943V7.10791C155.943 7.10791 155.971 6.33094 155.914 5.61151C155.485 1.43885 152.02 0.115108 148.068 0.115108C144.117 0.115108 140.738 1.46763 140.251 5.64029C140.194 6.01439 140.137 6.70504 140.137 7.13669V16.5468C140.137 16.9496 140.137 17.2662 140.222 18.0144C140.595 22.1007 144.117 23.5396 148.068 23.5396C152.048 23.5396 155.542 22.1007 155.914 18.0144C155.971 17.2662 156 16.9496 156 16.5468V10.5324H148.097Z" fill="#97A1C0"/>
</g>
<defs>
<clipPath id="clip0_493_387">
<rect width="156" height="24" fill="white"/>
</clipPath>
</defs>
</svg>
