<svg width="146" height="19" viewBox="0 0 146 19" fill="none" xmlns="http://www.w3.org/2000/svg">
<g clip-path="url(#clip0_493_363)">
<path d="M63.1633 12.35H72.7785L67.6862 4.11665L58.324 18.9683H54.0857L65.4722 1.13998C66.3262 -0.0950212 68.0342 -0.380021 69.2361 0.474979C69.4891 0.664979 69.7105 0.854979 69.9003 1.10831L81.3184 18.9683H77.0801L75.0875 15.6433H65.3457L63.1633 12.35ZM107.381 15.675V0.189979H103.775V17.195C103.775 17.67 103.965 18.145 104.313 18.4616C104.661 18.81 105.135 19 105.641 19H122.057L124.207 15.675H107.381ZM47.6334 12.8883C51.1442 12.8883 53.9908 10.0383 53.9908 6.52331C53.9908 3.00831 51.1442 0.158312 47.6334 0.158312H31.8505V18.9683H35.4245V3.51498H47.3804C49.0567 3.51498 50.4167 4.87665 50.4167 6.55498C50.4167 8.23331 49.0567 9.59498 47.3804 9.59498H37.1958L47.9813 18.9683H53.2317L45.9887 12.8883H47.6334ZM9.64682 18.9683H20.5589C25.746 18.8416 29.8262 14.5033 29.6997 9.34165C29.5732 4.33831 25.5246 0.316646 20.5589 0.189979H9.64682C4.45964 0.0633122 0.126451 4.14831 -6.53039e-05 9.34165C-0.126582 14.535 3.95357 18.8416 9.14075 18.9683C9.29889 19 9.45704 19 9.64682 18.9683ZM20.3058 15.675H9.86822C6.51553 15.58 3.89032 12.7616 3.9852 9.40498C4.08009 6.20665 6.67368 3.60998 9.86822 3.51498H20.3058C23.6585 3.41998 26.4735 6.04831 26.5684 9.40498C26.6633 12.7616 24.0381 15.58 20.6854 15.675C20.5589 15.675 20.4323 15.675 20.3058 15.675ZM88.8461 18.9683H99.9796L102.099 15.675H89.0992C85.7465 15.77 82.9315 13.1416 82.8366 9.78498C82.7417 6.42831 85.3669 3.60998 88.7196 3.51498C88.8461 3.51498 88.9726 3.51498 89.0992 3.51498H99.6949L101.846 0.189979H88.8778C83.6906 0.0633122 79.389 4.14831 79.2625 9.34165C79.136 14.535 83.2161 18.8416 88.4033 18.9683C88.5298 19 88.688 19 88.8461 18.9683ZM133 15.675C130.28 15.675 127.876 13.87 127.149 11.2416H142.584L144.703 7.91665H127.149C127.876 5.28831 130.28 3.48331 133 3.48331H143.596L145.715 0.158312H132.747C127.56 0.316646 123.48 4.62331 123.607 9.81665C123.733 14.82 127.75 18.8416 132.747 18.9683H143.881L146 15.675H133Z" fill="#97A1C0"/>
</g>
<defs>
<clipPath id="clip0_493_363">
<rect width="146" height="19" fill="white"/>
</clipPath>
</defs>
</svg>
