<svg width="143" height="40" viewBox="0 0 143 40" fill="none" xmlns="http://www.w3.org/2000/svg">
<g clip-path="url(#clip0_493_351)">
<path fill-rule="evenodd" clip-rule="evenodd" d="M140.685 21.6272C140.957 21.2882 141.502 21.2882 141.774 21.695L142.796 23.1187C143 23.3899 143 23.7967 142.796 24.0678C140.957 26.4407 137.825 28.678 133.943 28.8814C130.947 29.0848 128.428 27.9322 127.066 25.7628C126.793 25.356 126.181 25.2882 125.908 25.695C124.274 27.8644 122.367 29.5594 120.324 29.6272C116.715 29.8305 115.694 27.3899 116.579 22.1017C116.647 21.5594 116.171 21.1526 115.694 21.2882C114.945 21.4916 114.128 21.5594 113.311 21.4916C112.97 21.4916 112.63 21.695 112.561 21.9661C111.2 26.3729 108.067 30.4407 103.913 30.6441C101.258 30.7797 97.3762 29.2882 97.7167 22.9831C97.7167 22.4407 97.3082 22.1017 96.8315 22.2373C96.0143 22.5085 95.1291 22.5763 94.2439 22.5085C93.9034 22.5085 93.5629 22.7119 93.4948 22.9831C92.1329 27.3899 89.0005 31.4577 84.8467 31.6611C82.191 31.7966 78.3096 30.3051 78.6501 24C78.6501 23.4577 78.2415 23.1187 77.7648 23.2543C76.9477 23.5255 76.0624 23.5933 75.1772 23.5255C74.8367 23.5255 74.4962 23.7289 74.4282 24C73.0662 28.4068 69.9339 32.4746 65.7801 32.678C63.8734 32.8136 61.3539 32.0678 60.1962 29.356C59.992 28.8136 59.311 28.7458 58.9705 29.2204C57.3362 31.4577 55.3615 33.1526 53.3186 33.2882C51.2077 33.4238 50.0501 32.5424 49.5053 31.0509C49.301 30.5085 48.6882 30.3729 48.2796 30.7797C46.8496 32.4746 45.1472 33.695 43.5129 33.8306C40.9253 33.9661 39.4272 32.0678 39.3591 29.7628C39.2229 27.0509 40.3805 23.9322 41.6743 20.4746C41.8786 20 41.5382 19.4577 41.0615 19.4577C40.3124 19.4577 39.4272 19.3221 38.6782 19.1865C38.3377 19.1187 37.9291 19.3221 37.861 19.7289C36.2948 25.2204 33.9796 30.5763 31.9367 33.7628C31.7324 34.1017 31.2558 34.2373 30.9153 33.9661L29.4172 32.8814C29.0767 32.678 29.0086 32.2034 29.2129 31.8644C32.0729 27.2543 34.6605 20.0678 35.5458 14.7797C35.6139 14.4407 35.8862 14.1695 36.2267 14.1695L38.2696 14.0339C38.7462 14.0339 39.0867 14.4407 39.0186 14.9153V14.9831C38.9505 15.3899 39.2229 15.7967 39.6315 15.8644C41.4701 16.1356 44.1258 16.1356 45.9643 16.0678C46.5091 16.0678 46.8496 16.6102 46.6453 17.0848C45.1472 21.017 43.1724 26.4407 43.3086 28.5424C43.3767 29.4916 43.7853 30.0339 44.5343 29.9661C45.9643 29.8983 48.2115 26.9831 49.9139 23.7966C49.9139 23.7289 49.982 23.6611 49.982 23.5933C50.5267 21.0848 51.412 18.2373 52.2291 15.3899L52.2972 15.1865C52.3653 14.9153 52.6377 14.7119 52.9101 14.6441L55.3615 14.5085C55.8382 14.5085 56.2467 14.9831 56.1105 15.4577C55.9743 15.8644 55.8382 16.2712 55.7701 16.678C53.6591 23.6611 51.8205 29.4916 54.272 29.356C55.8382 29.2882 58.0853 26.5763 59.992 22.8475C59.992 22.7797 60.0601 22.7119 60.0601 22.6441C60.1281 22.1695 60.2643 21.6272 60.4005 21.0848C61.4901 16.6102 62.7839 12.2034 64.0777 7.79665C64.4862 6.44072 64.8948 5.08479 65.2353 3.72886C65.3034 3.45767 65.5758 3.18648 65.9162 3.18648L68.4358 3.05089C68.9124 3.05089 69.321 3.52547 69.1848 4.00004C68.1634 7.11869 67.142 10.3729 66.1886 13.5594C65.9843 14.2373 66.7334 14.7797 67.2782 14.3729C68.2315 13.695 69.3891 13.2882 70.4786 13.2204C73.2705 13.0848 75.1772 15.3221 75.3815 18.7797C75.3815 18.9831 75.3815 19.1865 75.3815 19.3899C75.3815 19.7967 75.6539 20.0678 76.0624 20.1356C77.3562 20.2712 78.7181 19.8644 79.7396 18.9153C79.8758 18.8475 79.9439 18.7119 79.9439 18.5763C80.9653 14.5763 82.1229 10.6441 83.2805 6.64411C83.6891 5.28818 84.0296 3.93224 84.4381 2.57631C84.5062 2.30513 84.7786 2.03394 85.1191 2.03394L87.6386 1.89835C88.1153 1.89835 88.5239 2.37292 88.3877 2.8475C87.3662 5.96614 86.3448 9.22038 85.3915 12.4068C85.1872 13.0848 85.9362 13.6272 86.481 13.2204C87.4343 12.5424 88.592 12.1356 89.6815 12.0678C92.4734 11.9322 94.3801 14.1695 94.5843 17.6272C94.5843 17.8306 94.5843 18.0339 94.5843 18.2373C94.5843 18.6441 94.8567 18.9153 95.2653 18.9831C96.5591 19.1187 97.921 18.7119 98.9424 17.7628C99.0786 17.695 99.1467 17.5594 99.1467 17.4238C100.168 13.4238 101.326 9.49157 102.483 5.49157C102.892 4.13564 103.232 2.7797 103.641 1.42377C103.709 1.15258 103.981 0.881397 104.322 0.881397L106.841 0.745804C107.318 0.745804 107.727 1.22038 107.591 1.69496C106.569 4.8136 105.548 8.06784 104.594 11.2543C104.39 11.9322 105.139 12.4746 105.684 12.0678C106.637 11.3899 107.795 10.9831 108.884 10.9153C111.676 10.7797 113.583 13.017 113.787 16.4746C113.787 16.678 113.787 16.8814 113.787 17.0848C113.787 17.4916 114.06 17.7628 114.468 17.8305C115.762 17.9661 117.056 17.5594 118.077 16.7458C118.213 16.678 118.281 16.5424 118.281 16.339C119.439 11.8644 121.21 5.89835 122.844 0.271228C122.912 4.13954e-05 123.184 -0.203348 123.457 -0.271145L125.908 -0.406738C126.385 -0.406738 126.793 0.0678381 126.657 0.542414C124.342 8.13563 122.503 14.7119 121.482 18.6441C120.12 23.9322 120.052 25.4916 121.618 25.356C122.912 25.2882 124.682 23.4577 126.317 20.678C126.385 20.5424 126.385 20.4746 126.453 20.339C126.657 14.7797 130.13 9.69496 135.237 9.42377C138.642 9.22038 140.549 11.7967 140.685 14.3051C140.957 19.1187 136.122 22.2373 131.492 21.9661C130.947 21.8983 130.539 22.5085 130.811 22.9831C131.492 24.339 132.854 25.1526 135.169 25.017C136.871 25.2882 139.255 23.3221 140.685 21.6272ZM63.8734 22.9831C62.7839 27.3899 64.0777 29.0848 65.8481 29.017C68.7081 28.8814 71.432 23.6611 71.2277 19.6611C71.1596 17.8983 70.1381 17.017 68.9124 17.0848C66.8696 17.2204 64.7586 19.4577 63.8734 22.9831ZM82.9401 21.8983C81.8505 26.3051 83.1443 28 84.9148 27.9322C87.7748 27.7967 90.4986 22.5763 90.2943 18.5763C90.2262 16.8136 89.2048 15.9322 87.9791 16C86.0043 16.1356 83.8253 18.3729 82.9401 21.8983ZM102.075 20.8136C100.985 25.2204 102.279 26.9153 104.05 26.8475C106.91 26.7119 109.633 21.4916 109.429 17.4916C109.361 15.7289 108.34 14.8475 107.114 14.9153C105.071 15.0509 102.96 17.2882 102.075 20.8136ZM136.599 15.0509C136.599 13.8983 135.85 13.0848 134.692 13.1526C132.445 13.2882 130.675 15.7289 130.062 18.7119C129.994 19.1865 130.334 19.5933 130.811 19.5933C133.739 19.5255 136.667 17.5594 136.599 15.0509ZM30.2343 17.2204C29.962 8.27123 24.1058 2.37292 15.4577 2.71191C11.7124 2.8475 7.49053 4.27123 4.29006 6.71191C4.01767 6.9153 3.88148 7.38987 4.08577 7.72886L5.44767 9.89835C5.65196 10.3051 6.19672 10.3729 6.5372 10.1017C8.98863 8.06784 12.2572 6.7797 15.4577 6.64411C21.382 6.37292 25.7401 10.1695 25.9443 17.4238C26.2848 25.8983 20.5648 35.5933 11.372 36.1356C11.0315 36.1356 10.691 36.1356 10.3505 36.1356C9.87387 36.1356 9.53339 35.6611 9.66958 35.1865C11.4401 28.0678 13.4829 20.4068 15.5939 13.2882C15.7301 12.8136 15.3896 12.2712 14.8448 12.339L12.2572 12.5424C11.9848 12.5424 11.7124 12.7458 11.5762 13.0848C9.53339 20.0678 7.49053 27.6611 5.72006 34.7797C5.58386 35.1865 5.17529 35.4577 4.83482 35.3221C3.88148 34.9831 2.99625 34.6441 2.2472 34.1695C1.90672 33.9661 1.43006 34.1017 1.22577 34.5085L0.0681509 36.8814C-0.136135 37.2204 5.56875e-05 37.695 0.340532 37.8305C2.92815 39.3221 6.94577 40.1356 10.9634 39.9322C24.1058 39.1865 30.5748 27.1187 30.2343 17.2204ZM56.0424 6.23733C54.4762 6.30513 53.0462 8.13564 53.1143 9.96614C53.1824 11.1865 53.9996 12.0678 55.2253 12C56.7915 11.9322 58.2896 10.0339 58.2215 8.20343C58.1534 6.98309 57.2001 6.16953 56.0424 6.23733Z" fill="#97A1C0"/>
</g>
<defs>
<clipPath id="clip0_493_351">
<rect width="143" height="40" fill="white"/>
</clipPath>
</defs>
</svg>
