<svg width="83" height="40" viewBox="0 0 83 40" fill="none" xmlns="http://www.w3.org/2000/svg">
<path fill-rule="evenodd" clip-rule="evenodd" d="M79.5816 20.4733C79.5816 14.9832 76.9582 10.6511 71.9441 10.6511C66.9088 10.6511 63.8623 14.9832 63.8623 20.4304C63.8623 26.8856 67.4589 30.1454 72.6211 30.1454C75.1387 30.1454 77.0428 29.5663 78.4815 28.7514V24.4622C77.0428 25.1914 75.3926 25.6417 73.2981 25.6417C71.2459 25.6417 69.4265 24.9126 69.1937 22.382H79.5393C79.5393 22.1032 79.5816 20.988 79.5816 20.4733ZM69.1303 18.436C69.1303 16.0126 70.5901 15.0046 71.9229 15.0046C73.2135 15.0046 74.5887 16.0126 74.5887 18.436H69.1303Z" fill="#97A1C0"/>
<path fill-rule="evenodd" clip-rule="evenodd" d="M55.6953 10.6511C53.622 10.6511 52.2891 11.6376 51.5486 12.3239L51.2736 10.9943H46.6191V36.0001L51.9083 34.8634L51.9294 28.7943C52.6911 29.3519 53.8124 30.1454 55.6741 30.1454C59.4612 30.1454 62.9097 27.0572 62.9097 20.2588C62.8885 14.0396 59.3977 10.6511 55.6953 10.6511ZM54.4259 25.4273C53.1777 25.4273 52.4372 24.9769 51.9294 24.4193L51.9083 16.4629C52.4583 15.841 53.22 15.4121 54.4259 15.4121C56.3511 15.4121 57.684 17.5996 57.684 20.409C57.684 23.2827 56.3723 25.4273 54.4259 25.4273Z" fill="#97A1C0"/>
<path fill-rule="evenodd" clip-rule="evenodd" d="M39.3418 9.38572L44.6521 8.22764V3.87415L39.3418 5.01077V9.38572Z" fill="#97A1C0"/>
<path d="M44.6521 11.0157H39.3418V29.7808H44.6521V11.0157Z" fill="#97A1C0"/>
<path fill-rule="evenodd" clip-rule="evenodd" d="M33.6505 12.6027L33.312 11.0157H28.7422V29.7808H34.0313V17.0635C35.2796 15.4121 37.3952 15.7124 38.0511 15.9483V11.0157C37.3741 10.7584 34.8987 10.2866 33.6505 12.6027Z" fill="#97A1C0"/>
<path fill-rule="evenodd" clip-rule="evenodd" d="M23.072 6.36194L17.9098 7.47712L17.8887 24.6552C17.8887 27.8292 20.237 30.1668 23.3682 30.1668C25.1031 30.1668 26.3724 29.8451 27.0706 29.4591V25.1056C26.3936 25.3844 23.0509 26.3709 23.0509 23.1969V15.5836H27.0706V11.0157H23.0509L23.072 6.36194Z" fill="#97A1C0"/>
<path fill-rule="evenodd" clip-rule="evenodd" d="M8.77057 16.4629C8.77057 15.6265 9.44758 15.3049 10.5689 15.3049C12.1768 15.3049 14.2078 15.7981 15.8157 16.6774V11.6376C14.0597 10.9299 12.3249 10.6511 10.5689 10.6511C6.2741 10.6511 3.41797 12.9244 3.41797 16.7203C3.41797 22.6393 11.4575 21.6957 11.4575 24.2478C11.4575 25.2343 10.6112 25.556 9.42643 25.556C7.67043 25.556 5.42784 24.8268 3.65069 23.8403V28.9444C5.61825 29.8022 7.60696 30.1668 9.42643 30.1668C13.827 30.1668 16.8524 27.9579 16.8524 24.1191C16.8312 17.7282 8.77057 18.8649 8.77057 16.4629Z" fill="#97A1C0"/>
</svg>
