<svg width="126" height="24" viewBox="0 0 126 24" fill="none" xmlns="http://www.w3.org/2000/svg">
<g clip-path="url(#clip0_493_365)">
<path d="M118.938 20.4706C118.938 18.5647 120.462 17.0824 122.262 17.0824C124.131 17.0824 125.585 18.6353 125.585 20.4706C125.585 22.3059 124.062 23.8589 122.262 23.8589C120.462 23.8589 118.938 22.3765 118.938 20.4706Z" fill="#97A1C0"/>
<path d="M19.1077 11.3647C19.1077 15.3176 18.1385 18.2823 16.0615 20.4C13.9846 22.5176 11.0769 23.5764 7.33846 23.5764H0V0.0705566H7.75385C11.4231 0.0705566 14.1923 0.988204 16.1308 2.96467C18.1385 4.87056 19.1077 7.69409 19.1077 11.3647ZM12.7385 11.5764C12.7385 9.3882 12.3231 7.83526 11.4923 6.77644C10.7308 5.7882 9.41539 5.2235 7.75385 5.2235H6.09231V18.3529H7.47692C9.34615 18.3529 10.6615 17.7882 11.5615 16.6588C12.3231 15.5294 12.7385 13.8353 12.7385 11.5764Z" fill="#97A1C0"/>
<path d="M45.0001 0H39.2539V23.5765H45.0001V0Z" fill="#97A1C0"/>
<path d="M63.9696 14.7529C63.9696 17.5765 63.2773 19.8353 61.7542 21.4588C60.2311 23.0824 58.1542 23.8588 55.5234 23.8588C52.9619 23.8588 50.9542 23.0824 49.4311 21.3882C47.908 19.6941 47.1465 17.5059 47.1465 14.7529C47.1465 11.9294 47.8388 9.67059 49.3619 8.11765C50.8849 6.49412 52.9619 5.71765 55.5926 5.71765C57.2542 5.71765 58.708 6.07059 59.9542 6.77647C61.2696 7.48236 62.1696 8.54118 62.8619 9.88236C63.6926 11.3647 63.9696 12.9177 63.9696 14.7529ZM53.1003 14.7529C53.1003 16.3059 53.308 17.3647 53.6542 18.1412C54.0003 18.9177 54.6234 19.2706 55.5926 19.2706C56.5619 19.2706 57.1157 18.9177 57.5311 18.1412C57.8773 17.3647 58.0849 16.1647 58.0849 14.7529C58.0849 13.2 57.8773 12.1412 57.5311 11.3647C57.1849 10.6588 56.5619 10.2353 55.5926 10.2353C54.7619 10.2353 54.0696 10.5882 53.6542 11.3647C53.308 12.1412 53.1003 13.2 53.1003 14.7529Z" fill="#97A1C0"/>
<path d="M72.0694 6H66.3232V23.5059H72.0694V6Z" fill="#97A1C0"/>
<path d="M72.0694 0H66.3232V3.95294H72.0694V0Z" fill="#97A1C0"/>
<path d="M83.7688 19.0588C84.5303 19.0588 85.4996 18.847 86.538 18.4941V22.9411C85.7765 23.2941 85.0149 23.5058 84.3226 23.647C83.6303 23.7882 82.7996 23.8588 81.8303 23.8588C79.8919 23.8588 78.5073 23.3647 77.6073 22.3058C76.7765 21.3176 76.2919 19.7647 76.2919 17.7176V10.5176H74.2842V5.99996H76.2919V1.62349L82.1073 0.635254V6.14114H85.8457V10.5882H82.1073V17.3647C82.2457 18.5647 82.7303 19.0588 83.7688 19.0588Z" fill="#97A1C0"/>
<path d="M97.2004 19.0588C97.962 19.0588 98.9312 18.847 99.9697 18.4941V22.9411C99.2081 23.2941 98.4466 23.5058 97.7543 23.647C97.062 23.7882 96.2312 23.8588 95.262 23.8588C93.3235 23.8588 91.9389 23.3647 91.0389 22.3058C90.2081 21.3176 89.7235 19.7647 89.7235 17.7176V10.5176H87.7158V5.99996H89.7235V1.5529L95.5389 0.635254V6.14114H99.2774V10.5882H95.5389V17.3647C95.6081 18.5647 96.162 19.0588 97.2004 19.0588Z" fill="#97A1C0"/>
<path d="M115.477 7.76471C114.092 6.35295 112.154 5.71765 109.661 5.71765C107.03 5.71765 104.954 6.49412 103.5 8.11765C102.046 9.74118 101.354 12 101.354 14.9647C101.354 17.7882 102.115 20.0471 103.638 21.6C105.23 23.1529 107.377 23.9294 110.146 23.9294C111.53 23.9294 112.638 23.8588 113.607 23.6471C114.507 23.4353 115.546 23.1529 116.377 22.6588L115.546 18.7059C114.923 18.9882 114.23 19.2 113.677 19.3412C112.846 19.5529 111.877 19.6235 110.907 19.6235C109.8 19.6235 108.9 19.3412 108.277 18.8471C107.654 18.2824 107.307 17.5059 107.307 16.5177H117.623V13.7647C117.554 11.1529 116.792 9.17647 115.477 7.76471ZM107.307 12.6353C107.377 11.7177 107.654 10.9412 108.069 10.5177C108.484 10.0941 109.038 9.88236 109.8 9.88236C110.492 9.88236 111.184 10.0941 111.6 10.5882C112.015 11.0824 112.223 11.7177 112.292 12.6353H107.307Z" fill="#97A1C0"/>
<path d="M34.9619 7.76471C33.5081 6.35295 31.6389 5.71765 29.1466 5.71765C26.5158 5.71765 24.4389 6.49412 22.985 8.11765C21.5312 9.74118 20.8389 12 20.8389 14.9647C20.8389 17.7882 21.6004 20.0471 23.1235 21.6C24.7158 23.1529 26.8619 23.9294 29.6312 23.9294C31.0158 23.9294 32.1235 23.8588 33.0927 23.6471C33.9927 23.4353 35.0312 23.1529 35.8619 22.6588L35.0312 18.6353C34.4081 18.9177 33.7158 19.1294 33.1619 19.2706C32.3312 19.4824 31.3619 19.5529 30.3927 19.5529C29.285 19.5529 28.385 19.2706 27.7619 18.7765C27.1389 18.2118 26.7927 17.4353 26.7927 16.4471H37.1081V13.7647C37.0389 11.1529 36.2773 9.17647 34.9619 7.76471ZM26.7235 12.6353C26.7927 11.7177 27.0696 10.9412 27.485 10.5177C27.9004 10.0941 28.4543 9.88236 29.2158 9.88236C29.9773 9.88236 30.6004 10.0941 31.0158 10.5882C31.4312 11.0824 31.6389 11.7177 31.7081 12.6353H26.7235Z" fill="#97A1C0"/>
</g>
<defs>
<clipPath id="clip0_493_365">
<rect width="126" height="24" fill="white"/>
</clipPath>
</defs>
</svg>
