<svg width="112" height="27" viewBox="0 0 112 27" fill="none" xmlns="http://www.w3.org/2000/svg">
<g clip-path="url(#clip0_493_377)">
<path d="M26.3506 25.2H20.0766L18.2147 20.5773H7.85255L6.11203 25.2H0L9.30972 1.80005H15.9884L26.3506 25.2ZM12.7907 7.36369L9.3502 16.4864H16.4742L12.7907 7.36369Z" fill="#97A1C0"/>
<path d="M48.8557 1.80005H53.8748V25.2H48.0866V10.6364L41.8531 17.9591H40.9627L34.7292 10.5955V25.1591H28.9814V1.80005H34.0006L41.4484 10.5137L48.8557 1.80005Z" fill="#97A1C0"/>
<path d="M68.4873 1.80005C76.947 1.80005 81.3185 7.11823 81.3185 13.541C81.3185 20.25 77.1089 25.2 67.8802 25.2H58.2871V1.80005H68.4873ZM64.0753 20.9046H67.8397C73.6279 20.9046 75.3684 16.9364 75.3684 13.5C75.3684 9.45005 73.2231 6.0955 67.7587 6.0955H64.0753V20.9046Z" fill="#97A1C0"/>
<path d="M104.714 7.36364H92.7732L85.4873 0H112V26.7545L104.714 19.4318V7.36364Z" fill="#97A1C0"/>
<path d="M92.7734 19.4318V8.8363L85.2852 16.4045V26.9999H95.7687L103.257 19.4318H92.7734Z" fill="#97A1C0"/>
</g>
<defs>
<clipPath id="clip0_493_377">
<rect width="112" height="27" fill="white"/>
</clipPath>
</defs>
</svg>
