<svg width="114" height="36" viewBox="0 0 114 36" fill="none" xmlns="http://www.w3.org/2000/svg">
<path d="M110.349 28.1614C110.349 27.3014 109.853 26.7392 108.795 26.7392H107.042V29.6167H108.795C109.853 29.6167 110.349 29.0709 110.349 28.1614ZM104.214 24.3909H108.96C111.804 24.3909 113.227 26.0281 113.227 28.0456C113.227 29.5009 112.433 30.8735 110.647 31.4027L113.326 36H110.134L107.72 31.6177H107.042V36H104.214V24.3909Z" fill="#97A1C0"/>
<path d="M102.378 24.3909V26.6565H98.0945V29.0048H101.882V31.1877H98.0945V33.7344H102.378V36H95.2666V24.3909H102.378Z" fill="#97A1C0"/>
<path d="M88.1978 33.1556L91.0918 24.3909H94.0851L89.9673 36H86.4283L82.3105 24.3909H85.3203L88.1978 33.1556Z" fill="#97A1C0"/>
<path d="M78.3096 36V24.3909H81.1374V36H78.3096Z" fill="#97A1C0"/>
<path d="M73.6568 28.1614C73.6568 27.3014 73.1607 26.7392 72.1023 26.7392H70.3494V29.6167H72.1023C73.1607 29.6167 73.6568 29.0709 73.6568 28.1614ZM67.5215 24.3909H72.2677C75.1121 24.3909 76.5343 26.0281 76.5343 28.0456C76.5343 29.5009 75.7405 30.8735 73.9545 31.4027L76.6335 36H73.4418L71.0274 31.6177H70.3494V36H67.5215V24.3909Z" fill="#97A1C0"/>
<path d="M59.8561 24.3909C63.5605 24.3909 65.9419 26.7392 65.9419 30.1955C65.9419 33.6352 63.5605 36 59.8561 36H55.5068V24.3909H59.8561ZM58.3347 33.5525H59.6742C61.8075 33.5525 63.0644 32.3288 63.0644 30.1955C63.0644 28.0621 61.8075 26.8053 59.6742 26.8053H58.3347V33.5525Z" fill="#97A1C0"/>
<path d="M47.7309 36L47.0363 33.9494H42.7036L42.009 36H39.0488L43.2493 24.3909H46.5237L50.7242 36H47.7309ZM46.3087 31.7665L44.87 27.5164L43.4478 31.7665H46.3087Z" fill="#97A1C0"/>
<path d="M34.9306 24.3909H37.7585V36H34.9306L30.2009 28.8394V36H27.373V24.3909H30.2009L34.9306 31.5846V24.3909Z" fill="#97A1C0"/>
<path d="M23.102 36L22.4074 33.9494H18.0747L17.3801 36H14.4199L18.6204 24.3909H21.8948L26.0953 36H23.102ZM21.6798 31.7665L20.241 27.5164L18.8188 31.7665H21.6798Z" fill="#97A1C0"/>
<path d="M0 36V24.3909H3.34053L6.59838 32.428L9.82315 24.3909H13.1471V36H10.3193V29.0378L7.72292 36H5.44077L2.82788 29.0213V36H0Z" fill="#97A1C0"/>
<path d="M71.6609 5.6201H67.4258L62.9799 2.60933C60.4809 0.90323 57.5304 0 54.5096 0H43.9418L31.5977 3.76346V5.1183H32.7016V9.43373H31.5977V12.8459L33.3539 15.1542H80.7735V12.7656L81.9778 10.0258L79.6595 8.28964C77.3513 6.55343 74.5513 5.6201 71.6609 5.6201Z" fill="#97A1C0"/>
<path d="M41.0314 1.40503H39.3353L31.5977 3.76346L33.6851 3.81364L41.0314 1.40503Z" fill="#BCC4DC"/>
<path d="M60.8623 1.40503H59.7383L65.9003 5.6201H67.4258L62.9799 2.5993C62.3075 2.14768 61.5949 1.70611 60.8623 1.40503Z" fill="#BCC4DC"/>
<path d="M80.1758 14.3083H32.7563L31 12H80.1758V14.3083Z" fill="#BCC4DC"/>
<path d="M34.879 9.43372H32.7012V5.11829H34.879L35.9327 7.57708L34.879 9.43372Z" fill="#BCC4DC"/>
<path d="M64.3146 5.41938H56.7876L39.9775 2.83012L44.8449 1.40503H53.8572C56.9984 1.40503 60.0694 2.38855 62.6285 4.21508L64.3146 5.41938Z" fill="#B9B9B9"/>
<path d="M66.9244 12.7555L50.576 11.782L47.4648 7.86802L50.7165 6.42285L66.6234 8.83146C66.6234 9.36337 66.1617 9.78487 65.6298 9.72466L51.9107 8.1691L50.6964 8.77125L52.3925 10.377L66.1617 11.9024C66.5932 11.9426 66.9244 12.3139 66.9244 12.7555Z" fill="#BCC4DC"/>
<path d="M78.8672 9.53406H81.9783V10.5376H78.8672V9.53406Z" fill="#EBEADF"/>
<path d="M40.4402 17.6633C43.1395 17.6633 45.3277 15.4751 45.3277 12.7758C45.3277 10.0765 43.1395 7.88831 40.4402 7.88831C37.7409 7.88831 35.5527 10.0765 35.5527 12.7758C35.5527 15.4751 37.7409 17.6633 40.4402 17.6633Z" fill="#8D8D8D"/>
<path d="M40.66 7.88822C40.2586 7.86815 39.8571 7.89826 39.4758 7.97855C39.0442 8.05883 39.1245 8.69109 39.556 8.69109H39.6263C42.3059 8.69109 44.5138 10.899 44.5138 13.5786V13.6488C44.5037 14.0804 45.136 14.1607 45.2263 13.7291C45.2966 13.3477 45.3367 12.9563 45.3166 12.5449C45.2062 10.0359 43.169 7.99862 40.66 7.88822Z" fill="#D0D0D0"/>
<path d="M42.6276 15.1441C40.1889 14.9935 38.2218 13.0165 38.0613 10.5777C38.0613 10.5577 38.0613 10.5376 38.0613 10.5175C38.0111 9.62433 36.867 9.31322 36.3652 10.0559C35.8032 10.8889 35.5021 11.9125 35.5523 12.9964C35.6727 15.4953 37.7 17.5326 40.2089 17.653C41.3028 17.7032 42.3165 17.3921 43.1494 16.8401C43.8921 16.3383 43.581 15.1942 42.6878 15.1441C42.6677 15.1441 42.6477 15.1441 42.6276 15.1441Z" fill="#707070"/>
<path d="M40.4396 15.1742C41.7643 15.1742 42.8382 14.1003 42.8382 12.7757C42.8382 11.451 41.7643 10.3771 40.4396 10.3771C39.1149 10.3771 38.041 11.451 38.041 12.7757C38.041 14.1003 39.1149 15.1742 40.4396 15.1742Z" fill="#D0D0D0"/>
<path d="M41.2629 14.0502C40.1589 13.9298 39.2758 13.0466 39.1554 11.9427C39.1554 11.9326 39.1554 11.9226 39.1554 11.9126C39.1052 11.4409 38.4729 11.3204 38.2622 11.742C38.0915 12.1032 38.0113 12.5147 38.0414 12.9463C38.1217 14.1205 39.0851 15.0839 40.2593 15.1642C40.6908 15.1943 41.1023 15.114 41.4536 14.9434C41.8851 14.7427 41.7546 14.1004 41.283 14.0502C41.283 14.0502 41.2729 14.0502 41.2629 14.0502Z" fill="#8C8C8C"/>
<path d="M33.3037 5.11829H34.0765V9.43372H33.3037V5.11829Z" fill="#ABABAB"/>
<path d="M72.9754 17.6633C75.6746 17.6633 77.8628 15.4751 77.8628 12.7758C77.8628 10.0765 75.6746 7.88831 72.9754 7.88831C70.2761 7.88831 68.0879 10.0765 68.0879 12.7758C68.0879 15.4751 70.2761 17.6633 72.9754 17.6633Z" fill="#8D8D8D"/>
<path d="M75.1637 15.1441C72.725 14.9935 70.758 13.0165 70.5974 10.5777C70.5974 10.5577 70.5974 10.5376 70.5974 10.5175C70.5472 9.62433 69.4031 9.31322 68.9013 10.0559C68.3393 10.8889 68.0382 11.9125 68.0884 12.9964C68.2088 15.4953 70.2361 17.5326 72.7451 17.653C73.839 17.7032 74.8526 17.3921 75.6856 16.8401C76.4282 16.3383 76.1171 15.1942 75.2239 15.1441C75.2039 15.1441 75.1838 15.1441 75.1637 15.1441Z" fill="#707070"/>
<path d="M72.9562 15.1742C74.2809 15.1742 75.3548 14.1003 75.3548 12.7757C75.3548 11.451 74.2809 10.3771 72.9562 10.3771C71.6315 10.3771 70.5576 11.451 70.5576 12.7757C70.5576 14.1003 71.6315 15.1742 72.9562 15.1742Z" fill="#D0D0D0"/>
<path d="M73.1766 7.88822C72.7752 7.86815 72.3737 7.89826 71.9924 7.97855C71.5608 8.05883 71.6411 8.69109 72.0726 8.69109H72.1429C74.8225 8.69109 77.0304 10.899 77.0304 13.5786V13.6488C77.0203 14.0804 77.6526 14.1607 77.7429 13.7291C77.8132 13.3477 77.8533 12.9563 77.8332 12.5449C77.7228 10.0359 75.6856 7.99862 73.1766 7.88822Z" fill="#D0D0D0"/>
<path d="M73.7785 14.0502C72.6746 13.9298 71.7914 13.0466 71.671 11.9427C71.671 11.9326 71.671 11.9226 71.671 11.9126C71.6208 11.4409 70.9885 11.3204 70.7778 11.742C70.6072 12.1032 70.5269 12.5147 70.557 12.9463C70.6373 14.1205 71.6007 15.0839 72.7749 15.1642C73.2065 15.1943 73.6179 15.114 73.9692 14.9434C74.4007 14.7427 74.2703 14.1004 73.7986 14.0502C73.7986 14.0502 73.7885 14.0502 73.7785 14.0502Z" fill="#8C8C8C"/>
<path d="M56.7877 6.22221H64.3146L67.4258 6.42293H76.2072C74.762 5.92113 73.2165 5.62005 71.6609 5.62005H71.6408H67.4258L64.3146 5.41934H56.7877L39.9676 2.83008L31.5977 3.76342V4.6265L39.9776 3.94406L56.7877 6.22221Z" fill="#BCC4DC"/>
<mask id="mask0_647_39" style="mask-type:luminance" maskUnits="userSpaceOnUse" x="39" y="1" width="26" height="5">
<path d="M64.3146 5.41938H56.7876L39.9775 2.83012L44.8449 1.40503H53.8572C56.9984 1.40503 60.0694 2.38855 62.6285 4.21508L64.3146 5.41938Z" fill="white"/>
</mask>
<g mask="url(#mask0_647_39)">
<path d="M52.0313 6.35257H50.2349L44.4141 0.571899H46.2105L52.0313 6.35257Z" fill="#ABABAB"/>
</g>
<mask id="mask1_647_39" style="mask-type:luminance" maskUnits="userSpaceOnUse" x="39" y="1" width="26" height="5">
<path d="M64.3146 5.41938H56.7876L39.9775 2.83012L44.8449 1.40503H53.8572C56.9984 1.40503 60.0694 2.38855 62.6285 4.21508L64.3146 5.41938Z" fill="white"/>
</mask>
<g mask="url(#mask1_647_39)">
<path d="M57.461 6.35257H53.7075L47.8867 0.571899H51.6301L57.461 6.35257Z" fill="#97A1C0"/>
</g>
<path d="M50.686 4.48605L48.6387 4.1649V1.40503H50.686V4.48605Z" fill="#D0D0D0"/>
</svg>
