<svg width="150" height="43" viewBox="0 0 150 43" fill="none" xmlns="http://www.w3.org/2000/svg">
<path d="M0 19.7763C0 17.4148 1.91441 15.5004 4.27595 15.5004C6.63749 15.5004 8.5519 17.4148 8.5519 19.7763V38.4836C8.5519 40.8451 6.63749 42.7595 4.27595 42.7595C1.91441 42.7595 0 40.8451 0 38.4836V19.7763Z" fill="#97A1C0"/>
<path d="M19.2422 19.7763C19.2422 17.4148 21.1566 15.5004 23.5181 15.5004C25.8797 15.5004 27.7941 17.4148 27.7941 19.7763C27.7941 22.1379 25.8797 24.0523 23.5181 24.0523C21.1566 24.0523 19.2422 22.1379 19.2422 19.7763Z" fill="#97A1C0"/>
<path d="M18.4403 31.0226V15.2331C18.4403 13.0191 16.6455 11.2244 14.4316 11.2244C12.2176 11.2244 10.4229 13.0191 10.4229 15.2331V31.4238C10.4229 37.5367 15.3784 42.4922 21.4913 42.4922H25.3887C27.6026 42.4922 29.3974 40.6975 29.3974 38.4835C29.3974 36.2696 27.6026 34.4748 25.3887 34.4748H21.8925C19.9859 34.4748 18.4403 32.9292 18.4403 31.0226Z" fill="#97A1C0"/>
<path d="M16.0351 5.87948C16.0351 6.76506 15.3172 7.48296 14.4316 7.48296C13.546 7.48296 12.8281 6.76506 12.8281 5.87948C12.8281 4.9939 13.546 4.276 14.4316 4.276C15.3172 4.276 16.0351 4.9939 16.0351 5.87948Z" fill="#97A1C0"/>
<path d="M19.2418 1.33623C19.2418 2.07422 18.6436 2.67247 17.9056 2.67247C17.1676 2.67247 16.5693 2.07422 16.5693 1.33623C16.5693 0.598252 17.1676 0 17.9056 0C18.6436 0 19.2418 0.598252 19.2418 1.33623Z" fill="#97A1C0"/>
<path d="M14.4316 0.80174C14.4316 1.24453 14.0727 1.60348 13.6299 1.60348C13.1871 1.60348 12.8281 1.24453 12.8281 0.80174C12.8281 0.358951 13.1871 0 13.6299 0C14.0727 0 14.4316 0.358951 14.4316 0.80174Z" fill="#97A1C0"/>
<path d="M145.968 42.7595V22.9833H149.014V42.7595H145.968Z" fill="#97A1C0"/>
<path d="M141.948 28.0343V42.7596H138.901V40.9958C137.939 42.2518 136.282 42.9734 134.545 42.9734C131.098 42.9734 128.479 40.8087 128.479 36.6931V28.0343H131.498V36.2388C131.498 38.938 132.968 40.3277 135.186 40.3277C137.431 40.3277 138.901 38.938 138.901 36.2388V28.0343H141.948Z" fill="#97A1C0"/>
<path d="M125.321 38.6439C125.321 41.1293 123.156 43 119.682 43C116.154 43 113.669 40.9155 113.535 38.243H116.689C116.796 39.4457 117.945 40.4345 119.628 40.4345C121.392 40.4345 122.328 39.6862 122.328 38.6706C122.328 35.7844 113.776 37.4413 113.776 32.0429C113.776 29.6912 115.967 27.7937 119.441 27.7937C122.782 27.7937 124.973 29.5843 125.134 32.524H122.087C121.98 31.2412 120.991 30.3593 119.334 30.3593C117.704 30.3593 116.849 31.0274 116.849 32.0162C116.849 34.9826 125.16 33.3257 125.321 38.6439Z" fill="#97A1C0"/>
<path d="M107.431 42.7595V34.5283C107.431 31.8291 105.961 30.4394 103.743 30.4394C101.498 30.4394 100.028 31.8291 100.028 34.5283V42.7595H96.9814V28.0342H100.028V29.7179C101.017 28.5153 102.647 27.7937 104.411 27.7937C107.858 27.7937 110.451 29.9584 110.451 34.074V42.7595H107.431Z" fill="#97A1C0"/>
<path d="M93.9695 35.3835C93.9695 40.0069 90.5487 43 86.3262 43C82.1304 43 78.9502 40.0069 78.9502 35.3835C78.9502 30.7601 82.2641 27.7937 86.4598 27.7937C90.6556 27.7937 93.9695 30.7601 93.9695 35.3835ZM82.0503 35.3835C82.0503 38.7241 84.0279 40.3543 86.3262 40.3543C88.5978 40.3543 90.8427 38.7241 90.8427 35.3835C90.8427 32.0429 88.678 30.4394 86.4064 30.4394C84.1081 30.4394 82.0503 32.0429 82.0503 35.3835Z" fill="#97A1C0"/>
<path d="M65.1416 42.7595V22.9833H68.1882V34.4749L73.5332 28.0342H77.7557L70.9676 35.4102L77.7557 42.7595H73.64L68.1882 36.4258V42.7595H65.1416Z" fill="#97A1C0"/>
<path d="M58.2355 42.7595V34.5283C58.2355 31.8291 56.7656 30.4394 54.5475 30.4394C52.3026 30.4394 50.8327 31.8291 50.8327 34.5283V42.7595H47.7861V28.0342H50.8327V29.7179C51.8216 28.5153 53.4518 27.7937 55.2156 27.7937C58.6631 27.7937 61.2554 29.9584 61.2554 34.074V42.7595H58.2355Z" fill="#97A1C0"/>
<path d="M40.7393 42.7594V24.1858H43.7859V42.7594H40.7393Z" fill="#97A1C0"/>
</svg>
