<svg width="147" height="23" viewBox="0 0 147 23" fill="none" xmlns="http://www.w3.org/2000/svg">
<g clip-path="url(#clip0_647_4)">
<path d="M3.23536 12.4626L0.795619 10.0267C0.441463 9.67315 0.28125 9.25782 0.28125 8.77515V4.47879C0.28125 3.99892 0.441463 3.58079 0.795619 3.2272L3.23536 0.794183C3.55579 0.474271 4.00551 0.28064 4.48896 0.28064H15.9512V3.16546H3.94086C3.52487 3.16546 3.20163 3.48537 3.20163 3.86983V9.3841C3.20163 9.76856 3.52206 10.0885 3.94086 10.0885H14.5037V12.9733H4.48615C4.00551 12.9733 3.55579 12.7797 3.23255 12.4598L3.23536 12.4626ZM0.28125 16.5007C0.28125 16.1472 0.441463 15.7964 0.666324 15.5382L3.20163 12.9733V22.7194H0.28125V16.5007Z" fill="#97A1C0" stroke="#97A1C0" stroke-miterlimit="10"/>
<path d="M21.5358 22.2058L19.0315 19.7055C18.6773 19.3519 18.5171 18.9029 18.5171 18.423V10.8265C18.5171 10.3466 18.6773 9.89765 19.0315 9.54406L21.5358 7.04369C21.8563 6.72378 22.306 6.53015 22.7894 6.53015H29.822C30.0777 6.53015 30.3026 6.65924 30.4628 6.81919L32.9672 9.31956C33.1921 9.54406 33.3214 9.8331 33.3214 10.1221C33.3214 10.4112 33.1921 10.7002 32.9672 10.9247L25.4231 18.4567L23.3994 16.4699L30.4628 9.41778H22.1795C21.7635 9.41778 21.4403 9.73769 21.4403 10.1221V19.1302C21.4403 19.5147 21.7607 19.8346 22.1795 19.8346H32.5821V22.7194H22.7894C22.3088 22.7194 21.8591 22.5258 21.5358 22.2058Z" fill="#97A1C0" stroke="#97A1C0" stroke-miterlimit="10"/>
<path d="M38.9035 22.2058L36.3991 19.7055C36.045 19.3519 35.8848 18.9029 35.8848 18.423V0.28064H38.8051V19.1302C38.8051 19.5147 39.1256 19.8346 39.5444 19.8346H42.7233V22.7194H40.1543C39.6737 22.7194 39.2239 22.5258 38.9007 22.2058H38.9035Z" fill="#97A1C0" stroke="#97A1C0" stroke-miterlimit="10"/>
<path d="M47.6706 22.2058L45.1662 19.7055C44.8121 19.3519 44.6519 18.9029 44.6519 18.423V0.28064H47.5722V19.1302C47.5722 19.5147 47.8927 19.8346 48.3115 19.8346H51.4904V22.7194H48.9214C48.4408 22.7194 47.991 22.5258 47.6678 22.2058H47.6706Z" fill="#97A1C0" stroke="#97A1C0" stroke-miterlimit="10"/>
<path d="M56.4343 22.2058L53.9299 19.7055C53.5757 19.3519 53.4155 18.9029 53.4155 18.423V10.8265C53.4155 10.3466 53.5757 9.89765 53.9299 9.54406L56.4343 7.04369C56.7547 6.72378 57.2044 6.53015 57.6879 6.53015H64.5574C65.038 6.53015 65.4878 6.72378 65.811 7.04369L68.3154 9.54406C68.6695 9.89765 68.8297 10.3466 68.8297 10.8265V18.423C68.8297 18.9029 68.6695 19.3519 68.3154 19.7055L65.811 22.2058C65.4906 22.5258 65.0408 22.7194 64.5574 22.7194H57.6879C57.2072 22.7194 56.7575 22.5258 56.4343 22.2058ZM57.078 19.8346H65.1701C65.5861 19.8346 65.9094 19.5147 65.9094 19.1302V10.1221C65.9094 9.73769 65.5889 9.41778 65.1701 9.41778H57.078C56.662 9.41778 56.3387 9.73769 56.3387 10.1221V19.1302C56.3387 19.5147 56.6592 19.8346 57.078 19.8346Z" fill="#97A1C0" stroke="#97A1C0" stroke-miterlimit="10"/>
<path d="M72.04 6.53015H74.9632V22.7166H72.04V6.53015ZM81.5432 6.88374C81.7681 6.65924 82.0576 6.53015 82.3471 6.53015C82.6366 6.53015 82.9261 6.65924 83.151 6.88374L85.6554 9.3841C85.8156 9.54406 85.9449 9.76856 85.9449 10.0239V22.7166H83.0245V9.41497L77.7262 14.7047L75.7025 12.7179L81.546 6.88374H81.5432ZM94.0005 9.41497L88.6713 14.7047L86.6476 12.7179L92.5221 6.88374C92.7469 6.65924 93.0364 6.53015 93.3259 6.53015C93.6154 6.53015 93.905 6.65924 94.1298 6.88374L96.6342 9.3841C96.7944 9.54406 96.9237 9.76856 96.9237 10.0239V22.7166H94.0033V9.41497H94.0005Z" fill="#97A1C0" stroke="#97A1C0" stroke-miterlimit="10"/>
<path d="M99.8098 18.3276L107.354 10.7956L109.378 12.7825L102.314 19.8346H111.753L109.153 22.4303C108.993 22.5903 108.734 22.7194 108.478 22.7194H102.955C102.699 22.7194 102.474 22.5903 102.311 22.4303L99.807 19.93C99.3573 19.481 99.3573 18.7766 99.807 18.3276H99.8098ZM111.016 9.41497H100.195V6.53015H110.662C111.143 6.53015 111.337 6.72378 111.657 7.04369L114.162 9.54406C114.516 9.89765 114.676 10.3466 114.676 10.8265V22.7194H111.756V10.1221C111.756 9.73769 111.435 9.41778 111.016 9.41778V9.41497Z" fill="#97A1C0" stroke="#97A1C0" stroke-miterlimit="10"/>
<path d="M117.886 1.85217H120.809V5.82582C120.809 6.21027 121.129 6.53019 121.548 6.53019H129.061V9.41501H121.902C121.422 9.41501 121.228 9.22138 120.907 8.90146L118.403 6.4011C118.049 6.04751 117.889 5.59851 117.889 5.11864V1.85217H117.886ZM120.68 22.3658L118.175 19.8655C118.015 19.7055 117.886 19.481 117.886 19.2228V9.89488H120.809V19.8318L127.327 13.3241L129.351 15.3109L122.287 22.363C122.063 22.5875 121.773 22.7166 121.484 22.7166C121.194 22.7166 120.905 22.5875 120.68 22.363V22.3658Z" fill="#97A1C0" stroke="#97A1C0" stroke-miterlimit="10"/>
<path d="M134.937 22.2058L132.432 19.7055C132.078 19.3519 131.918 18.9029 131.918 18.423V10.8265C131.918 10.3466 132.078 9.89765 132.432 9.54406L134.937 7.04369C135.257 6.72378 135.707 6.53015 136.19 6.53015H143.223C143.479 6.53015 143.703 6.65924 143.867 6.81919L146.371 9.31956C146.596 9.54406 146.725 9.8331 146.725 10.1221C146.725 10.4112 146.596 10.7002 146.371 10.9247L138.827 18.4567L136.803 16.4699L143.867 9.41778H135.583C135.164 9.41778 134.844 9.73769 134.844 10.1221V19.1302C134.844 19.5147 135.164 19.8346 135.583 19.8346H145.986V22.7194H136.193C135.713 22.7194 135.263 22.5258 134.94 22.2058H134.937Z" fill="#97A1C0" stroke="#97A1C0" stroke-miterlimit="10"/>
</g>
<defs>
<clipPath id="clip0_647_4">
<rect width="147" height="23" fill="white"/>
</clipPath>
</defs>
</svg>
