<svg width="112" height="42" viewBox="0 0 112 42" fill="none" xmlns="http://www.w3.org/2000/svg">
<path d="M58.2578 5.97916C58.3059 8.38541 58.3539 10.7917 58.4034 13.2708C58.836 12.9821 59.2686 12.6933 59.7142 12.3958C61.5599 11.5288 63.7257 11.3894 65.6856 11.9583C67.3654 12.5961 68.5633 13.5957 69.3307 15.2316C69.7552 16.348 69.8484 17.3952 69.9275 18.5846C69.9401 18.7609 69.9527 18.9371 69.9656 19.1187C69.9964 19.5513 70.0261 19.9839 70.0549 20.4167C70.1271 20.3478 70.1993 20.279 70.2737 20.2081C70.8998 19.6319 71.4279 19.2453 72.2487 18.9765C72.4156 18.9198 72.5825 18.863 72.7545 18.8045C73.6911 18.5486 74.5937 18.5001 75.557 18.5066C75.6751 18.5068 75.7933 18.507 75.915 18.5072C76.2889 18.508 76.6628 18.5098 77.0367 18.5117C77.2917 18.5124 77.5467 18.5131 77.8016 18.5137C78.4236 18.5153 79.0455 18.5178 79.6674 18.5208C79.5534 18.2848 79.4385 18.0493 79.3232 17.8139C79.2274 17.617 79.2274 17.617 79.1296 17.4162C78.7477 16.7068 78.2543 16.4731 77.5192 16.2239C75.604 15.7107 73.7025 16.2294 72.0103 17.1924C71.657 17.3542 71.657 17.3542 71.2201 17.2083C71.0368 16.9356 71.0368 16.9356 70.8588 16.5817C70.7945 16.4539 70.7302 16.326 70.664 16.1943C70.5982 16.0597 70.5324 15.9251 70.4646 15.7864C70.3971 15.6541 70.3296 15.5218 70.26 15.3854C70.1963 15.2568 70.1326 15.1282 70.0669 14.9958C70.0086 14.8783 69.9504 14.7609 69.8904 14.6399C69.7495 14.2528 69.7225 13.9713 69.7636 13.5625C71.3603 11.9637 74.637 11.6519 76.7454 11.6211C78.9027 11.6292 81.0113 12.1116 82.6867 13.5198C83.3152 14.1556 83.7548 14.9032 84.0367 15.75C84.0848 14.4987 84.1329 13.2475 84.1824 11.9583C85.6723 11.9583 87.1622 11.9583 88.6973 11.9583C88.7454 12.4396 88.7934 12.9208 88.843 13.4167C89.0082 13.2843 89.1734 13.152 89.3436 13.0156C91.0147 11.7687 92.9602 11.4463 95.0038 11.7344C96.6286 12.0575 97.7944 12.7695 98.8924 14C99.0997 13.8105 99.0997 13.8105 99.3111 13.6172C100.984 12.205 102.941 11.5384 105.132 11.6199C106.485 11.7573 107.661 12.0745 108.796 12.8333C108.925 12.9175 109.054 13.0018 109.188 13.0885C110.344 14.2156 111.09 15.8254 111.144 17.4417C111.144 17.6468 111.144 17.8519 111.143 18.057C111.143 18.1695 111.143 18.282 111.143 18.3978C111.143 18.7679 111.142 19.138 111.141 19.508C111.14 19.7653 111.14 20.0226 111.14 20.2798C111.139 20.9557 111.138 21.6315 111.136 22.3073C111.135 22.9975 111.134 23.6876 111.134 24.3778C111.132 25.731 111.129 27.0842 111.126 28.4375C109.588 28.4375 108.05 28.4375 106.466 28.4375C106.459 27.7895 106.452 27.1415 106.444 26.4739C106.438 25.9542 106.431 25.4346 106.424 24.915C106.417 24.3681 106.41 23.8212 106.404 23.2743C106.399 22.7467 106.392 22.2191 106.385 21.6914C106.382 21.491 106.38 21.2906 106.378 21.0902C106.384 18.9409 106.384 18.9409 105.446 17.0625C104.703 16.4087 103.967 16.4292 103.014 16.4387C102.126 16.5135 101.613 16.8447 100.959 17.4271C100.072 18.6217 100.136 20.3581 100.129 21.7724C100.126 21.9642 100.123 22.1559 100.121 22.3535C100.114 22.8569 100.109 23.3603 100.106 23.8638C100.101 24.3801 100.095 24.8963 100.088 25.4126C100.075 26.4209 100.067 27.4291 100.058 28.4375C98.5195 28.4375 96.9815 28.4375 95.3969 28.4375C95.3915 27.8051 95.386 27.1727 95.3804 26.5211C95.3749 26.0123 95.3689 25.5035 95.3626 24.9946C95.3562 24.46 95.3504 23.9255 95.3465 23.3909C95.3427 22.8745 95.3367 22.3583 95.3295 21.842C95.3259 21.5522 95.3244 21.2624 95.323 20.9726C95.3023 19.672 95.2259 18.342 94.5504 17.1992C93.7107 16.4545 92.9084 16.3919 91.8264 16.4205C91.0873 16.5059 90.5578 16.7012 90.0081 17.2083C89.3441 18.1087 89.1196 18.92 89.1044 20.0271C89.1014 20.214 89.0985 20.4008 89.0956 20.5933C89.0931 20.7964 89.0906 20.9996 89.0882 21.2028C89.0852 21.4112 89.0821 21.6196 89.079 21.828C89.071 22.3756 89.0638 22.9232 89.0567 23.4708C89.0481 24.1283 89.0385 24.7859 89.029 25.4434C89.0148 26.4414 89.0018 27.4394 88.9886 28.4375C86.0087 28.4375 83.0289 28.4375 79.9587 28.4375C79.9106 27.9562 79.8626 27.475 79.8131 26.9791C79.6358 27.1356 79.4586 27.292 79.276 27.4531C77.6731 28.6799 75.7814 28.7511 73.8417 28.5833C72.3122 28.3507 71.0887 27.6829 70.0549 26.5416C70.0069 27.1673 69.9588 27.7929 69.9093 28.4375C68.3232 28.4375 66.7372 28.4375 65.103 28.4375C65.0976 27.7684 65.0922 27.0994 65.0865 26.4101C65.0821 25.984 65.0776 25.558 65.0726 25.132C65.0647 24.4571 65.0573 23.7822 65.0526 23.1073C65.0488 22.5626 65.0429 22.018 65.0356 21.4733C65.0332 21.2664 65.0315 21.0595 65.0306 20.8526C65.0241 19.5215 64.9777 18.3721 64.2565 17.2266C63.5863 16.5747 62.9261 16.4139 62.0081 16.4062C61.0054 16.4319 60.2053 16.5492 59.4229 17.2083C58.68 18.1519 58.3902 18.9712 58.3735 20.1596C58.3706 20.3435 58.3677 20.5274 58.3647 20.7169C58.3623 20.9168 58.3598 21.1168 58.3574 21.3167C58.3544 21.5219 58.3513 21.727 58.3482 21.9322C58.3402 22.4711 58.333 23.0101 58.3259 23.549C58.3186 24.0994 58.3105 24.6497 58.3025 25.2001C58.2867 26.2792 58.2723 27.3583 58.2578 28.4375C56.6717 28.4375 55.0857 28.4375 53.4516 28.4375C53.4035 27.7637 53.3554 27.09 53.3059 26.3958C53.0896 27.4064 53.0896 27.4064 52.869 28.4375C51.379 28.4375 49.8891 28.4375 48.354 28.4375C48.306 27.9081 48.2579 27.3787 48.2084 26.8333C48.0762 26.9627 47.944 27.092 47.8079 27.2252C46.1858 28.624 44.1208 28.7113 42.0913 28.5833C40.4401 28.3327 38.8951 27.59 37.8677 26.25C37.0174 24.8443 36.6641 23.5363 36.6422 21.9114C36.6394 21.7804 36.6366 21.6493 36.6337 21.5143C36.625 21.0998 36.6182 20.6853 36.6115 20.2708C36.6059 19.9881 36.6002 19.7053 36.5944 19.4226C36.5805 18.7331 36.5683 18.0437 36.5569 17.3542C36.121 18.3582 35.6854 19.3623 35.2498 20.3665C35.0959 20.7213 34.942 21.0762 34.788 21.431C33.6511 24.0506 33.6511 24.0506 32.5289 26.6767C32.4791 26.794 32.4293 26.9112 32.378 27.0321C32.153 27.5621 31.9289 28.0924 31.7062 28.6234C30.7541 30.8796 29.8405 32.7297 27.5833 33.8817C25.8115 34.5919 23.5817 34.5137 21.8059 33.8629C20.6027 33.3298 20.6027 33.3298 20.2448 32.9583C20.0981 32.5128 20.0741 32.2947 20.2431 31.8518C20.317 31.7213 20.391 31.5907 20.4672 31.4561C20.5466 31.3137 20.6259 31.1713 20.7076 31.0246C20.7922 30.8777 20.8768 30.7308 20.9639 30.5794C21.0479 30.4297 21.1319 30.2799 21.2185 30.1257C21.4261 29.7563 21.6356 29.3881 21.8469 29.0208C22.2506 29.1788 22.6344 29.3428 23.0211 29.5403C23.8838 29.9631 24.6447 30.0151 25.579 29.7409C26.1454 29.4153 26.5663 29.0619 26.7988 28.4375C26.7397 27.5351 26.3277 26.745 25.9676 25.9298C25.898 25.7703 25.8285 25.6109 25.7569 25.4465C25.6083 25.106 25.4593 24.7657 25.3099 24.4255C25.0781 23.8978 24.8475 23.3696 24.6172 22.8412C24.316 22.1504 24.0145 21.4597 23.7125 20.7693C23.2125 19.6259 22.7144 18.4818 22.2201 17.3359C22.1498 17.175 22.0795 17.014 22.0071 16.8482C21.9146 16.6334 21.9146 16.6334 21.8201 16.4142C21.7682 16.2946 21.7163 16.175 21.6629 16.0518C21.5556 15.75 21.5556 15.75 21.5556 15.3125C21.4595 15.3125 21.3633 15.3125 21.2643 15.3125C21.2391 15.3924 21.214 15.4722 21.188 15.5545C20.9276 16.3611 20.6226 17.1336 20.2778 17.9073C20.2253 18.0264 20.1728 18.1455 20.1188 18.2682C19.9489 18.6534 19.7783 19.0383 19.6076 19.4232C19.3705 19.9601 19.1338 20.4971 18.897 21.0342C18.8381 21.1676 18.7792 21.3011 18.7185 21.4386C18.3546 22.2638 17.994 23.0904 17.6374 23.9189C17.5944 24.0188 17.5514 24.1187 17.5071 24.2216C17.3097 24.6804 17.1129 25.1394 16.9167 25.5987C16.847 25.7608 16.7773 25.9229 16.7055 26.0899C16.6467 26.2275 16.5879 26.3651 16.5273 26.5069C16.2307 27.1588 15.9042 27.7967 15.5842 28.4375C13.9981 28.4375 12.4121 28.4375 10.778 28.4375C9.67596 26.0145 8.59013 23.5886 7.54844 21.1392C6.84643 19.4889 6.13272 17.8442 5.41052 16.2026C4.5433 14.231 3.67669 12.2591 2.82267 10.2817C2.72604 10.0584 2.62905 9.83529 2.53166 9.61232C2.39802 9.30613 2.26573 8.99939 2.13378 8.69246C2.02152 8.43337 2.02152 8.43337 1.90699 8.16905C1.74805 7.72916 1.74805 7.72916 1.74805 7.14583C3.52636 7.14583 5.30467 7.14583 7.13686 7.14583C8.13935 9.15341 8.13935 9.15341 8.50341 10.038C8.54604 10.14 8.58867 10.242 8.63259 10.3472C8.77174 10.6804 8.91009 11.014 9.04844 11.3476C9.25179 11.8356 9.4556 12.3234 9.65946 12.8111C9.71294 12.9392 9.76643 13.0673 9.82154 13.1993C10.2566 14.2398 10.6979 15.2775 11.1409 16.3145C11.2412 16.5493 11.2412 16.5493 11.3434 16.7889C11.6093 17.4116 11.8751 18.0342 12.142 18.6564C12.328 19.0903 12.5134 19.5244 12.6986 19.9586C12.7831 20.1549 12.7831 20.1549 12.8693 20.3551C12.9202 20.4746 12.9711 20.5942 13.0235 20.7173C13.0682 20.8217 13.1129 20.9261 13.159 21.0337C13.2539 21.2917 13.2539 21.2917 13.2539 21.5833C13.35 21.5833 13.4461 21.5833 13.5452 21.5833C13.5602 21.4845 13.5752 21.3857 13.5906 21.284C13.7118 20.764 13.9128 20.2961 14.1289 19.8105C14.1746 19.7062 14.2203 19.6019 14.2674 19.4944C14.4205 19.1453 14.5745 18.7966 14.7285 18.4479C14.8936 18.0721 15.0584 17.6961 15.2231 17.3202C15.342 17.0489 15.461 16.7776 15.5801 16.5064C16.0805 15.366 16.5766 14.2239 17.0714 13.0811C17.1474 12.9055 17.2235 12.7298 17.3018 12.5489C17.5304 12.0209 17.7588 11.4929 17.9873 10.9648C18.277 10.2954 18.5668 9.62609 18.8566 8.95678C18.9213 8.80726 18.986 8.65773 19.0526 8.50368C19.1117 8.36712 19.1709 8.23056 19.2318 8.08987C19.2835 7.97036 19.3353 7.85085 19.3886 7.72773C19.4751 7.53161 19.5665 7.33759 19.6622 7.14583C21.2963 7.14583 22.9305 7.14583 24.6141 7.14583C24.5017 7.93335 24.4056 8.39765 24.1038 9.09578C23.9961 9.34745 23.9961 9.34745 23.8862 9.6042C23.811 9.77649 23.7358 9.94878 23.6583 10.1263C23.5826 10.3025 23.5068 10.4788 23.4288 10.6604C23.2424 11.0935 23.0545 11.526 22.8664 11.9583C23.6354 11.9583 24.4044 11.9583 25.1967 11.9583C26.4482 14.8958 27.6987 17.8333 28.9116 20.787C28.9773 20.9472 29.0431 21.1073 29.1109 21.2723C29.1676 21.4108 29.2243 21.5493 29.2827 21.6921C29.3705 21.9018 29.4644 22.1091 29.566 22.3125C29.6492 22.1117 29.6492 22.1117 29.7342 21.9069C30.781 19.3835 31.8316 16.8617 32.8976 14.3463C32.9419 14.2418 32.9861 14.1372 33.0318 14.0295C33.1564 13.7352 33.2813 13.4409 33.4062 13.1466C33.5123 12.8966 33.5123 12.8966 33.6206 12.6416C33.72 12.4114 33.8233 12.1826 33.9353 11.9583C36.3865 11.9583 38.8377 11.9583 41.3631 11.9583C41.3703 12.5958 41.3774 13.2333 41.3847 13.89C41.3912 14.4013 41.398 14.9126 41.405 15.4238C41.4122 15.9619 41.419 16.4999 41.4246 17.038C41.43 17.5571 41.4367 18.0762 41.4444 18.5953C41.4484 18.8878 41.451 19.1803 41.4536 19.4727C41.4729 21.4666 41.4729 21.4666 42.3826 23.1875C43.2552 23.8229 44.0813 24.0219 45.1499 23.9166C46.0277 23.7191 46.7499 23.2906 47.3345 22.6042C47.9086 21.6321 48.0755 20.6617 48.0926 19.5409C48.0955 19.3716 48.0984 19.2023 48.1014 19.0279C48.1039 18.8474 48.1063 18.6669 48.1088 18.4809C48.1134 18.2012 48.1134 18.2012 48.118 17.9158C48.1259 17.4224 48.1332 16.929 48.1403 16.4356C48.1476 15.9312 48.1557 15.4267 48.1637 14.9223C48.1793 13.9343 48.1941 12.9463 48.2084 11.9583C48.9774 11.9583 49.7464 11.9583 50.5387 11.9583C50.5618 11.6476 50.5849 11.3368 50.6087 11.0167C50.6334 10.7154 50.6593 10.4143 50.6854 10.1132C50.7028 9.90405 50.719 9.69484 50.734 9.48553C50.7558 9.18436 50.7819 8.88383 50.8089 8.58308C50.8307 8.31159 50.8307 8.31159 50.8528 8.03461C50.9756 7.58333 50.9756 7.58333 51.3116 7.32072C51.5057 7.23415 51.5057 7.23415 51.7038 7.14583C51.8055 7.0941 51.9071 7.04237 52.0118 6.98907C52.3585 6.83082 52.7086 6.68249 53.0601 6.53515C53.1734 6.48148 53.2867 6.42781 53.4035 6.37252C55.0436 5.69937 56.3352 5.97916 58.2578 5.97916ZM74.051 22.5768C73.8017 23.1304 73.7818 23.3477 73.9873 23.9166C74.4554 24.5059 74.8544 24.7847 75.5894 24.9375C76.7713 25.0506 77.8915 24.9016 78.8482 24.1536C79.4758 23.5407 79.4758 23.5407 79.6834 22.7154C79.6815 22.5982 79.6796 22.4811 79.6777 22.3603C79.6762 22.2421 79.6747 22.1239 79.6732 22.0022C79.6713 21.9121 79.6694 21.822 79.6674 21.7292C79.012 21.7164 78.3567 21.7086 77.7012 21.7018C77.5165 21.6981 77.3317 21.6945 77.1414 21.6907C75.4269 21.661 75.4269 21.661 74.051 22.5768Z" fill="#97A1C0"/>
<path d="M55.0536 6.70837C54.8439 8.48928 54.5834 10.2597 54.3072 12.0313C54.2664 12.2947 54.2256 12.558 54.1849 12.8214C54.0864 13.4574 53.9875 14.0933 53.8884 14.7292C54.0533 14.6749 54.2181 14.6206 54.388 14.5646C54.6038 14.4948 54.8196 14.4251 55.0354 14.3555C55.1984 14.3015 55.1984 14.3015 55.3648 14.2464C56.1858 13.9835 56.1858 13.9835 56.51 14.1459C56.4668 14.2728 56.4235 14.3997 56.3789 14.5305C55.9174 15.8986 55.4909 17.2747 55.0824 18.6596C54.9813 19.0023 54.8795 19.3448 54.7777 19.6873C54.4031 20.9505 54.0399 22.2163 53.6929 23.4874C53.4912 24.2237 53.2676 24.9466 53.0146 25.6667C52.9665 25.6667 52.9185 25.6667 52.8689 25.6667C52.8474 24.126 52.9046 22.5953 52.9854 21.0571C53.0058 20.6665 53.0249 20.2759 53.0439 19.8852C53.0566 19.6363 53.0694 19.3873 53.0823 19.1384C53.0879 19.0219 53.0935 18.9054 53.0993 18.7854C53.1435 17.971 53.1435 17.971 53.3059 17.6459C52.5904 17.9455 51.8948 18.2701 51.2031 18.6211C51.1105 18.6679 51.0178 18.7146 50.9224 18.7627C50.6972 18.8763 50.4723 18.9902 50.2474 19.1042C50.2276 18.1263 50.3006 17.1935 50.4283 16.2246C50.447 16.0773 50.4657 15.93 50.485 15.7782C50.5446 15.31 50.6053 14.8419 50.6661 14.3737C50.7255 13.9117 50.7846 13.4497 50.8435 12.9877C50.8821 12.6862 50.9209 12.3848 50.9601 12.0835C51.0495 11.389 51.1332 10.6952 51.1993 9.9981C51.217 9.81581 51.217 9.81581 51.2352 9.62985C51.2564 9.40544 51.276 9.18088 51.2937 8.95617C51.3325 8.54836 51.3645 8.23622 51.6005 7.89484C51.8871 7.70417 52.1586 7.58129 52.4821 7.46318C52.6035 7.41853 52.725 7.37388 52.8502 7.32788C52.9765 7.28286 53.1029 7.23783 53.2331 7.19145C53.4226 7.12137 53.4226 7.12137 53.6159 7.04989C54.557 6.70837 54.557 6.70837 55.0536 6.70837Z" fill="white"/>
<path d="M101.859 28.2554C102.242 28.2918 102.242 28.2918 102.486 28.4696C102.745 28.8186 102.706 28.9946 102.652 29.4215C102.637 29.5556 102.622 29.6897 102.606 29.8279C102.579 30.0376 102.579 30.0376 102.551 30.2515C102.517 30.5276 102.484 30.8039 102.452 31.0803C102.436 31.2028 102.421 31.3252 102.404 31.4514C102.387 31.7942 102.432 32.0492 102.533 32.3752C102.743 32.1936 102.952 32.0111 103.161 31.8283C103.336 31.676 103.336 31.676 103.514 31.5207C103.848 31.2235 103.848 31.2235 104.08 30.8804C104.146 30.7962 104.213 30.7119 104.281 30.6252C104.672 30.5887 104.672 30.5887 105.009 30.6252C105.009 30.7214 105.009 30.8177 105.009 30.9168C105.105 30.9168 105.201 30.9168 105.3 30.9168C105.3 31.5906 105.3 32.2643 105.3 32.9585C106.647 32.6887 107.506 31.5036 108.359 30.4793C108.692 30.3126 108.916 30.2948 109.287 30.2788C109.456 30.2681 109.456 30.2681 109.627 30.2572C109.961 30.3335 109.961 30.3335 110.292 30.6348C110.607 31.1709 110.603 31.5117 110.58 32.1291C110.575 32.312 110.569 32.4949 110.564 32.6834C110.557 32.8223 110.55 32.9612 110.543 33.1043C110.654 33.0321 110.766 32.96 110.88 32.8856C111.272 32.6668 111.272 32.6668 111.708 32.6668C111.708 32.7631 111.708 32.8593 111.708 32.9585C111.805 32.9585 111.901 32.9585 112 32.9585C111.954 33.386 111.908 33.6278 111.617 33.952C111.128 34.1969 110.792 34.1916 110.252 34.1252C109.824 33.8335 109.824 33.8335 109.524 33.5418C109.371 33.6817 109.371 33.6817 109.214 33.8244C108.744 34.162 108.499 34.271 107.922 34.271C107.43 33.9884 107.43 33.9884 107.048 33.6877C106.976 33.742 106.903 33.7963 106.829 33.8523C106.28 34.2347 106.005 34.4208 105.318 34.3986C104.863 34.271 104.863 34.271 104.572 34.1252C104.572 34.0289 104.572 33.9327 104.572 33.8335C104.476 33.8335 104.38 33.8335 104.281 33.8335C104.136 33.5447 103.992 33.256 103.844 32.9585C103.745 33.0517 103.645 33.145 103.543 33.2411C103.029 33.6027 102.724 33.6989 102.096 33.6877C101.668 33.3322 101.668 33.3322 101.368 32.9585C101.287 33.0305 101.206 33.1025 101.123 33.1767C101.018 33.2701 100.912 33.3635 100.803 33.4598C100.699 33.5529 100.594 33.6459 100.486 33.7418C100.065 34.0951 99.8052 34.151 99.2651 34.1616C99.1511 34.1654 99.0371 34.1691 98.9197 34.173C98.6006 34.1252 98.6006 34.1252 98.3406 33.9315C98.1636 33.6877 98.1636 33.6877 98.1636 33.2502C98.0842 33.3011 98.0048 33.3521 97.923 33.4045C97.1468 33.8735 96.4636 34.186 95.5421 34.1252C94.9157 33.9045 94.5803 33.6642 94.2313 33.1043C94.0679 32.2378 94.2129 31.475 94.6483 30.7163C94.9553 30.2768 95.2466 30.0971 95.7423 29.9142C96.288 29.8882 96.5583 30.013 96.9985 30.3335C97.1623 30.8166 97.1623 30.8166 97.1441 31.3543C96.8198 31.9913 96.4211 32.41 95.8333 32.8127C95.7372 32.8127 95.6411 32.8127 95.5421 32.8127C95.5421 32.9089 95.5421 33.0052 95.5421 33.1043C97.2567 32.728 98.2302 31.7953 99.351 30.485C99.6201 30.1877 99.6201 30.1877 99.9114 30.0418C100.43 30.0236 100.43 30.0236 100.931 30.0418C101.003 30.114 101.003 30.114 101.077 30.1877C101.096 30.063 101.115 29.9384 101.135 29.81C101.161 29.6489 101.187 29.4878 101.213 29.3218C101.238 29.161 101.264 29.0003 101.29 28.8347C101.394 28.3044 101.394 28.3044 101.859 28.2554ZM100.494 31.2085C100.343 31.3614 100.198 31.5206 100.057 31.6825C99.9789 31.7704 99.9008 31.8584 99.8203 31.9491C99.6116 32.2412 99.5364 32.4618 99.4744 32.8127C99.9656 32.6019 100.304 32.3572 100.64 31.9377C100.688 31.5485 100.688 31.5485 100.64 31.2085C100.592 31.2085 100.543 31.2085 100.494 31.2085ZM109.233 31.3543C108.944 31.7875 108.656 32.2206 108.359 32.6668C108.503 32.6668 108.647 32.6668 108.796 32.6668C108.895 32.5044 108.994 32.342 109.096 32.1746C109.152 32.0833 109.208 31.9919 109.265 31.8978C109.302 31.8147 109.34 31.7316 109.378 31.646C109.33 31.5497 109.282 31.4535 109.233 31.3543Z" fill="#97A1C0"/>
<path d="M92.4841 28.2917C92.9119 28.4011 92.9119 28.4011 93.358 28.5834C93.5854 29.1043 93.4927 29.6583 93.4541 30.2126C93.4474 30.3122 93.4408 30.4117 93.4339 30.5142C93.4125 30.8308 93.3898 31.1472 93.3671 31.4636C93.3523 31.6788 93.3376 31.8939 93.323 32.109C93.287 32.6353 93.25 33.1615 93.2123 33.6876C93.3084 33.6876 93.4046 33.6876 93.5036 33.6876C93.5036 33.9282 93.5036 34.1688 93.5036 34.4167C93.1122 34.5352 93.1122 34.5352 92.6297 34.5626C92.2174 34.2697 91.9409 34.0405 91.8433 33.527C91.8299 33.1738 91.8379 32.8284 91.856 32.4753C91.8593 32.3534 91.8626 32.2315 91.866 32.1059C91.8745 31.8066 91.8876 31.5075 91.9015 31.2084C91.817 31.3347 91.7325 31.4611 91.6455 31.5912C91.5307 31.7554 91.4158 31.9195 91.3007 32.0834C91.2179 32.2086 91.2179 32.2086 91.1335 32.3363C90.9628 32.5756 90.9628 32.5756 90.5907 32.9584C90.1333 33.0319 90.1333 33.0319 89.7169 32.9584C89.0983 32.4717 88.7679 31.8927 88.4061 31.2084C88.1744 32.0281 88.0622 32.805 88.005 33.6551C87.9691 33.9792 87.9691 33.9792 87.8235 34.1251C87.3228 34.0886 87.3228 34.0886 86.804 33.9792C86.3919 33.3604 86.5347 32.939 86.6583 32.2292C86.7629 31.7211 86.8851 31.2189 87.0134 30.7162C87.045 30.5867 87.0766 30.4572 87.1092 30.3237C87.1405 30.1995 87.1717 30.0752 87.2039 29.9472C87.232 29.8356 87.2601 29.7241 87.289 29.6092C87.3866 29.3126 87.3866 29.3126 87.6779 28.8751C88.6052 28.9465 88.6052 28.9465 89.0023 29.267C89.3156 29.6476 89.4523 29.9763 89.6076 30.4428C89.6564 30.5864 89.7053 30.73 89.7555 30.878C89.7908 30.987 89.8261 31.0961 89.8625 31.2084C89.9586 31.2084 90.0548 31.2084 90.1538 31.2084C90.4117 30.9306 90.4117 30.9306 90.6818 30.5704C90.7843 30.4388 90.8868 30.3072 90.9924 30.1716C91.1001 30.0325 91.2079 29.8934 91.3189 29.7501C91.537 29.4763 91.7554 29.2028 91.9743 28.9298C92.1208 28.7465 92.1208 28.7465 92.2702 28.5595C92.3408 28.4711 92.4114 28.3828 92.4841 28.2917Z" fill="#97A1C0"/>
<path d="M1.74805 7.58337C2.18498 7.72921 2.18498 7.72921 2.36216 8.04092C2.4499 8.25066 2.4499 8.25066 2.53942 8.46464C2.60833 8.62678 2.67724 8.78892 2.74825 8.95597C2.78519 9.04493 2.82213 9.13388 2.86018 9.22553C2.98008 9.51417 3.10182 9.80196 3.22408 10.0896C3.35961 10.4086 3.49501 10.7276 3.62987 11.0469C4.17286 12.3319 4.73026 13.6107 5.28709 14.8898C5.59822 15.6047 5.90865 16.32 6.2192 17.0352C6.67746 18.0903 7.13583 19.1454 7.59423 20.2004C7.85786 20.8072 8.12145 21.4141 8.38504 22.0209C8.56983 22.4462 8.75468 22.8716 8.93953 23.2969C9.21272 23.9256 9.48539 24.5546 9.75779 25.1836C9.89826 25.5074 10.0394 25.8309 10.1807 26.1543C10.2619 26.3412 10.343 26.528 10.4241 26.7149C10.4932 26.8734 10.5623 27.0318 10.6335 27.1951C10.778 27.5625 10.778 27.5625 10.778 27.8542C12.364 27.8061 13.9501 27.758 15.5842 27.7084C15.9728 26.8243 16.3612 25.9403 16.7494 25.056C16.8079 24.9226 16.8665 24.7892 16.9268 24.6518C17.8849 22.4681 18.8347 20.281 19.7763 18.0901C20.2606 16.9643 20.7511 15.8423 21.2643 14.7292C21.3604 14.7292 21.4566 14.7292 21.5556 14.7292C21.608 14.851 21.608 14.851 21.6616 14.9753C21.7115 15.0911 21.7613 15.207 21.8127 15.3263C21.8695 15.458 21.9262 15.5897 21.9846 15.7253C22.1135 16.0245 22.2423 16.3237 22.3712 16.6229C22.731 17.458 23.0905 18.2931 23.4496 19.1285C24.1263 20.702 24.8051 22.2744 25.4965 23.8415C25.6583 24.2098 25.82 24.5782 25.9816 24.9466C26.0831 25.1769 26.1852 25.4069 26.2878 25.6366C26.4291 25.9527 26.5683 26.2696 26.7072 26.5867C26.7852 26.7624 26.8632 26.938 26.9435 27.119C27.0878 27.5559 27.1192 27.7291 26.9444 28.1459C25.9762 26.1377 25.118 24.083 24.25 22.03C24.029 21.5082 23.808 20.9864 23.5868 20.4646C23.4447 20.1295 23.3028 19.7943 23.1609 19.459C22.8597 18.748 22.557 18.0381 22.2434 17.3325C22.1949 17.2232 22.1464 17.1139 22.0964 17.0013C22.0093 16.8062 21.9215 16.6115 21.8328 16.4171C21.654 16.0176 21.5556 15.7569 21.5556 15.3125C21.4595 15.3125 21.3633 15.3125 21.2643 15.3125C21.2391 15.3924 21.214 15.4723 21.1881 15.5546C20.9276 16.3612 20.6226 17.1336 20.2778 17.9073C20.2253 18.0264 20.1728 18.1455 20.1188 18.2683C19.9489 18.6535 19.7783 19.0383 19.6076 19.4232C19.3705 19.9601 19.1338 20.4972 18.897 21.0342C18.8381 21.1677 18.7792 21.3011 18.7185 21.4386C18.3546 22.2639 17.994 23.0905 17.6374 23.919C17.5944 24.0189 17.5514 24.1188 17.5071 24.2217C17.3097 24.6805 17.1129 25.1395 16.9167 25.5987C16.847 25.7608 16.7773 25.9229 16.7055 26.09C16.6467 26.2276 16.5879 26.3652 16.5273 26.5069C16.2307 27.1589 15.9042 27.7968 15.5842 28.4375C13.9981 28.4375 12.4121 28.4375 10.778 28.4375C9.67597 26.0145 8.59013 23.5887 7.54844 21.1393C6.79229 19.3617 6.02146 17.5911 5.2435 15.823C4.37929 13.8578 3.52207 11.8899 2.67653 9.91671C2.62872 9.80538 2.58092 9.69406 2.53166 9.57936C2.39873 9.26963 2.26618 8.95974 2.13378 8.64978C2.05894 8.47476 1.9841 8.29975 1.90699 8.11943C1.74805 7.72921 1.74805 7.72921 1.74805 7.58337Z" fill="white"/>
<path d="M36.5562 16.3334C36.7422 16.8528 36.6636 17.1206 36.4479 17.6202C36.3883 17.7606 36.3286 17.901 36.2672 18.0456C36.2005 18.1978 36.1339 18.3499 36.0653 18.5066C35.997 18.6661 35.9287 18.8256 35.8583 18.99C35.6344 19.5118 35.4081 20.0326 35.1817 20.5534C35.0273 20.9114 34.8732 21.2695 34.7192 21.6277C34.4103 22.3455 34.1004 23.0627 33.7897 23.7797C33.4038 24.671 33.0215 25.5638 32.6409 26.4574C32.4861 26.8198 32.3312 27.1821 32.1763 27.5444C32.0815 27.7661 31.987 27.9879 31.8926 28.2097C30.8842 30.5778 29.9782 32.6592 27.5827 33.8818C25.8096 34.5924 23.5835 34.5118 21.8058 33.8641C20.6488 33.3489 20.6488 33.3489 20.2441 32.9584C20.2441 32.814 20.2441 32.6696 20.2441 32.5209C20.9326 32.7933 21.6122 33.0855 22.2923 33.3782C23.9668 34.0181 25.9607 33.8007 27.59 33.1498C29.5771 32.2115 30.473 30.565 31.3131 28.6107C31.3826 28.4518 31.452 28.2929 31.5236 28.1292C31.7962 27.5041 32.0645 26.8771 32.3326 26.25C32.3949 26.1044 32.4571 25.9587 32.5213 25.8086C33.3938 23.7668 34.2624 21.7233 35.1291 19.6789C35.6024 18.5627 36.0777 17.4473 36.5562 16.3334Z" fill="white"/>
<path d="M36.8477 23.3334C37.1077 23.7239 37.2217 23.9999 37.3665 24.4362C37.8814 25.7471 38.9256 26.8178 40.1975 27.4167C42.2335 28.2541 44.4208 28.2326 46.4601 27.4167C47.02 27.1088 47.5408 26.7643 48.0622 26.3959C48.2064 26.3237 48.2064 26.3237 48.3535 26.25C48.2439 26.8651 47.9955 27.1006 47.5234 27.4862C45.7623 28.6538 43.6584 28.8212 41.6141 28.511C39.9431 28.0867 38.5281 27.3214 37.606 25.8268C37.1637 24.9926 36.884 24.279 36.8477 23.3334Z" fill="white"/>
<path d="M69.7637 14C69.8598 14 69.9559 14 70.055 14C70.4875 14.8662 70.9201 15.7325 71.3658 16.625C71.8678 16.4993 72.228 16.3511 72.6856 16.1237C74.2699 15.3977 76.2076 15.1539 77.9106 15.6042C78.7047 15.9118 79.2915 16.6012 79.6674 17.3542C79.6733 17.6458 79.6738 17.9376 79.6674 18.2292C79.4783 17.9451 79.2958 17.6566 79.1213 17.3633C78.5776 16.6223 77.9453 16.2726 77.0624 16.0878C75.2763 15.82 73.5595 16.3108 72.0103 17.1924C71.657 17.3542 71.657 17.3542 71.2201 17.2083C71.0368 16.9287 71.0368 16.9287 70.8588 16.5663C70.7945 16.4365 70.7302 16.3067 70.664 16.173C70.5982 16.0364 70.5324 15.8998 70.4646 15.7591C70.3971 15.6231 70.3296 15.4871 70.2601 15.347C69.7637 14.3346 69.7637 14.3346 69.7637 14Z" fill="#97A1C0"/>
<path d="M79.958 27.8541C82.9379 27.8541 85.9177 27.8541 88.9879 27.8541C88.9879 28.0466 88.9879 28.2391 88.9879 28.4375C86.008 28.4375 83.0282 28.4375 79.958 28.4375C79.958 28.245 79.958 28.0525 79.958 27.8541Z" fill="white"/>
<path d="M69.9092 25.8125C69.9693 25.8672 70.0293 25.9219 70.0912 25.9783C71.7431 27.444 73.5084 28.1549 75.7446 28.0558C77.2055 27.9135 78.3604 27.4226 79.5217 26.5417C79.6659 26.4454 79.81 26.3492 79.9586 26.25C79.909 26.6759 79.8605 26.9236 79.5786 27.2532C77.8643 28.6032 75.9474 28.7655 73.8416 28.5833C72.3517 28.3568 71.1542 27.7005 70.0861 26.6505C69.9092 26.3958 69.9092 26.3958 69.9092 25.8125Z" fill="white"/>
<path d="M63.7957 16.1277C64.4312 16.5817 64.8581 17.2016 65.1031 17.9375C65.1088 18.2777 65.1095 18.6181 65.1031 18.9584C65.055 18.9584 65.0069 18.9584 64.9574 18.9584C64.9326 18.8721 64.9079 18.7858 64.8823 18.6969C64.6139 17.8205 64.3663 17.1727 63.5471 16.6831C62.5771 16.2736 61.4542 16.3302 60.4442 16.592C59.4429 17.021 59.01 17.7079 58.5491 18.6667C58.4935 18.7778 58.438 18.8889 58.3807 19.0034C58.3401 19.0848 58.2996 19.1662 58.2578 19.25C58.3095 18.085 58.5959 17.3988 59.4685 16.5977C60.732 15.5808 62.3324 15.3844 63.7957 16.1277Z" fill="#97A1C0"/>
<path d="M105.201 16.159C105.882 16.6436 106.202 17.3056 106.466 18.0833C106.498 18.4808 106.487 18.8501 106.466 19.25C106.417 19.25 106.369 19.25 106.32 19.25C106.298 19.1231 106.298 19.1231 106.277 18.9937C106.104 18.0921 105.855 17.4226 105.146 16.7982C104.358 16.315 103.423 16.4043 102.533 16.4792C101.827 16.6758 101.241 17.0587 100.79 17.647C100.463 18.2803 100.341 18.9928 100.203 19.6875C100.155 19.6875 100.107 19.6875 100.057 19.6875C99.9707 18.4963 100.312 17.7196 100.949 16.7253C102.118 15.6315 103.798 15.3509 105.201 16.159Z" fill="white"/>
<path d="M93.7854 15.9962C94.5671 16.3981 94.9132 16.8853 95.2146 17.7007C95.3966 18.2889 95.4356 18.7835 95.3966 19.396C95.3485 19.396 95.3005 19.396 95.251 19.396C95.2262 19.2781 95.2014 19.1602 95.1759 19.0388C94.9359 17.8576 94.9359 17.8576 94.2315 16.9168C93.2742 16.3547 92.403 16.3539 91.3186 16.4793C90.4846 16.7263 90.0093 17.1209 89.58 17.8738C89.4765 18.088 89.3762 18.3037 89.2796 18.521C89.1831 18.7158 89.0863 18.9103 88.9883 19.1043C88.9932 18.0341 89.2798 17.4035 90.0078 16.6251C91.0827 15.6275 92.4294 15.4419 93.7854 15.9962Z" fill="white"/>
<path d="M10.4863 27.7084C12.2646 27.7084 14.0429 27.7084 15.8751 27.7084C15.779 27.949 15.6829 28.1896 15.5839 28.4375C13.9978 28.4375 12.4117 28.4375 10.7776 28.4375C10.6815 28.1969 10.5854 27.9563 10.4863 27.7084Z" fill="#97A1C0"/>
<path d="M65.1025 27.8541C66.6886 27.8541 68.2747 27.8541 69.9088 27.8541C69.9088 28.0466 69.9088 28.2391 69.9088 28.4375C68.3227 28.4375 66.7367 28.4375 65.1025 28.4375C65.1025 28.245 65.1025 28.0525 65.1025 27.8541Z" fill="white"/>
<path d="M53.4512 27.8541C55.0372 27.8541 56.6233 27.8541 58.2574 27.8541C58.2574 28.0466 58.2574 28.2391 58.2574 28.4375C56.6714 28.4375 55.0853 28.4375 53.4512 28.4375C53.4512 28.245 53.4512 28.0525 53.4512 27.8541Z" fill="white"/>
<path d="M76.1971 21.2631C76.3462 21.2637 76.3462 21.2637 76.4983 21.2644C76.8143 21.266 77.1304 21.2697 77.4464 21.2734C77.6613 21.2748 77.8762 21.2762 78.091 21.2774C78.6165 21.2806 79.142 21.2856 79.6675 21.2916C79.6675 21.436 79.6675 21.5804 79.6675 21.7291C79.5501 21.7312 79.4326 21.7334 79.3116 21.7356C78.7748 21.7465 78.2381 21.7606 77.7013 21.7747C77.5166 21.778 77.3318 21.7813 77.1415 21.7847C76.1436 21.8133 75.3235 21.8623 74.4243 22.3124C74.0631 22.6786 74.0631 22.6786 73.8418 23.0416C73.7962 22.7226 73.7962 22.7226 73.8418 22.3124C74.5677 21.4442 75.0836 21.254 76.1971 21.2631Z" fill="#97A1C0"/>
<path d="M106.466 27.8541C108.004 27.8541 109.542 27.8541 111.126 27.8541C111.126 28.0466 111.126 28.2391 111.126 28.4375C109.588 28.4375 108.05 28.4375 106.466 28.4375C106.466 28.245 106.466 28.0525 106.466 27.8541Z" fill="white"/>
<path d="M95.3965 27.8541C96.9345 27.8541 98.4725 27.8541 100.057 27.8541C100.057 28.0466 100.057 28.2391 100.057 28.4375C98.5191 28.4375 96.9811 28.4375 95.3965 28.4375C95.3965 28.245 95.3965 28.0525 95.3965 27.8541Z" fill="white"/>
<path d="M48.3535 27.8541C49.6512 27.8541 50.9489 27.8541 52.2859 27.8541C52.2859 28.0466 52.2859 28.2391 52.2859 28.4375C50.9882 28.4375 49.6905 28.4375 48.3535 28.4375C48.3535 28.245 48.3535 28.0525 48.3535 27.8541Z" fill="#97A1C0"/>
<path d="M105.446 28.4375C105.446 28.5337 105.446 28.63 105.446 28.7292C105.543 28.7292 105.639 28.7292 105.738 28.7292C105.829 28.9935 105.829 28.9935 105.883 29.3125C105.739 29.5291 105.739 29.5291 105.592 29.75C105.064 29.7773 105.064 29.7773 104.573 29.75C104.573 29.6537 104.573 29.5575 104.573 29.4583C104.476 29.4583 104.38 29.4583 104.281 29.4583C104.336 29.0299 104.336 29.0299 104.427 28.5833C104.786 28.4037 105.05 28.427 105.446 28.4375Z" fill="#97A1C0"/>
<path d="M58.986 17.3541C58.986 17.8349 58.8778 18.1072 58.6947 18.5481C58.6407 18.6795 58.5866 18.8109 58.5309 18.9463C58.4888 19.0465 58.4468 19.1467 58.4035 19.25C58.3554 19.25 58.3073 19.25 58.2578 19.25C58.3088 18.0552 58.3088 18.0552 58.7038 17.5638C58.797 17.4946 58.8901 17.4254 58.986 17.3541Z" fill="#97A1C0"/>
<path d="M89.7165 17.2083C89.7165 17.689 89.6082 17.9613 89.4252 18.4023C89.3711 18.5337 89.3171 18.6651 89.2614 18.8005C89.2193 18.9007 89.1773 19.0009 89.1339 19.1041C89.0859 19.1041 89.0378 19.1041 88.9883 19.1041C89.0393 17.9093 89.0393 17.9093 89.4343 17.4179C89.5274 17.3487 89.6206 17.2795 89.7165 17.2083Z" fill="#97A1C0"/>
</svg>
