<svg width="207" height="42" viewBox="0 0 207 42" fill="none" xmlns="http://www.w3.org/2000/svg">
<path d="M15.7613 1.43188C22.4152 1.43188 27.7681 4.92721 30.1843 10.3561L23.6791 12.9218C22.1922 9.12904 18.9209 7.12108 15.4267 7.12108C9.99948 7.23264 6.50524 11.5088 6.50524 16.5287C6.50524 22.1064 10.6686 25.9364 15.5011 25.9364C19.6644 25.9364 23.1215 23.7425 24.9058 20.0241L30.11 22.6641C27.3963 28.1674 22.6382 31.6256 15.7241 31.6256C7.17435 31.6256 0 25.2299 0 16.5659C0 7.90195 6.83979 1.43188 15.7613 1.43188Z" fill="#011C75"/>
<path d="M45.4995 7.79041C52.5623 7.79041 57.9524 12.8103 57.9524 19.7266C57.9524 26.6429 52.3393 31.6628 45.4995 31.6628C38.6597 31.6628 32.9723 26.6429 32.9723 19.7266C32.9723 12.8103 38.4739 7.79041 45.4995 7.79041ZM45.4995 13.2565C41.8938 13.2565 39.0315 16.0082 39.0315 19.7266C39.0315 23.445 41.9681 26.2338 45.4995 26.2338C49.0309 26.2338 51.9676 23.445 51.9676 19.7266C51.9676 16.0082 49.1053 13.2565 45.4995 13.2565Z" fill="#011C75"/>
<path d="M68.3235 8.0507V12.8103C69.922 9.76118 73.4162 7.79041 77.3937 7.79041V14.1118C72.8958 13.7771 68.3235 15.2273 68.3235 20.4703V31.4025H62.2644V8.0507H68.3235Z" fill="#011C75"/>
<path d="M92.4116 7.79025C98.8053 7.79025 104.195 11.7318 104.195 18.1647C104.195 19.1315 104.047 20.0611 103.749 21.0651H85.9807C86.5383 24.486 89.698 26.8286 93.2294 26.8286C95.9802 26.8286 98.5823 25.6759 100.255 23.9654L103.563 27.7582C101.296 30.2124 97.3184 31.6254 93.1922 31.6254C86.2409 31.6254 79.9587 27.4236 79.9587 19.6892C79.9587 12.5127 84.8283 7.75307 92.4116 7.75307V7.79025ZM92.0399 12.2524C88.9545 12.2524 86.2409 14.4462 86.0179 17.4954H98.099C98.099 14.0744 95.3111 12.2524 92.0399 12.2524Z" fill="#011C75"/>
<path d="M132.632 7.79025V13.1448H128.841C130.96 14.4091 132.409 17.0492 132.409 19.6892C132.409 26.6055 126.685 31.6254 119.956 31.6254C113.228 31.6254 107.504 26.6055 107.504 19.6892C107.504 12.773 112.894 7.75307 119.956 7.75307H132.67L132.632 7.79025ZM119.919 13.3679C116.351 13.3679 113.563 16.1195 113.563 19.7264C113.563 23.3333 116.462 26.1221 119.919 26.1221C123.376 26.1221 126.276 23.3705 126.276 19.7264C126.276 16.0824 123.488 13.3679 119.919 13.3679Z" fill="#011C75"/>
<path d="M119.919 36.4224C123.525 36.4224 126.871 35.4184 129.621 33.6336L132.038 38.8394C128.432 40.8473 124.38 42 119.919 42C115.459 42 111.37 40.8473 107.801 38.8394L110.106 33.6336C112.894 35.4184 116.314 36.4224 119.919 36.4224Z" fill="#FFCF23"/>
<path d="M148.617 7.79025C155.011 7.79025 160.401 11.7318 160.401 18.1647C160.401 19.1315 160.252 20.0611 159.955 21.0651H142.186C142.744 24.486 145.903 26.8286 149.435 26.8286C152.185 26.8286 154.788 25.6759 156.46 23.9654L159.769 27.7582C157.501 30.2124 153.524 31.6254 149.398 31.6254C142.446 31.6254 136.164 27.4236 136.164 19.6892C136.164 12.5127 141.034 7.75307 148.617 7.75307V7.79025ZM148.245 12.2524C145.16 12.2524 142.446 14.4462 142.223 17.4954H154.304C154.304 14.0744 151.516 12.2524 148.245 12.2524Z" fill="#011C75"/>
<path d="M170.883 8.0507V12.2897C172.333 9.42652 175.604 7.79041 178.876 7.79041C183.82 7.79041 186.942 11.546 186.942 17.4583V31.3653H180.883V17.793C180.883 15.0785 179.284 13.0334 176.496 12.9962C173.374 12.959 170.883 15.5991 170.883 18.7598V31.3653H164.824V8.0507H170.883Z" fill="#011C75"/>
<path d="M199.432 8.0878H205.751V12.8474H199.432V23.4078C199.432 25.0067 200.176 26.3081 201.737 26.3453C202.889 26.5312 204.302 26.0478 205.231 25.5273L206.421 30.2869C204.711 31.0306 202.629 31.5883 200.547 31.5883C195.826 31.5883 193.299 28.502 193.299 23.8912V12.8102H190.585V8.05062H193.299L196.398 8.05067L199.432 8.0878Z" fill="#011C75"/>
<path d="M199.381 7.75567L193.534 0H199.381V7.75567Z" fill="#FFCF23"/>
</svg>
