<svg width="430" height="66" viewBox="0 0 430 66" fill="none" xmlns="http://www.w3.org/2000/svg">
<rect width="430" height="66" fill="#B3FF00"/>
<path d="M374.708 48V18H378.268L385.948 39.1L384.708 39.16V18H389.008V48H385.468L377.768 26.88L379.008 26.82V48H374.708Z" fill="#011C75"/>
<path d="M361.607 48.6399C359.393 48.6399 357.62 47.9599 356.287 46.5999C354.967 45.2399 354.307 43.4532 354.307 41.2399V24.7599C354.307 22.5332 354.967 20.7465 356.287 19.3999C357.62 18.0399 359.393 17.3599 361.607 17.3599C363.833 17.3599 365.607 18.0399 366.927 19.3999C368.247 20.7465 368.907 22.5332 368.907 24.7599V41.2399C368.907 43.4532 368.247 45.2399 366.927 46.5999C365.607 47.9599 363.833 48.6399 361.607 48.6399ZM361.607 44.0399C362.447 44.0399 363.107 43.7865 363.587 43.2799C364.067 42.7599 364.307 42.0799 364.307 41.2399V24.7599C364.307 23.9199 364.067 23.2465 363.587 22.7399C363.107 22.2199 362.447 21.9599 361.607 21.9599C360.767 21.9599 360.107 22.2199 359.627 22.7399C359.147 23.2465 358.907 23.9199 358.907 24.7599V41.2399C358.907 42.0799 359.147 42.7599 359.627 43.2799C360.107 43.7865 360.767 44.0399 361.607 44.0399Z" fill="#011C75"/>
<path d="M348.487 48H343.887V18H348.487V48Z" fill="#011C75"/>
<path d="M331.025 48V22.6H326.365V18H340.265V22.6H335.625V48H331.025Z" fill="#011C75"/>
<path d="M322.935 18V41.24C322.935 43.4533 322.275 45.24 320.955 46.6C319.635 47.96 317.862 48.64 315.635 48.64C313.422 48.64 311.649 47.96 310.315 46.6C308.995 45.24 308.335 43.4533 308.335 41.24V18H312.935V41.24C312.935 42.08 313.175 42.76 313.655 43.28C314.135 43.7867 314.795 44.04 315.635 44.04C316.475 44.04 317.135 43.7867 317.615 43.28C318.095 42.76 318.335 42.08 318.335 41.24V18H322.935Z" fill="#011C75"/>
<path d="M303.907 39.8399V41.2399C303.907 43.4532 303.247 45.2399 301.927 46.5999C300.607 47.9599 298.833 48.6399 296.607 48.6399C294.393 48.6399 292.62 47.9599 291.287 46.5999C289.967 45.2399 289.307 43.4532 289.307 41.2399V24.7599C289.307 22.5332 289.967 20.7465 291.287 19.3999C292.62 18.0399 294.393 17.3599 296.607 17.3599C298.833 17.3599 300.607 18.0399 301.927 19.3999C303.247 20.7465 303.907 22.5332 303.907 24.7599V26.1599H299.307V24.7599C299.307 23.9199 299.067 23.2465 298.587 22.7399C298.107 22.2199 297.447 21.9599 296.607 21.9599C295.767 21.9599 295.107 22.2199 294.627 22.7399C294.147 23.2465 293.907 23.9199 293.907 24.7599V41.2399C293.907 42.0799 294.147 42.7599 294.627 43.2799C295.107 43.7865 295.767 44.0399 296.607 44.0399C297.447 44.0399 298.107 43.7865 298.587 43.2799C299.067 42.7599 299.307 42.0799 299.307 41.2399V39.8399H303.907Z" fill="#011C75"/>
<path d="M284.898 18V22.6H277.198V30.1H283.818V34.7H277.198V43.4H284.898V48H272.598V18H284.898Z" fill="#011C75"/>
<path d="M252.113 48L258.073 32.98L252.113 18H256.833L261.193 28.8H259.713L264.013 18H268.733L262.793 32.98L268.733 48H264.013L259.713 37.18H261.193L256.833 48H252.113Z" fill="#011C75"/>
<path d="M249.625 18V22.6H241.925V30.1H248.545V34.7H241.925V43.4H249.625V48H237.325V18H249.625Z" fill="#011C75"/>
<path d="M207.911 48V18H215.111C217.337 18 219.111 18.68 220.431 20.04C221.751 21.3867 222.411 23.1733 222.411 25.4V40.6C222.411 42.8133 221.751 44.6 220.431 45.96C219.111 47.32 217.337 48 215.111 48H207.911ZM212.511 43.4H215.111C215.951 43.4 216.611 43.1467 217.091 42.64C217.571 42.12 217.811 41.44 217.811 40.6V25.4C217.811 24.56 217.571 23.8867 217.091 23.38C216.611 22.86 215.951 22.6 215.111 22.6H212.511V43.4Z" fill="#011C75"/>
<path d="M203.062 18V22.6H195.362V30.1H201.982V34.7H195.362V43.4H203.062V48H190.762V18H203.062Z" fill="#011C75"/>
<path d="M170.489 48V18H177.889C180.062 18 181.789 18.66 183.069 19.98C184.349 21.2867 184.989 23.0267 184.989 25.2V29.74C184.989 31.1533 184.709 32.3933 184.149 33.46C183.589 34.5267 182.789 35.3733 181.749 36L181.429 34.54C182.562 34.9533 183.435 35.58 184.049 36.42C184.675 37.26 184.989 38.2667 184.989 39.44V48H180.389V39.44C180.389 38.6933 180.169 38.0933 179.729 37.64C179.289 37.1733 178.675 36.94 177.889 36.94H175.089V48H170.489ZM175.089 32.34H177.889C178.675 32.34 179.289 32.1067 179.729 31.64C180.169 31.16 180.389 30.5267 180.389 29.74V25.2C180.389 24.4133 180.169 23.7867 179.729 23.32C179.289 22.84 178.675 22.6 177.889 22.6H175.089V32.34Z" fill="#011C75"/>
<path d="M164.459 18V41.24C164.459 43.4533 163.799 45.24 162.479 46.6C161.159 47.96 159.386 48.64 157.159 48.64C154.946 48.64 153.172 47.96 151.839 46.6C150.519 45.24 149.859 43.4533 149.859 41.24V18H154.459V41.24C154.459 42.08 154.699 42.76 155.179 43.28C155.659 43.7867 156.319 44.04 157.159 44.04C157.999 44.04 158.659 43.7867 159.139 43.28C159.619 42.76 159.859 42.08 159.859 41.24V18H164.459Z" fill="#011C75"/>
<path d="M137.197 48V22.6H132.537V18H146.437V22.6H141.797V48H137.197Z" fill="#011C75"/>
<path d="M130.508 39.8399V41.2399C130.508 43.4532 129.848 45.2399 128.528 46.5999C127.208 47.9599 125.435 48.6399 123.208 48.6399C120.995 48.6399 119.222 47.9599 117.888 46.5999C116.568 45.2399 115.908 43.4532 115.908 41.2399V24.7599C115.908 22.5332 116.568 20.7465 117.888 19.3999C119.222 18.0399 120.995 17.3599 123.208 17.3599C125.435 17.3599 127.208 18.0399 128.528 19.3999C129.848 20.7465 130.508 22.5332 130.508 24.7599V26.1599H125.908V24.7599C125.908 23.9199 125.668 23.2465 125.188 22.7399C124.708 22.2199 124.048 21.9599 123.208 21.9599C122.368 21.9599 121.708 22.2199 121.228 22.7399C120.748 23.2465 120.508 23.9199 120.508 24.7599V41.2399C120.508 42.0799 120.748 42.7599 121.228 43.2799C121.708 43.7865 122.368 44.0399 123.208 44.0399C124.048 44.0399 124.708 43.7865 125.188 43.2799C125.668 42.7599 125.908 42.0799 125.908 41.2399V39.8399H130.508Z" fill="#011C75"/>
<path d="M110.318 18V41.24C110.318 43.4533 109.658 45.24 108.338 46.6C107.018 47.96 105.245 48.64 103.018 48.64C100.805 48.64 99.0316 47.96 97.6983 46.6C96.3783 45.24 95.7183 43.4533 95.7183 41.24V18H100.318V41.24C100.318 42.08 100.558 42.76 101.038 43.28C101.518 43.7867 102.178 44.04 103.018 44.04C103.858 44.04 104.518 43.7867 104.998 43.28C105.478 42.76 105.718 42.08 105.718 41.24V18H110.318Z" fill="#011C75"/>
<path d="M75.645 48V18H83.045C85.2184 18 86.945 18.66 88.225 19.98C89.505 21.2867 90.145 23.0267 90.145 25.2V29.74C90.145 31.1533 89.865 32.3933 89.305 33.46C88.745 34.5267 87.945 35.3733 86.905 36L86.585 34.54C87.7184 34.9533 88.5917 35.58 89.205 36.42C89.8317 37.26 90.145 38.2667 90.145 39.44V48H85.545V39.44C85.545 38.6933 85.325 38.0933 84.885 37.64C84.445 37.1733 83.8317 36.94 83.045 36.94H80.245V48H75.645ZM80.245 32.34H83.045C83.8317 32.34 84.445 32.1067 84.885 31.64C85.325 31.16 85.545 30.5267 85.545 29.74V25.2C85.545 24.4133 85.325 23.7867 84.885 23.32C84.445 22.84 83.8317 22.6 83.045 22.6H80.245V32.34Z" fill="#011C75"/>
<path d="M62.783 48V22.6H58.123V18H72.023V22.6H67.383V48H62.783Z" fill="#011C75"/>
<path d="M48.2922 48.6399C46.0789 48.6399 44.3055 47.9599 42.9722 46.5999C41.6522 45.2399 40.9922 43.4532 40.9922 41.2399V39.8399H45.5922V41.2399C45.5922 42.0799 45.8322 42.7599 46.3122 43.2799C46.7922 43.7865 47.4522 44.0399 48.2922 44.0399C49.1322 44.0399 49.7922 43.7865 50.2722 43.2799C50.7522 42.7599 50.9922 42.0799 50.9922 41.2399V38.4399C50.9922 37.9599 50.9722 37.5865 50.9322 37.3199C50.8922 37.0399 50.7922 36.8132 50.6322 36.6399C50.4855 36.4665 50.2255 36.3132 49.8522 36.1799C49.4922 36.0332 48.9722 35.8532 48.2922 35.6399C46.4655 35.0665 45.0522 34.5865 44.0522 34.1999C43.0522 33.8132 42.3322 33.3932 41.8922 32.9399C41.4655 32.4865 41.2055 31.8999 41.1122 31.1799C41.0322 30.4465 40.9922 29.4665 40.9922 28.2399V24.7599C40.9922 22.5332 41.6522 20.7465 42.9722 19.3999C44.3055 18.0399 46.0789 17.3599 48.2922 17.3599C50.5189 17.3599 52.2922 18.0399 53.6122 19.3999C54.9322 20.7465 55.5922 22.5332 55.5922 24.7599V26.1599H50.9922V24.7599C50.9922 23.9199 50.7522 23.2465 50.2722 22.7399C49.7922 22.2199 49.1322 21.9599 48.2922 21.9599C47.4522 21.9599 46.7922 22.2199 46.3122 22.7399C45.8322 23.2465 45.5922 23.9199 45.5922 24.7599V28.2399C45.5922 28.7199 45.6055 29.0999 45.6322 29.3799C45.6722 29.6465 45.7655 29.8665 45.9122 30.0399C46.0722 30.1999 46.3389 30.3532 46.7122 30.4999C47.0855 30.6465 47.6122 30.8265 48.2922 31.0399C50.1189 31.5999 51.5322 32.0799 52.5322 32.4799C53.5322 32.8665 54.2455 33.2865 54.6722 33.7399C55.1122 34.1932 55.3722 34.7799 55.4522 35.4999C55.5455 36.2199 55.5922 37.1999 55.5922 38.4399V41.2399C55.5922 43.4532 54.9322 45.2399 53.6122 46.5999C52.2922 47.9599 50.5189 48.6399 48.2922 48.6399Z" fill="#011C75"/>
</svg>
