<svg width="430" height="66" viewBox="0 0 430 66" fill="none" xmlns="http://www.w3.org/2000/svg">
<rect width="430" height="66" fill="#B3FF00"/>
<path d="M370.832 47.9995V33.7995L364.212 17.9995H368.912L373.832 30.6795H372.452L377.292 17.9995H381.992L375.432 33.7995V47.9995H370.832Z" fill="#011C75"/>
<path d="M347.54 47.9995V17.9995H354.94C357.113 17.9995 358.84 18.6595 360.12 19.9795C361.4 21.2862 362.04 23.0262 362.04 25.1995V29.7395C362.04 31.1528 361.76 32.3928 361.2 33.4595C360.64 34.5262 359.84 35.3728 358.8 35.9995L358.48 34.5395C359.613 34.9528 360.486 35.5795 361.1 36.4195C361.726 37.2595 362.04 38.2662 362.04 39.4395V47.9995H357.44V39.4395C357.44 38.6928 357.22 38.0928 356.78 37.6395C356.34 37.1728 355.726 36.9395 354.94 36.9395H352.14V47.9995H347.54ZM352.14 32.3395H354.94C355.726 32.3395 356.34 32.1062 356.78 31.6395C357.22 31.1595 357.44 30.5262 357.44 29.7395V25.1995C357.44 24.4128 357.22 23.7862 356.78 23.3195C356.34 22.8395 355.726 22.5995 354.94 22.5995H352.14V32.3395Z" fill="#011C75"/>
<path d="M342.691 17.9995V22.5995H334.991V30.0995H341.611V34.6995H334.991V43.3995H342.691V47.9995H330.391V17.9995H342.691Z" fill="#011C75"/>
<path d="M315.671 47.9995L309.711 17.9995H314.431L318.491 41.2395H317.831L321.791 17.9995H326.511L320.631 47.9995H315.671Z" fill="#011C75"/>
<path d="M305.811 47.9995H301.211V17.9995H305.811V47.9995Z" fill="#011C75"/>
<path d="M290.499 17.9995V43.3995H297.399V47.9995H285.899V17.9995H290.499Z" fill="#011C75"/>
<path d="M281.05 17.9995V22.5995H273.35V30.0995H279.97V34.6995H273.35V43.3995H281.05V47.9995H268.75V17.9995H281.05Z" fill="#011C75"/>
<path d="M248.594 47.9995V17.9995H255.794C258.021 17.9995 259.794 18.6795 261.114 20.0395C262.434 21.3862 263.094 23.1728 263.094 25.3995V40.5995C263.094 42.8128 262.434 44.5995 261.114 45.9595C259.794 47.3195 258.021 47.9995 255.794 47.9995H248.594ZM253.194 43.3995H255.794C256.634 43.3995 257.294 43.1462 257.774 42.6395C258.254 42.1195 258.494 41.4395 258.494 40.5995V25.3995C258.494 24.5595 258.254 23.8862 257.774 23.3795C257.294 22.8595 256.634 22.5995 255.794 22.5995H253.194V43.3995Z" fill="#011C75"/>
<path d="M234.488 17.9995V22.5995H226.788V30.0995H233.408V34.6995H226.788V43.3995H234.488V47.9995H222.188V17.9995H234.488Z" fill="#011C75"/>
<path d="M211.475 17.9995V43.3995H218.375V47.9995H206.875V17.9995H211.475Z" fill="#011C75"/>
<path d="M186.641 47.9995V17.9995H194.041C196.214 17.9995 197.941 18.6595 199.221 19.9795C200.501 21.2862 201.141 23.0262 201.141 25.1995V28.1395C201.141 29.3395 200.934 30.4195 200.521 31.3795C200.121 32.3395 199.548 33.1262 198.801 33.7395L198.701 31.9795C199.568 32.5795 200.254 33.3928 200.761 34.4195C201.281 35.4462 201.541 36.6195 201.541 37.9395V40.7995C201.541 42.9462 200.901 44.6862 199.621 46.0195C198.341 47.3395 196.614 47.9995 194.441 47.9995H186.641ZM191.241 43.3995H194.441C195.228 43.3995 195.841 43.1595 196.281 42.6795C196.721 42.1995 196.941 41.5728 196.941 40.7995V37.9395C196.941 37.1662 196.721 36.5395 196.281 36.0595C195.841 35.5795 195.228 35.3395 194.441 35.3395H191.241V43.3995ZM191.241 30.7395H194.041C194.828 30.7395 195.441 30.5062 195.881 30.0395C196.321 29.5595 196.541 28.9262 196.541 28.1395V25.1995C196.541 24.4128 196.321 23.7862 195.881 23.3195C195.441 22.8395 194.828 22.5995 194.041 22.5995H191.241V30.7395Z" fill="#011C75"/>
<path d="M165.961 47.9995L171.921 17.9995H176.881L182.761 47.9995H178.041L177.161 42.8795H171.581L170.681 47.9995H165.961ZM172.301 38.2795H176.441L174.081 24.2795H174.721L172.301 38.2795Z" fill="#011C75"/>
<path d="M156.162 47.9995V22.5995H151.502V17.9995H165.402V22.5995H160.762V47.9995H156.162Z" fill="#011C75"/>
<path d="M149.473 39.8399V41.2399C149.473 43.4532 148.813 45.2399 147.493 46.5999C146.173 47.9599 144.4 48.6399 142.173 48.6399C139.96 48.6399 138.186 47.9599 136.853 46.5999C135.533 45.2399 134.873 43.4532 134.873 41.2399V24.7599C134.873 22.5332 135.533 20.7465 136.853 19.3999C138.186 18.0399 139.96 17.3599 142.173 17.3599C144.4 17.3599 146.173 18.0399 147.493 19.3999C148.813 20.7465 149.473 22.5332 149.473 24.7599V26.1599H144.873V24.7599C144.873 23.9199 144.633 23.2465 144.153 22.7399C143.673 22.2199 143.013 21.9599 142.173 21.9599C141.333 21.9599 140.673 22.2199 140.193 22.7399C139.713 23.2465 139.473 23.9199 139.473 24.7599V41.2399C139.473 42.0799 139.713 42.7599 140.193 43.2799C140.673 43.7865 141.333 44.0399 142.173 44.0399C143.013 44.0399 143.673 43.7865 144.153 43.2799C144.633 42.7599 144.873 42.0799 144.873 41.2399V39.8399H149.473Z" fill="#011C75"/>
<path d="M129.054 47.9995H124.454V17.9995H129.054V47.9995Z" fill="#011C75"/>
<path d="M104.297 47.9995V17.9995H111.497C113.724 17.9995 115.497 18.6795 116.817 20.0395C118.137 21.3862 118.797 23.1728 118.797 25.3995V40.5995C118.797 42.8128 118.137 44.5995 116.817 45.9595C115.497 47.3195 113.724 47.9995 111.497 47.9995H104.297ZM108.897 43.3995H111.497C112.337 43.3995 112.997 43.1462 113.477 42.6395C113.957 42.1195 114.197 41.4395 114.197 40.5995V25.3995C114.197 24.5595 113.957 23.8862 113.477 23.3795C112.997 22.8595 112.337 22.5995 111.497 22.5995H108.897V43.3995Z" fill="#011C75"/>
<path d="M99.4489 17.9995V22.5995H91.7489V30.0995H98.3689V34.6995H91.7489V43.3995H99.4489V47.9995H87.1489V17.9995H99.4489Z" fill="#011C75"/>
<path d="M66.8755 47.9995V17.9995H74.2755C76.4488 17.9995 78.1755 18.6595 79.4555 19.9795C80.7355 21.2862 81.3755 23.0262 81.3755 25.1995V29.7395C81.3755 31.1528 81.0955 32.3928 80.5355 33.4595C79.9755 34.5262 79.1755 35.3728 78.1355 35.9995L77.8155 34.5395C78.9488 34.9528 79.8222 35.5795 80.4355 36.4195C81.0622 37.2595 81.3755 38.2662 81.3755 39.4395V47.9995H76.7755V39.4395C76.7755 38.6928 76.5555 38.0928 76.1155 37.6395C75.6755 37.1728 75.0622 36.9395 74.2755 36.9395H71.4755V47.9995H66.8755ZM71.4755 32.3395H74.2755C75.0622 32.3395 75.6755 32.1062 76.1155 31.6395C76.5555 31.1595 76.7755 30.5262 76.7755 29.7395V25.1995C76.7755 24.4128 76.5555 23.7862 76.1155 23.3195C75.6755 22.8395 75.0622 22.5995 74.2755 22.5995H71.4755V32.3395Z" fill="#011C75"/>
<path d="M48.0083 47.9995V17.9995H55.4083C57.5816 17.9995 59.3083 18.6595 60.5883 19.9795C61.8683 21.2862 62.5083 23.0262 62.5083 25.1995V28.9395C62.5083 31.0995 61.8683 32.8395 60.5883 34.1595C59.3083 35.4795 57.5816 36.1395 55.4083 36.1395H52.6083V47.9995H48.0083ZM52.6083 31.5395H55.4083C56.195 31.5395 56.8083 31.3062 57.2483 30.8395C57.6883 30.3595 57.9083 29.7262 57.9083 28.9395V25.1995C57.9083 24.4128 57.6883 23.7862 57.2483 23.3195C56.8083 22.8395 56.195 22.5995 55.4083 22.5995H52.6083V31.5395Z" fill="#011C75"/>
</svg>
