<svg width="1920" height="1080" viewBox="0 0 1920 1080" fill="none" xmlns="http://www.w3.org/2000/svg">
<rect width="1920" height="1080" fill="#F5F6FB"/>
<line x1="0.500095" y1="2.18557e-08" x2="0.500048" y2="1080" stroke="#E0E3F5"/>
<line x1="30.5001" y1="2.18557e-08" x2="30.5" y2="1080" stroke="#E0E3F5"/>
<line x1="60.5001" y1="2.18557e-08" x2="60.5" y2="1080" stroke="#E0E3F5"/>
<line x1="90.5001" y1="2.18557e-08" x2="90.5" y2="1080" stroke="#E0E3F5"/>
<line x1="120.5" y1="2.18557e-08" x2="120.5" y2="1080" stroke="#E0E3F5"/>
<line x1="150.5" y1="2.18557e-08" x2="150.5" y2="1080" stroke="#E0E3F5"/>
<line x1="180.5" y1="2.18557e-08" x2="180.5" y2="1080" stroke="#E0E3F5"/>
<line x1="210.5" y1="2.18557e-08" x2="210.5" y2="1080" stroke="#E0E3F5"/>
<line x1="240.5" y1="2.18557e-08" x2="240.5" y2="1080" stroke="#E0E3F5"/>
<line x1="270.5" y1="2.18557e-08" x2="270.5" y2="1080" stroke="#E0E3F5"/>
<line x1="300.5" y1="2.18557e-08" x2="300.5" y2="1080" stroke="#E0E3F5"/>
<line x1="330.5" y1="2.18557e-08" x2="330.5" y2="1080" stroke="#E0E3F5"/>
<line x1="360.5" y1="2.18557e-08" x2="360.5" y2="1080" stroke="#E0E3F5"/>
<line x1="390.5" y1="2.18557e-08" x2="390.5" y2="1080" stroke="#E0E3F5"/>
<line x1="420.5" y1="2.18557e-08" x2="420.5" y2="1080" stroke="#E0E3F5"/>
<line x1="450.5" y1="2.18557e-08" x2="450.5" y2="1080" stroke="#E0E3F5"/>
<line x1="480.5" y1="2.18557e-08" x2="480.5" y2="1080" stroke="#E0E3F5"/>
<line x1="510.5" y1="2.18557e-08" x2="510.5" y2="1080" stroke="#E0E3F5"/>
<line x1="540.5" y1="2.18557e-08" x2="540.5" y2="1080" stroke="#E0E3F5"/>
<line x1="570.5" y1="2.18557e-08" x2="570.5" y2="1080" stroke="#E0E3F5"/>
<line x1="600.5" y1="2.18557e-08" x2="600.5" y2="1080" stroke="#E0E3F5"/>
<line x1="630.5" y1="2.18557e-08" x2="630.5" y2="1080" stroke="#E0E3F5"/>
<line x1="660.5" y1="2.18557e-08" x2="660.5" y2="1080" stroke="#E0E3F5"/>
<line x1="690.5" y1="2.18557e-08" x2="690.5" y2="1080" stroke="#E0E3F5"/>
<line x1="720.5" y1="2.18557e-08" x2="720.5" y2="1080" stroke="#E0E3F5"/>
<line x1="750.5" y1="2.18557e-08" x2="750.5" y2="1080" stroke="#E0E3F5"/>
<line x1="780.5" y1="2.18557e-08" x2="780.5" y2="1080" stroke="#E0E3F5"/>
<line x1="810.5" y1="2.18557e-08" x2="810.5" y2="1080" stroke="#E0E3F5"/>
<line x1="840.5" y1="2.18557e-08" x2="840.5" y2="1080" stroke="#E0E3F5"/>
<line x1="870.5" y1="2.18557e-08" x2="870.5" y2="1080" stroke="#E0E3F5"/>
<line x1="900.5" y1="2.18557e-08" x2="900.5" y2="1080" stroke="#E0E3F5"/>
<line x1="930.5" y1="2.18557e-08" x2="930.5" y2="1080" stroke="#E0E3F5"/>
<line x1="960.5" y1="2.18557e-08" x2="960.5" y2="1080" stroke="#E0E3F5"/>
<line x1="990.5" y1="2.18557e-08" x2="990.5" y2="1080" stroke="#E0E3F5"/>
<line x1="1020.5" y1="2.18557e-08" x2="1020.5" y2="1080" stroke="#E0E3F5"/>
<line x1="1050.5" y1="2.18557e-08" x2="1050.5" y2="1080" stroke="#E0E3F5"/>
<line x1="1080.5" y1="2.18557e-08" x2="1080.5" y2="1080" stroke="#E0E3F5"/>
<line x1="1110.5" y1="2.18557e-08" x2="1110.5" y2="1080" stroke="#E0E3F5"/>
<line x1="1140.5" y1="2.18557e-08" x2="1140.5" y2="1080" stroke="#E0E3F5"/>
<line x1="1170.5" y1="2.18557e-08" x2="1170.5" y2="1080" stroke="#E0E3F5"/>
<line x1="1200.5" y1="2.18557e-08" x2="1200.5" y2="1080" stroke="#E0E3F5"/>
<line x1="1230.5" y1="2.18557e-08" x2="1230.5" y2="1080" stroke="#E0E3F5"/>
<line x1="1260.5" y1="2.18557e-08" x2="1260.5" y2="1080" stroke="#E0E3F5"/>
<line x1="1290.5" y1="2.18557e-08" x2="1290.5" y2="1080" stroke="#E0E3F5"/>
<line x1="1320.5" y1="2.18557e-08" x2="1320.5" y2="1080" stroke="#E0E3F5"/>
<line x1="1350.5" y1="2.18557e-08" x2="1350.5" y2="1080" stroke="#E0E3F5"/>
<line x1="1380.5" y1="2.18557e-08" x2="1380.5" y2="1080" stroke="#E0E3F5"/>
<line x1="1410.5" y1="2.18557e-08" x2="1410.5" y2="1080" stroke="#E0E3F5"/>
<line x1="1440.5" y1="2.18557e-08" x2="1440.5" y2="1080" stroke="#E0E3F5"/>
<line x1="1470.5" y1="2.18557e-08" x2="1470.5" y2="1080" stroke="#E0E3F5"/>
<line x1="1500.5" y1="2.18557e-08" x2="1500.5" y2="1080" stroke="#E0E3F5"/>
<line x1="1530.5" y1="2.18557e-08" x2="1530.5" y2="1080" stroke="#E0E3F5"/>
<line x1="1560.5" y1="2.18557e-08" x2="1560.5" y2="1080" stroke="#E0E3F5"/>
<line x1="1590.5" y1="2.18557e-08" x2="1590.5" y2="1080" stroke="#E0E3F5"/>
<line x1="1620.5" y1="2.18557e-08" x2="1620.5" y2="1080" stroke="#E0E3F5"/>
<line x1="1650.5" y1="2.18557e-08" x2="1650.5" y2="1080" stroke="#E0E3F5"/>
<line x1="1680.5" y1="2.18557e-08" x2="1680.5" y2="1080" stroke="#E0E3F5"/>
<line x1="1710.5" y1="2.18557e-08" x2="1710.5" y2="1080" stroke="#E0E3F5"/>
<line x1="1740.5" y1="2.18557e-08" x2="1740.5" y2="1080" stroke="#E0E3F5"/>
<line x1="1770.5" y1="2.18557e-08" x2="1770.5" y2="1080" stroke="#E0E3F5"/>
<line x1="1800.5" y1="2.18557e-08" x2="1800.5" y2="1080" stroke="#E0E3F5"/>
<line x1="1830.5" y1="2.18557e-08" x2="1830.5" y2="1080" stroke="#E0E3F5"/>
<line x1="1860.5" y1="2.18557e-08" x2="1860.5" y2="1080" stroke="#E0E3F5"/>
<line x1="1890.5" y1="2.18557e-08" x2="1890.5" y2="1080" stroke="#E0E3F5"/>
<line x1="4.72507e-05" y1="-0.498413" x2="1921" y2="-0.49824" stroke="#E0E3F5"/>
<line x1="4.72507e-05" y1="29.5016" x2="1921" y2="29.5018" stroke="#E0E3F5"/>
<line x1="4.72507e-05" y1="59.5016" x2="1921" y2="59.5018" stroke="#E0E3F5"/>
<line x1="4.72507e-05" y1="89.5016" x2="1921" y2="89.5018" stroke="#E0E3F5"/>
<line x1="4.72507e-05" y1="119.502" x2="1921" y2="119.502" stroke="#E0E3F5"/>
<line x1="4.72507e-05" y1="149.502" x2="1921" y2="149.502" stroke="#E0E3F5"/>
<line x1="4.72507e-05" y1="179.502" x2="1921" y2="179.502" stroke="#E0E3F5"/>
<line x1="4.72507e-05" y1="209.502" x2="1921" y2="209.502" stroke="#E0E3F5"/>
<line x1="4.72507e-05" y1="239.502" x2="1921" y2="239.502" stroke="#E0E3F5"/>
<line x1="4.72507e-05" y1="269.502" x2="1921" y2="269.502" stroke="#E0E3F5"/>
<line x1="4.72507e-05" y1="299.502" x2="1921" y2="299.502" stroke="#E0E3F5"/>
<line x1="4.72507e-05" y1="329.502" x2="1921" y2="329.502" stroke="#E0E3F5"/>
<line x1="4.72507e-05" y1="359.502" x2="1921" y2="359.502" stroke="#E0E3F5"/>
<line x1="4.72507e-05" y1="389.502" x2="1921" y2="389.502" stroke="#E0E3F5"/>
<line x1="4.72507e-05" y1="419.502" x2="1921" y2="419.502" stroke="#E0E3F5"/>
<line x1="4.72507e-05" y1="449.502" x2="1921" y2="449.502" stroke="#E0E3F5"/>
<line x1="4.72507e-05" y1="479.502" x2="1921" y2="479.502" stroke="#E0E3F5"/>
<line x1="4.72507e-05" y1="509.502" x2="1921" y2="509.502" stroke="#E0E3F5"/>
<line x1="4.72507e-05" y1="539.502" x2="1921" y2="539.502" stroke="#E0E3F5"/>
<line x1="4.72507e-05" y1="569.502" x2="1921" y2="569.502" stroke="#E0E3F5"/>
<line x1="4.72507e-05" y1="599.502" x2="1921" y2="599.502" stroke="#E0E3F5"/>
<line x1="4.72507e-05" y1="629.502" x2="1921" y2="629.502" stroke="#E0E3F5"/>
<line x1="4.72507e-05" y1="659.502" x2="1921" y2="659.502" stroke="#E0E3F5"/>
<line x1="4.72507e-05" y1="689.502" x2="1921" y2="689.502" stroke="#E0E3F5"/>
<line x1="4.72507e-05" y1="719.502" x2="1921" y2="719.502" stroke="#E0E3F5"/>
<line x1="4.72507e-05" y1="749.502" x2="1921" y2="749.502" stroke="#E0E3F5"/>
<line x1="4.72507e-05" y1="779.502" x2="1921" y2="779.502" stroke="#E0E3F5"/>
<line x1="4.72507e-05" y1="809.502" x2="1921" y2="809.502" stroke="#E0E3F5"/>
<line x1="4.72507e-05" y1="839.502" x2="1921" y2="839.502" stroke="#E0E3F5"/>
<line x1="4.72507e-05" y1="869.502" x2="1921" y2="869.502" stroke="#E0E3F5"/>
<line x1="4.72507e-05" y1="899.502" x2="1921" y2="899.502" stroke="#E0E3F5"/>
<line x1="4.72507e-05" y1="929.502" x2="1921" y2="929.502" stroke="#E0E3F5"/>
<line x1="4.72507e-05" y1="959.502" x2="1921" y2="959.502" stroke="#E0E3F5"/>
<line x1="4.72507e-05" y1="989.502" x2="1921" y2="989.502" stroke="#E0E3F5"/>
<line x1="4.72507e-05" y1="1019.5" x2="1921" y2="1019.5" stroke="#E0E3F5"/>
<line x1="4.72507e-05" y1="1049.5" x2="1921" y2="1049.5" stroke="#E0E3F5"/>
<line x1="4.72507e-05" y1="1079.5" x2="1921" y2="1079.5" stroke="#E0E3F5"/>
<rect width="1920" height="1080" fill="url(#paint0_radial_148_142)"/>
<defs>
<radialGradient id="paint0_radial_148_142" cx="0" cy="0" r="1" gradientUnits="userSpaceOnUse" gradientTransform="translate(849.5 148) rotate(52.0825) scale(1181.4 613.63)">
<stop stop-color="#F5F6FB"/>
<stop offset="0.482207" stop-color="#F5F6FB" stop-opacity="0.396815"/>
<stop offset="0.894802" stop-color="#F5F6FB" stop-opacity="0.658029"/>
<stop offset="1" stop-color="#F5F6FB"/>
</radialGradient>
</defs>
</svg>
