<svg width="230" height="36" viewBox="0 0 230 36" fill="none" xmlns="http://www.w3.org/2000/svg">
<g clip-path="url(#clip0_221_66)">
<path d="M5.06184 19.5068L1.24455 15.6942C0.690432 15.1408 0.439758 14.4907 0.439758 13.7352V7.01046C0.439758 6.25937 0.690432 5.6049 1.24455 5.05146L5.06184 1.24326C5.56318 0.742528 6.26683 0.439453 7.02325 0.439453H24.9574V4.95483H6.16568C5.51481 4.95483 5.00906 5.45556 5.00906 6.05732V14.6884C5.00906 15.2901 5.51041 15.7908 6.16568 15.7908H22.6926V20.3062H7.01885C6.26683 20.3062 5.56318 20.0031 5.05744 19.5024L5.06184 19.5068ZM0.439758 25.8274C0.439758 25.274 0.690432 24.725 1.04226 24.3209L5.00906 20.3062V35.561H0.439758V25.8274Z" fill="#ABABAB" stroke="#ABABAB" stroke-width="2" stroke-miterlimit="10"/>
<path d="M33.6959 34.7571L29.7775 30.8434C29.2233 30.29 28.9727 29.5872 28.9727 28.8361V16.9459C28.9727 16.1948 29.2233 15.4921 29.7775 14.9386L33.6959 11.025C34.1972 10.5243 34.9009 10.2212 35.6573 10.2212H46.6606C47.0608 10.2212 47.4126 10.4232 47.6633 10.6736L51.5817 14.5872C51.9335 14.9386 52.1358 15.391 52.1358 15.8434C52.1358 16.2959 51.9335 16.7483 51.5817 17.0997L39.778 28.8888L36.6116 25.779L47.6633 14.741H34.703C34.0521 14.741 33.5464 15.2417 33.5464 15.8434V29.943C33.5464 30.5448 34.0477 31.0455 34.703 31.0455H50.9792V35.5609H35.6573C34.9053 35.5609 34.2016 35.2578 33.6959 34.7571Z" fill="#ABABAB" stroke="#ABABAB" stroke-width="2" stroke-miterlimit="10"/>
<path d="M60.8698 34.7572L56.9514 30.8436C56.3973 30.2901 56.1466 29.5873 56.1466 28.8362V0.439453H60.7159V29.9431C60.7159 30.5449 61.2173 31.0456 61.8725 31.0456H66.8464V35.561H62.8269C62.0748 35.561 61.3712 35.2579 60.8654 34.7572H60.8698Z" fill="#ABABAB" stroke="#ABABAB" stroke-width="2" stroke-miterlimit="10"/>
<path d="M74.5865 34.7572L70.6681 30.8436C70.114 30.2901 69.8633 29.5873 69.8633 28.8362V0.439453H74.4326V29.9431C74.4326 30.5449 74.9339 31.0456 75.5892 31.0456H80.5631V35.561H76.5435C75.7915 35.561 75.0879 35.2579 74.5821 34.7572H74.5865Z" fill="#ABABAB" stroke="#ABABAB" stroke-width="2" stroke-miterlimit="10"/>
<path d="M88.2988 34.7571L84.3804 30.8434C83.8262 30.29 83.5756 29.5872 83.5756 28.8361V16.9459C83.5756 16.1948 83.8262 15.4921 84.3804 14.9386L88.2988 11.025C88.8001 10.5243 89.5038 10.2212 90.2602 10.2212H101.008C101.76 10.2212 102.464 10.5243 102.97 11.025L106.888 14.9386C107.442 15.4921 107.693 16.1948 107.693 16.9459V28.8361C107.693 29.5872 107.442 30.29 106.888 30.8434L102.97 34.7571C102.468 35.2578 101.765 35.5609 101.008 35.5609H90.2602C89.5082 35.5609 88.8045 35.2578 88.2988 34.7571ZM89.3059 31.0455H101.967C102.618 31.0455 103.124 30.5448 103.124 29.943V15.8434C103.124 15.2417 102.622 14.741 101.967 14.741H89.3059C88.655 14.741 88.1493 15.2417 88.1493 15.8434V29.943C88.1493 30.5448 88.6506 31.0455 89.3059 31.0455Z" fill="#ABABAB" stroke="#ABABAB" stroke-width="2" stroke-miterlimit="10"/>
<path d="M112.715 10.2212H117.289V35.5565H112.715V10.2212ZM127.584 10.7746C127.936 10.4232 128.389 10.2212 128.842 10.2212C129.295 10.2212 129.748 10.4232 130.1 10.7746L134.018 14.6882C134.269 14.9386 134.471 15.29 134.471 15.6897V35.5565H129.902V14.7366L121.612 23.0162L118.446 19.9064L127.589 10.7746H127.584ZM147.075 14.7366L138.737 23.0162L135.571 19.9064L144.762 10.7746C145.114 10.4232 145.567 10.2212 146.02 10.2212C146.473 10.2212 146.926 10.4232 147.278 10.7746L151.196 14.6882C151.447 14.9386 151.649 15.29 151.649 15.6897V35.5565H147.08V14.7366H147.075Z" fill="#ABABAB" stroke="#ABABAB" stroke-width="2" stroke-miterlimit="10"/>
<path d="M156.165 28.6868L167.969 16.8976L171.136 20.0074L160.084 31.0455H174.852L170.784 35.1084C170.533 35.3588 170.128 35.5609 169.728 35.5609H161.087C160.686 35.5609 160.335 35.3588 160.079 35.1084L156.161 31.1948C155.457 30.4921 155.457 29.3896 156.161 28.6868H156.165ZM173.699 14.7366H156.768V10.2212H173.145C173.897 10.2212 174.201 10.5243 174.702 11.025L178.621 14.9386C179.175 15.4921 179.425 16.1948 179.425 16.9459V35.5609H174.856V15.8434C174.856 15.2417 174.355 14.741 173.699 14.741V14.7366Z" fill="#ABABAB" stroke="#ABABAB" stroke-width="2" stroke-miterlimit="10"/>
<path d="M184.448 2.89893H189.021V9.11854C189.021 9.7203 189.523 10.221 190.178 10.221H201.933V14.7364H190.732C189.98 14.7364 189.677 14.4333 189.175 13.9326L185.257 10.019C184.703 9.46554 184.452 8.76276 184.452 8.01166V2.89893H184.448ZM188.819 35.0073L184.901 31.0937C184.65 30.8433 184.448 30.4919 184.448 30.0878V15.4875H189.021V31.0409L199.22 20.855L202.386 23.9648L191.335 35.0029C190.983 35.3543 190.53 35.5563 190.077 35.5563C189.624 35.5563 189.171 35.3543 188.819 35.0029V35.0073Z" fill="#ABABAB" stroke="#ABABAB" stroke-width="2" stroke-miterlimit="10"/>
<path d="M211.125 34.7571L207.206 30.8434C206.652 30.29 206.401 29.5872 206.401 28.8361V16.9459C206.401 16.1948 206.652 15.4921 207.206 14.9386L211.125 11.025C211.626 10.5243 212.33 10.2212 213.086 10.2212H224.089C224.49 10.2212 224.841 10.4232 225.096 10.6736L229.015 14.5872C229.367 14.9386 229.569 15.391 229.569 15.8434C229.569 16.2959 229.367 16.7483 229.015 17.0997L217.211 28.8888L214.045 25.779L225.096 14.741H212.136C211.481 14.741 210.98 15.2417 210.98 15.8434V29.943C210.98 30.5448 211.481 31.0455 212.136 31.0455H228.412V35.5609H213.091C212.339 35.5609 211.635 35.2578 211.129 34.7571H211.125Z" fill="#ABABAB" stroke="#ABABAB" stroke-width="2" stroke-miterlimit="10"/>
</g>
<defs>
<clipPath id="clip0_221_66">
<rect width="230" height="36" fill="white"/>
</clipPath>
</defs>
</svg>
