<svg width="198" height="74" viewBox="0 0 198 74" fill="none" xmlns="http://www.w3.org/2000/svg">
<path d="M102.991 10.5347C103.076 14.7743 103.161 19.0138 103.248 23.3819C104.013 22.8732 104.778 22.3644 105.566 21.8402C108.828 20.3126 112.657 20.067 116.122 21.0694C119.092 22.1931 121.21 23.9543 122.566 26.8366C123.317 28.8036 123.481 30.6487 123.621 32.7443C123.643 33.0548 123.666 33.3653 123.689 33.6853C123.743 34.4475 123.796 35.2097 123.847 35.9722C123.974 35.8509 124.102 35.7296 124.233 35.6047C125.34 34.5896 126.274 33.9083 127.725 33.4348C128.02 33.3348 128.315 33.2348 128.619 33.1317C130.275 32.6809 131.87 32.5955 133.573 32.6068C133.782 32.6072 133.991 32.6075 134.206 32.6079C134.867 32.6093 135.528 32.6126 136.189 32.6158C136.64 32.6171 137.091 32.6183 137.542 32.6193C138.641 32.6222 139.741 32.6266 140.84 32.6319C140.638 32.2161 140.435 31.801 140.232 31.3863C140.062 31.0395 140.062 31.0395 139.889 30.6857C139.214 29.4358 138.342 29.024 137.042 28.585C133.656 27.6807 130.295 28.5946 127.303 30.2913C126.679 30.5763 126.679 30.5763 125.906 30.3194C125.582 29.8389 125.582 29.8389 125.268 29.2153C125.154 28.9901 125.04 28.7649 124.923 28.5328C124.807 28.2957 124.691 28.0585 124.571 27.8142C124.451 27.581 124.332 27.3478 124.209 27.1076C124.096 26.881 123.984 26.6545 123.868 26.4211C123.765 26.2141 123.662 26.0072 123.556 25.794C123.307 25.112 123.259 24.6161 123.332 23.8958C126.154 21.0789 131.947 20.5295 135.674 20.4752C139.488 20.4895 143.216 21.3395 146.178 23.8205C147.289 24.9407 148.066 26.2581 148.564 27.75C148.649 25.5454 148.734 23.3408 148.822 21.0694C151.456 21.0694 154.09 21.0694 156.804 21.0694C156.889 21.9173 156.974 22.7652 157.061 23.6388C157.353 23.4057 157.645 23.1725 157.946 22.9322C160.9 20.7354 164.34 20.1672 167.953 20.675C170.825 21.2442 172.886 22.4986 174.827 24.6666C175.193 24.3328 175.193 24.3328 175.567 23.9921C178.525 21.504 181.985 20.3295 185.857 20.4732C188.249 20.7152 190.328 21.2741 192.335 22.6111C192.564 22.7595 192.792 22.9078 193.027 23.0607C195.073 25.0464 196.391 27.8828 196.486 30.7306C196.487 31.092 196.486 31.4533 196.484 31.8147C196.484 32.0129 196.484 32.211 196.484 32.4152C196.484 33.0673 196.482 33.7193 196.48 34.3713C196.48 34.8245 196.479 35.2778 196.479 35.7311C196.478 36.9218 196.476 38.1126 196.473 39.3034C196.47 40.5194 196.469 41.7353 196.468 42.9513C196.465 45.3356 196.46 47.7198 196.455 50.1041C193.736 50.1041 191.017 50.1041 188.216 50.1041C188.203 48.9624 188.191 47.8207 188.178 46.6444C188.166 45.7289 188.154 44.8133 188.142 43.8978C188.129 42.9343 188.117 41.9707 188.107 41.0071C188.098 40.0774 188.086 39.1478 188.072 38.2182C188.067 37.8651 188.064 37.5121 188.061 37.159C188.07 33.372 188.07 33.372 186.413 30.0625C185.1 28.9105 183.799 28.9466 182.114 28.9634C180.543 29.0951 179.637 29.6787 178.48 30.7048C176.913 32.8097 177.025 35.869 177.013 38.3609C177.008 38.6988 177.003 39.0366 176.999 39.3847C176.986 40.2717 176.979 41.1587 176.972 42.0457C176.964 42.9554 176.952 43.8649 176.941 44.7745C176.918 46.551 176.903 48.3275 176.887 50.1041C174.168 50.1041 171.449 50.1041 168.648 50.1041C168.638 48.9899 168.628 47.8757 168.618 46.7277C168.609 45.8312 168.598 44.9346 168.587 44.0381C168.576 43.0962 168.565 42.1544 168.558 41.2124C168.552 40.3027 168.541 39.3931 168.528 38.4835C168.522 37.9729 168.519 37.4623 168.517 36.9518C168.48 34.6602 168.345 32.3169 167.151 30.3033C165.667 28.9913 164.248 28.881 162.335 28.9313C161.029 29.0819 160.093 29.4258 159.121 30.3194C157.947 31.9058 157.55 33.3351 157.523 35.2859C157.518 35.615 157.513 35.9442 157.508 36.2833C157.503 36.6413 157.499 36.9993 157.495 37.3573C157.489 37.7245 157.484 38.0917 157.478 38.4589C157.464 39.4237 157.451 40.3885 157.439 41.3533C157.424 42.5118 157.407 43.6703 157.39 44.8288C157.365 46.5872 157.342 48.3456 157.319 50.1041C152.051 50.1041 146.783 50.1041 141.355 50.1041C141.27 49.2562 141.185 48.4083 141.098 47.5347C140.784 47.8102 140.471 48.0858 140.148 48.3697C137.314 50.5312 133.97 50.6566 130.541 50.361C127.837 49.9513 125.674 48.7746 123.847 46.7638C123.762 47.8661 123.677 48.9684 123.589 50.1041C120.785 50.1041 117.981 50.1041 115.092 50.1041C115.083 48.9253 115.073 47.7465 115.063 46.532C115.055 45.7814 115.047 45.0308 115.039 44.2802C115.025 43.0911 115.011 41.902 115.003 40.7128C114.996 39.7531 114.986 38.7935 114.973 37.8339C114.969 37.4694 114.966 37.1048 114.964 36.7403C114.953 34.3951 114.871 32.3699 113.596 30.3515C112.411 29.203 111.244 28.9198 109.621 28.9062C107.848 28.9513 106.434 29.158 105.051 30.3194C103.737 31.9819 103.225 33.4254 103.195 35.5193C103.19 35.8433 103.185 36.1673 103.18 36.5011C103.176 36.8534 103.171 37.2057 103.167 37.558C103.162 37.9195 103.156 38.2809 103.151 38.6424C103.136 39.5919 103.124 40.5415 103.111 41.4911C103.098 42.4608 103.084 43.4305 103.07 44.4001C103.042 46.3014 103.017 48.2028 102.991 50.1041C100.187 50.1041 97.383 50.1041 94.4941 50.1041C94.4092 48.917 94.3242 47.7299 94.2367 46.5069C93.8543 48.2875 93.8543 48.2875 93.4642 50.1041C90.8302 50.1041 88.1962 50.1041 85.4824 50.1041C85.3975 49.1714 85.3125 48.2387 85.225 47.2777C84.9913 47.5056 84.7576 47.7335 84.5169 47.9683C81.6493 50.4328 77.9987 50.5865 74.4109 50.361C71.4918 49.9196 68.7604 48.611 66.9441 46.2499C65.4409 43.7732 64.8164 41.4687 64.7776 38.6058C64.7727 38.3749 64.7677 38.144 64.7625 37.9061C64.7473 37.1758 64.7352 36.4456 64.7233 35.7152C64.7135 35.2171 64.7034 34.7189 64.6932 34.2207C64.6686 33.006 64.6469 31.7912 64.6268 30.5763C63.8562 32.3454 63.086 34.1145 62.3161 35.8838C62.044 36.509 61.7718 37.1341 61.4996 37.7593C59.4898 42.3749 59.4898 42.3749 57.5059 47.0017C57.4179 47.2084 57.3298 47.415 57.2391 47.6279C56.8414 48.5617 56.4451 49.4961 56.0515 50.4316C54.3683 54.4068 52.7532 57.6666 48.7628 59.6964C45.6305 60.9476 41.6885 60.8098 38.5492 59.6632C36.4221 58.7239 36.4221 58.7239 35.7893 58.0694C35.5299 57.2844 35.4876 56.9002 35.7862 56.1199C35.917 55.8898 36.0478 55.6597 36.1826 55.4226C36.3228 55.1717 36.463 54.9209 36.6075 54.6624C36.757 54.4035 36.9066 54.1447 37.0606 53.878C37.2091 53.6142 37.3577 53.3503 37.5107 53.0785C37.8777 52.4277 38.2481 51.779 38.6216 51.1319C39.3353 51.4103 40.0139 51.6992 40.6975 52.0472C42.2226 52.792 43.5678 52.8837 45.2194 52.4005C46.2208 51.8269 46.9648 51.2043 47.3758 50.1041C47.2714 48.5142 46.5431 47.1221 45.9064 45.6859C45.7835 45.4049 45.6606 45.1239 45.5339 44.8344C45.2713 44.2344 45.0078 43.6347 44.7436 43.0354C44.3339 42.1056 43.9262 41.1749 43.5191 40.244C42.9867 39.0268 42.4536 37.81 41.9198 36.5935C41.0358 34.579 40.1552 32.5631 39.2814 30.5442C39.1571 30.2607 39.0329 29.9771 38.9049 29.6849C38.7413 29.3064 38.7413 29.3064 38.5743 28.9203C38.4826 28.7096 38.3908 28.4989 38.2963 28.2818C38.1066 27.75 38.1066 27.75 38.1066 26.9791C37.9367 26.9791 37.7668 26.9791 37.5917 26.9791C37.5472 27.1198 37.5027 27.2606 37.4569 27.4056C36.9965 28.8267 36.4573 30.1877 35.8477 31.5509C35.7549 31.7608 35.6621 31.9706 35.5665 32.1868C35.2662 32.8655 34.9646 33.5436 34.6629 34.2217C34.2437 35.1677 33.8252 36.1139 33.4067 37.0602C33.3025 37.2953 33.1984 37.5304 33.0911 37.7727C32.4477 39.2267 31.8102 40.6831 31.1799 42.1428C31.1039 42.3188 31.0278 42.4948 30.9495 42.6762C30.6005 43.4845 30.2526 44.2932 29.9057 45.1024C29.7825 45.388 29.6593 45.6736 29.5324 45.9679C29.4284 46.2103 29.3245 46.4528 29.2173 46.7025C28.6929 47.8512 28.1157 48.9751 27.5501 50.1041C24.7461 50.1041 21.9422 50.1041 19.0533 50.1041C17.1051 45.835 15.1855 41.5609 13.344 37.2453C12.1029 34.3376 10.8412 31.4397 9.56445 28.5475C8.03133 25.0737 6.49928 21.5993 4.9895 18.1154C4.81868 17.722 4.6472 17.3288 4.47504 16.936C4.23879 16.3965 4.00491 15.856 3.77163 15.3153C3.57318 14.8588 3.57318 14.8588 3.37071 14.3931C3.08972 13.618 3.08972 13.618 3.08972 12.5902C6.23352 12.5902 9.37732 12.5902 12.6164 12.5902C14.3886 16.1274 14.3886 16.1274 15.0322 17.686C15.1076 17.8657 15.183 18.0455 15.2606 18.2307C15.5066 18.8179 15.7512 19.4057 15.9958 19.9934C16.3553 20.8532 16.7156 21.7126 17.076 22.5719C17.1705 22.7976 17.2651 23.0233 17.3625 23.2559C18.1316 25.0891 18.9117 26.9174 19.695 28.7446C19.8722 29.1583 19.8722 29.1583 20.053 29.5805C20.5229 30.6775 20.993 31.7745 21.4647 32.8708C21.7935 33.6353 22.1212 34.4002 22.4488 35.1652C22.5981 35.511 22.5981 35.511 22.7505 35.8638C22.8405 36.0743 22.9304 36.2849 23.0231 36.5019C23.1021 36.6858 23.1812 36.8698 23.2626 37.0593C23.4304 37.5138 23.4304 37.5138 23.4304 38.0277C23.6004 38.0277 23.7703 38.0277 23.9454 38.0277C23.9719 37.8537 23.9984 37.6796 24.0257 37.5003C24.24 36.5842 24.5952 35.7598 24.9773 34.9042C25.0581 34.7204 25.1389 34.5366 25.2221 34.3473C25.4927 33.7321 25.7651 33.1178 26.0374 32.5034C26.3292 31.8412 26.6204 31.1788 26.9117 30.5164C27.1219 30.0384 27.3323 29.5605 27.5428 29.0826C28.4274 27.0735 29.3045 25.0611 30.1791 23.0477C30.3136 22.7382 30.448 22.4287 30.5865 22.1099C30.9906 21.1796 31.3945 20.2493 31.7984 19.319C32.3105 18.1396 32.8228 16.9602 33.3352 15.781C33.4496 15.5175 33.5639 15.2541 33.6817 14.9826C33.7863 14.742 33.8908 14.5014 33.9986 14.2535C34.09 14.043 34.1814 13.8324 34.2756 13.6155C34.4286 13.2699 34.5901 12.9281 34.7594 12.5902C37.6483 12.5902 40.5372 12.5902 43.5136 12.5902C43.315 13.9778 43.145 14.7958 42.6115 16.0259C42.421 16.4693 42.421 16.4693 42.2268 16.9217C42.0938 17.2252 41.9609 17.5288 41.824 17.8415C41.69 18.1521 41.5561 18.4626 41.4181 18.7825C41.0887 19.5456 40.7565 20.3076 40.4239 21.0694C41.7834 21.0694 43.1429 21.0694 44.5436 21.0694C46.756 26.2449 48.9668 31.4206 51.111 36.6248C51.2272 36.9069 51.3435 37.189 51.4633 37.4797C51.5635 37.7238 51.6637 37.9678 51.767 38.2193C51.9223 38.5888 52.0883 38.9541 52.2679 39.3124C52.4151 38.9587 52.4151 38.9587 52.5652 38.5979C54.4158 34.1518 56.2732 29.7088 58.1577 25.2769C58.2359 25.0926 58.3142 24.9084 58.3949 24.7186C58.6153 24.2 58.836 23.6815 59.0568 23.1631C59.2444 22.7226 59.2444 22.7226 59.4359 22.2732C59.6116 21.8676 59.7942 21.4646 59.9922 21.0694C64.3255 21.0694 68.6589 21.0694 73.1235 21.0694C73.1361 22.1926 73.1488 23.3157 73.1617 24.4729C73.1732 25.3737 73.1852 26.2745 73.1975 27.1753C73.2103 28.1232 73.2223 29.0712 73.2321 30.0192C73.2417 30.9339 73.2537 31.8485 73.2672 32.7631C73.2742 33.2784 73.2788 33.7938 73.2834 34.3091C73.3175 37.8221 73.3175 37.8221 74.9259 40.8541C76.4684 41.9736 77.9289 42.3243 79.8179 42.1388C81.3698 41.7908 82.6465 41.0358 83.6801 39.8263C84.695 38.1137 84.9901 36.404 85.0203 34.4291C85.0255 34.1309 85.0306 33.8326 85.0359 33.5253C85.0402 33.2073 85.0445 32.8893 85.0489 32.5616C85.057 32.0687 85.057 32.0687 85.0652 31.5659C85.0791 30.6966 85.0921 29.8273 85.1045 28.958C85.1175 28.0692 85.1318 27.1804 85.146 26.2916C85.1735 24.5509 85.1996 22.8101 85.225 21.0694C86.5844 21.0694 87.9439 21.0694 89.3446 21.0694C89.3854 20.5219 89.4262 19.9744 89.4683 19.4103C89.512 18.8795 89.5579 18.349 89.6039 17.8184C89.6347 17.45 89.6634 17.0813 89.6899 16.7126C89.7284 16.1819 89.7746 15.6524 89.8223 15.1225C89.8608 14.6442 89.8608 14.6442 89.9 14.1562C90.117 13.3611 90.117 13.3611 90.7109 12.8984C91.0542 12.7459 91.0542 12.7459 91.4044 12.5902C91.5841 12.4991 91.7637 12.4079 91.9488 12.314C92.5618 12.0352 93.1808 11.7739 93.8022 11.5143C94.0025 11.4197 94.2028 11.3252 94.4091 11.2277C97.3087 10.0417 99.592 10.5347 102.991 10.5347ZM130.911 39.7782C130.47 40.7535 130.435 41.1365 130.798 42.1388C131.626 43.177 132.331 43.6683 133.631 43.9374C135.72 44.1367 137.7 43.8742 139.392 42.5564C140.501 41.4764 140.501 41.4764 140.868 40.0223C140.865 39.8159 140.862 39.6094 140.858 39.3968C140.856 39.1885 140.853 38.9802 140.85 38.7657C140.847 38.6069 140.844 38.4482 140.84 38.2847C139.681 38.2621 138.523 38.2485 137.364 38.2365C137.038 38.23 136.711 38.2236 136.374 38.2169C133.343 38.1645 133.343 38.1645 130.911 39.7782Z" fill="#ABABAB"/>
<path d="M97.3264 11.8193C96.9557 14.9571 96.4952 18.0764 96.0068 21.1978C95.9347 21.6618 95.8626 22.1259 95.7906 22.5899C95.6166 23.7105 95.4418 24.8309 95.2666 25.9513C95.558 25.8556 95.8494 25.7598 96.1497 25.6612C96.5311 25.5383 96.9127 25.4156 97.2942 25.2929C97.5825 25.1977 97.5825 25.1977 97.8766 25.1007C99.3279 24.6375 99.3279 24.6375 99.9012 24.9235C99.8247 25.1471 99.7482 25.3708 99.6694 25.6012C98.8534 28.0117 98.0995 30.4362 97.3773 32.8762C97.1986 33.48 97.0187 34.0835 96.8386 34.6869C96.1764 36.9126 95.5344 39.1428 94.9209 41.3824C94.5643 42.6797 94.1691 43.9534 93.7217 45.2221C93.6368 45.2221 93.5518 45.2221 93.4643 45.2221C93.4261 42.5075 93.5273 39.8105 93.6701 37.1004C93.7061 36.4122 93.7399 35.724 93.7735 35.0357C93.796 34.5971 93.8186 34.1584 93.8414 33.7198C93.8514 33.5146 93.8613 33.3093 93.8715 33.0978C93.9497 31.663 93.9497 31.663 94.2367 31.0902C92.9717 31.6182 91.7421 32.19 90.5194 32.8085C90.3556 32.8908 90.1918 32.9731 90.023 33.0579C89.625 33.258 89.2273 33.4587 88.8297 33.6596C88.7946 31.9365 88.9238 30.2931 89.1495 28.586C89.1826 28.3265 89.2156 28.0669 89.2497 27.7996C89.3551 26.9745 89.4624 26.1497 89.5699 25.325C89.6749 24.511 89.7794 23.6969 89.8836 22.8828C89.9517 22.3517 90.0204 21.8207 90.0896 21.2897C90.2478 20.0662 90.3957 18.8438 90.5126 17.6155C90.5439 17.2943 90.5439 17.2943 90.5759 16.9667C90.6135 16.5713 90.6482 16.1757 90.6795 15.7797C90.7481 15.0612 90.8045 14.5112 91.2218 13.9098C91.7284 13.5738 92.2084 13.3573 92.7803 13.1492C92.9951 13.0706 93.2098 12.9919 93.4311 12.9108C93.6544 12.8315 93.8778 12.7522 94.1079 12.6705C94.443 12.547 94.443 12.547 94.7848 12.421C96.4484 11.8193 96.4484 11.8193 97.3264 11.8193Z" fill="white"/>
<path d="M180.073 49.7832C180.749 49.8474 180.749 49.8474 181.18 50.1607C181.639 50.7756 181.57 51.0856 181.475 51.8378C181.448 52.0741 181.421 52.3104 181.394 52.5539C181.345 52.9233 181.345 52.9233 181.296 53.3001C181.236 53.7867 181.178 54.2735 181.121 54.7605C181.093 54.9763 181.065 55.192 181.037 55.4143C181.006 56.0183 181.085 56.4675 181.264 57.0419C181.635 56.7219 182.005 56.4005 182.374 56.0783C182.683 55.8101 182.683 55.8101 182.999 55.5364C183.59 55.0127 183.59 55.0127 184 54.4082C184.116 54.2598 184.233 54.1114 184.354 53.9586C185.046 53.8943 185.046 53.8943 185.641 53.9586C185.641 54.1281 185.641 54.2977 185.641 54.4724C185.811 54.4724 185.981 54.4724 186.156 54.4724C186.156 55.6595 186.156 56.8466 186.156 58.0697C188.538 57.5943 190.056 55.5062 191.563 53.7016C192.152 53.4078 192.549 53.3766 193.204 53.3483C193.502 53.3294 193.502 53.3294 193.806 53.3102C194.395 53.4447 194.395 53.4447 194.981 53.9756C195.538 54.9201 195.53 55.5206 195.49 56.6083C195.48 56.9306 195.471 57.2528 195.461 57.5849C195.449 57.8297 195.438 58.0744 195.425 58.3266C195.622 58.1994 195.818 58.0722 196.021 57.9412C196.713 57.5558 196.713 57.5558 197.485 57.5558C197.485 57.7254 197.485 57.8949 197.485 58.0697C197.655 58.0697 197.825 58.0697 198 58.0697C197.918 58.8229 197.837 59.249 197.324 59.8201C196.459 60.2516 195.866 60.2423 194.91 60.1252C194.154 59.6113 194.154 59.6113 193.623 59.0974C193.352 59.3439 193.352 59.3439 193.076 59.5953C192.245 60.1901 191.811 60.3822 190.791 60.3822C189.922 59.8843 189.922 59.8843 189.246 59.3544C189.118 59.4501 188.99 59.5458 188.859 59.6445C187.889 60.3182 187.402 60.6461 186.188 60.607C185.384 60.3822 185.384 60.3822 184.869 60.1252C184.869 59.9556 184.869 59.7861 184.869 59.6113C184.699 59.6113 184.529 59.6113 184.354 59.6113C184.099 59.1026 183.844 58.5938 183.581 58.0697C183.406 58.2339 183.231 58.3982 183.05 58.5675C182.141 59.2046 181.602 59.3742 180.492 59.3544C179.735 58.7281 179.735 58.7281 179.204 58.0697C179.061 58.1965 178.919 58.3234 178.772 58.4541C178.585 58.6187 178.399 58.7833 178.206 58.9529C178.021 59.1169 177.836 59.2808 177.645 59.4497C176.9 60.0722 176.442 60.1707 175.487 60.1895C175.285 60.1961 175.084 60.2027 174.876 60.2095C174.312 60.1252 174.312 60.1252 173.852 59.784C173.54 59.3544 173.54 59.3544 173.54 58.5836C173.399 58.6733 173.259 58.7631 173.114 58.8556C171.742 59.6818 170.534 60.2324 168.905 60.1252C167.798 59.7364 167.205 59.313 166.588 58.3266C166.299 56.7999 166.555 55.4558 167.325 54.1191C167.868 53.3448 168.383 53.0281 169.259 52.7059C170.224 52.6601 170.702 52.8799 171.48 53.4447C171.769 54.2958 171.769 54.2958 171.737 55.2433C171.164 56.3656 170.459 57.1032 169.42 57.8127C169.25 57.8127 169.08 57.8127 168.905 57.8127C168.905 57.9823 168.905 58.1519 168.905 58.3266C171.936 57.6635 173.657 56.0202 175.639 53.7116C176.114 53.1877 176.114 53.1877 176.629 52.9308C177.547 52.8987 177.547 52.8987 178.432 52.9308C178.559 53.058 178.559 53.058 178.689 53.1877C178.723 52.9681 178.758 52.7485 178.793 52.5223C178.838 52.2384 178.884 51.9546 178.931 51.6621C178.975 51.3789 179.02 51.0957 179.066 50.804C179.25 49.8696 179.25 49.8696 180.073 49.7832ZM177.659 54.9863C177.392 55.2557 177.137 55.5362 176.887 55.8214C176.749 55.9764 176.611 56.1314 176.468 56.2911C176.099 56.8059 175.967 57.1946 175.857 57.8127C176.725 57.4414 177.324 57.0102 177.917 56.2711C178.003 55.5854 178.003 55.5854 177.917 54.9863C177.832 54.9863 177.747 54.9863 177.659 54.9863ZM193.108 55.2433C192.598 56.0064 192.088 56.7695 191.563 57.5558C191.818 57.5558 192.073 57.5558 192.335 57.5558C192.511 57.2696 192.686 56.9834 192.867 56.6886C192.965 56.5276 193.064 56.3666 193.165 56.2008C193.231 56.0544 193.297 55.908 193.365 55.7572C193.28 55.5876 193.195 55.418 193.108 55.2433Z" fill="#ABABAB"/>
<path d="M163.498 49.8477C164.254 50.0404 164.254 50.0404 165.043 50.3615C165.445 51.2793 165.281 52.2554 165.213 53.2321C165.201 53.4074 165.189 53.5828 165.177 53.7634C165.139 54.3211 165.099 54.8787 165.059 55.4362C165.033 55.8152 165.007 56.1943 164.981 56.5734C164.918 57.5006 164.852 58.4276 164.785 59.3546C164.955 59.3546 165.125 59.3546 165.3 59.3546C165.3 59.7786 165.3 60.2025 165.3 60.6393C164.608 60.8481 164.608 60.8481 163.756 60.8963C163.027 60.3803 162.538 59.9764 162.365 59.0717C162.341 58.4494 162.356 57.8407 162.388 57.2188C162.393 57.004 162.399 56.7892 162.405 56.5679C162.42 56.0406 162.443 55.5135 162.468 54.9865C162.319 55.2091 162.169 55.4317 162.016 55.661C161.813 55.9503 161.609 56.2393 161.406 56.5282C161.26 56.7488 161.26 56.7488 161.11 56.9739C160.809 57.3954 160.809 57.3954 160.151 58.0699C159.342 58.1994 159.342 58.1994 158.606 58.0699C157.512 57.2124 156.928 56.1922 156.289 54.9865C155.879 56.4308 155.681 57.7996 155.58 59.2974C155.516 59.8685 155.516 59.8685 155.259 60.1254C154.374 60.0612 154.374 60.0612 153.456 59.8685C152.728 58.7781 152.98 58.0356 153.199 56.7852C153.384 55.8898 153.6 55.005 153.827 54.1194C153.882 53.8911 153.938 53.6629 153.996 53.4278C154.051 53.2089 154.107 52.9899 154.163 52.7644C154.213 52.5678 154.263 52.3713 154.314 52.1688C154.486 51.6463 154.486 51.6463 155.001 50.8754C156.641 51.0013 156.641 51.0013 157.343 51.566C157.897 52.2365 158.138 52.8156 158.413 53.6376C158.499 53.8906 158.585 54.1437 158.674 54.4044C158.737 54.5965 158.799 54.7886 158.863 54.9865C159.033 54.9865 159.203 54.9865 159.378 54.9865C159.834 54.497 159.834 54.497 160.312 53.8624C160.493 53.6306 160.674 53.3987 160.861 53.1598C161.051 52.9147 161.242 52.6696 161.438 52.4171C161.824 51.9347 162.21 51.4529 162.597 50.9718C162.856 50.6489 162.856 50.6489 163.12 50.3194C163.245 50.1637 163.369 50.008 163.498 49.8477Z" fill="#ABABAB"/>
<path d="M3.08972 13.3613C3.86215 13.6183 3.86215 13.6183 4.17539 14.1675C4.3305 14.537 4.3305 14.537 4.48875 14.914C4.61058 15.1997 4.73241 15.4854 4.85793 15.7797C4.92323 15.9364 4.98854 16.0932 5.05582 16.2546C5.26778 16.7632 5.48301 17.2703 5.69913 17.7771C5.93874 18.3391 6.1781 18.9012 6.41652 19.4637C7.37645 21.7278 8.36186 23.9809 9.34624 26.2345C9.89627 27.4942 10.4451 28.7544 10.9941 30.0145C11.8042 31.8736 12.6145 33.7325 13.4249 35.5914C13.891 36.6605 14.357 37.7297 14.823 38.7988C15.1497 39.5483 15.4764 40.2977 15.8032 41.0471C16.2862 42.1548 16.7682 43.263 17.2498 44.3713C17.4981 44.9418 17.7477 45.5117 17.9975 46.0816C18.141 46.4108 18.2844 46.74 18.4277 47.0692C18.5499 47.3484 18.6721 47.6277 18.798 47.9153C19.0533 48.5627 19.0533 48.5627 19.0533 49.0766C21.8572 48.9918 24.6612 48.907 27.5501 48.8197C28.237 47.2621 28.9237 45.7044 29.6099 44.1465C29.7134 43.9114 29.8169 43.6764 29.9236 43.4342C31.6175 39.5868 33.2965 35.7333 34.9611 31.8732C35.8172 29.8895 36.6844 27.9127 37.5917 25.9516C37.7616 25.9516 37.9316 25.9516 38.1066 25.9516C38.1994 26.1662 38.1994 26.1662 38.294 26.3851C38.3822 26.5892 38.4704 26.7934 38.5612 27.0037C38.6615 27.2356 38.7617 27.4676 38.865 27.7067C39.0929 28.2339 39.3207 28.761 39.5486 29.2882C40.1846 30.7595 40.8201 32.2309 41.4549 33.7027C42.6513 36.4751 43.8513 39.2455 45.0736 42.0066C45.3596 42.6556 45.6455 43.3046 45.9312 43.9537C46.1106 44.3594 46.2911 44.7646 46.4726 45.1694C46.7223 45.7263 46.9684 46.2846 47.2139 46.8434C47.3518 47.1529 47.4897 47.4624 47.6317 47.7813C47.8869 48.5509 47.9423 48.8562 47.6333 49.5905C45.9216 46.0524 44.4045 42.432 42.87 38.8149C42.4793 37.8955 42.0885 36.9761 41.6975 36.0569C41.4463 35.4664 41.1954 34.8757 40.9447 34.285C40.4122 33.0324 39.8769 31.7815 39.3226 30.5383C39.2368 30.3458 39.151 30.1532 39.0627 29.9548C38.9087 29.6111 38.7534 29.268 38.5967 28.9255C38.2807 28.2216 38.1066 27.7623 38.1066 26.9794C37.9367 26.9794 37.7668 26.9794 37.5917 26.9794C37.5472 27.1201 37.5027 27.2608 37.4569 27.4058C36.9965 28.8269 36.4573 30.1879 35.8477 31.5512C35.7549 31.761 35.6621 31.9709 35.5665 32.1871C35.2663 32.8658 34.9646 33.5439 34.6629 34.222C34.2437 35.168 33.8252 36.1142 33.4067 37.0604C33.3025 37.2956 33.1984 37.5307 33.0911 37.773C32.4477 39.227 31.8102 40.6834 31.1799 42.1431C31.1039 42.3191 31.0278 42.4951 30.9495 42.6764C30.6006 43.4848 30.2526 44.2935 29.9057 45.1027C29.7825 45.3883 29.6594 45.6739 29.5324 45.9682C29.4285 46.2106 29.3245 46.453 29.2173 46.7028C28.693 47.8515 28.1157 48.9754 27.5501 50.1044C24.7461 50.1044 21.9422 50.1044 19.0533 50.1044C17.1052 45.8353 15.1855 41.5612 13.344 37.2456C12.0072 34.1137 10.6445 30.9939 9.26918 27.8787C7.74138 24.4164 6.22594 20.9491 4.73114 17.4724C4.64663 17.2763 4.56212 17.0802 4.47505 16.8781C4.24004 16.3323 4.0057 15.7864 3.77163 15.2402C3.63933 14.9319 3.50702 14.6235 3.37071 14.3058C3.08972 13.6183 3.08972 13.6183 3.08972 13.3613Z" fill="white"/>
<path d="M64.6268 28.7778C64.9556 29.693 64.8165 30.1648 64.4352 31.0451C64.3298 31.2925 64.2244 31.5398 64.1158 31.7947C63.998 32.0627 63.8802 32.3307 63.7588 32.6069C63.638 32.8879 63.5173 33.169 63.3929 33.4585C62.997 34.378 62.597 35.2956 62.1968 36.2132C61.9237 36.8438 61.6515 37.4749 61.3792 38.1059C60.8331 39.3705 60.2852 40.6343 59.736 41.8976C59.0537 43.4679 58.3779 45.041 57.7051 46.6154C57.4314 47.2539 57.1576 47.8923 56.8836 48.5306C56.7161 48.9212 56.5489 49.312 56.3822 49.7029C54.5995 53.8752 52.9977 57.5423 48.7627 59.6965C45.6283 60.9485 41.6928 60.8065 38.5501 59.6654C36.5047 58.7575 36.5047 58.7575 35.7893 58.0695C35.7893 57.8151 35.7893 57.5607 35.7893 57.2987C37.0065 57.7787 38.2078 58.2935 39.4101 58.8092C42.3704 59.9367 45.8953 59.5536 48.7758 58.4067C52.2886 56.7535 53.8725 53.8527 55.3576 50.4093C55.4804 50.1294 55.6033 49.8495 55.7298 49.561C56.2117 48.4596 56.686 47.3549 57.1599 46.2501C57.27 45.9934 57.3801 45.7367 57.4936 45.4723C59.036 41.8748 60.5716 38.2743 62.1038 34.6724C62.9405 32.7057 63.7807 30.7405 64.6268 28.7778Z" fill="white"/>
<path d="M65.1417 41.1108C65.6014 41.7989 65.803 42.2851 66.059 43.054C66.9692 45.3636 68.8152 47.2501 71.0637 48.3053C74.6631 49.7807 78.5299 49.7428 82.1352 48.3053C83.125 47.7628 84.0456 47.1557 84.9675 46.5067C85.2224 46.3795 85.2224 46.3795 85.4824 46.2497C85.2886 47.3334 84.8495 47.7484 84.015 48.4277C80.9016 50.485 77.1821 50.7799 73.5681 50.2334C70.6139 49.4858 68.1126 48.1373 66.4824 45.504C65.7005 44.0342 65.2059 42.7769 65.1417 41.1108Z" fill="white"/>
<path d="M123.332 24.6665C123.501 24.6665 123.671 24.6665 123.846 24.6665C124.611 26.1928 125.376 27.719 126.164 29.2915C127.051 29.0701 127.688 28.809 128.497 28.4083C131.298 27.1291 134.724 26.6996 137.734 27.4929C139.138 28.0349 140.175 29.2496 140.84 30.5762C140.85 31.09 140.851 31.6041 140.84 32.1179C140.506 31.6174 140.183 31.109 139.874 30.5923C138.913 29.2868 137.795 28.6706 136.235 28.345C133.077 27.8732 130.042 28.7379 127.303 30.2912C126.679 30.5762 126.679 30.5762 125.906 30.3193C125.582 29.8265 125.582 29.8265 125.268 29.1881C125.154 28.9594 125.04 28.7307 124.923 28.4951C124.807 28.2544 124.691 28.0138 124.571 27.7659C124.451 27.5263 124.332 27.2866 124.209 27.0397C123.332 25.256 123.332 25.256 123.332 24.6665Z" fill="#ABABAB"/>
<path d="M141.355 49.0767C146.623 49.0767 151.891 49.0767 157.319 49.0767C157.319 49.4158 157.319 49.755 157.319 50.1044C152.051 50.1044 146.783 50.1044 141.355 50.1044C141.355 49.7653 141.355 49.4261 141.355 49.0767Z" fill="white"/>
<path d="M123.589 45.479C123.695 45.5754 123.802 45.6718 123.911 45.7711C126.831 48.3536 129.952 49.6061 133.905 49.4315C136.488 49.1807 138.53 48.3158 140.583 46.7637C140.838 46.5941 141.092 46.4246 141.355 46.2498C141.267 47.0002 141.182 47.4367 140.683 48.0173C137.653 50.396 134.264 50.6819 130.541 50.361C127.907 49.9618 125.79 48.8056 123.902 46.9554C123.589 46.5068 123.589 46.5068 123.589 45.479Z" fill="white"/>
<path d="M112.781 28.4154C113.905 29.2154 114.659 30.3075 115.092 31.6042C115.102 32.2036 115.104 32.8033 115.092 33.4028C115.007 33.4028 114.922 33.4028 114.835 33.4028C114.791 33.2507 114.747 33.0987 114.702 32.9421C114.228 31.398 113.79 30.2566 112.341 29.394C110.627 28.6725 108.642 28.7723 106.856 29.2334C105.086 29.9894 104.321 31.1996 103.506 32.8889C103.408 33.0846 103.309 33.2804 103.208 33.4821C103.136 33.6255 103.065 33.7689 102.991 33.9167C103.082 31.8639 103.588 30.655 105.131 29.2435C107.365 27.4518 110.194 27.1059 112.781 28.4154Z" fill="#ABABAB"/>
<path d="M185.98 28.4707C187.185 29.3246 187.75 30.4908 188.216 31.8612C188.274 32.5614 188.253 33.2122 188.216 33.9168C188.131 33.9168 188.046 33.9168 187.958 33.9168C187.921 33.6932 187.921 33.6932 187.882 33.4651C187.577 31.8767 187.137 30.697 185.883 29.5969C184.491 28.7456 182.837 28.9029 181.264 29.0348C180.016 29.3812 178.979 30.0558 178.182 31.0924C177.604 32.2082 177.389 33.4635 177.144 34.6876C177.059 34.6876 176.975 34.6876 176.887 34.6876C176.734 32.5887 177.338 31.2203 178.464 29.4684C180.53 27.5413 183.501 27.047 185.98 28.4707Z" fill="white"/>
<path d="M165.799 28.1839C167.181 28.8918 167.793 29.7503 168.326 31.1869C168.647 32.2234 168.716 33.0948 168.647 34.1739C168.562 34.1739 168.477 34.1739 168.39 34.1739C168.346 33.9662 168.302 33.7585 168.257 33.5446C167.833 31.4634 167.833 31.4634 166.588 29.8058C164.895 28.8154 163.355 28.8141 161.438 29.035C159.964 29.4701 159.123 30.1653 158.364 31.492C158.182 31.8693 158.004 32.2494 157.833 32.6322C157.663 32.9754 157.492 33.3182 157.318 33.66C157.327 31.7743 157.834 30.6632 159.121 29.2919C161.021 27.5342 163.402 27.2072 165.799 28.1839Z" fill="white"/>
<path d="M18.5383 48.8193C21.6821 48.8193 24.8259 48.8193 28.065 48.8193C27.8951 49.2433 27.7251 49.6673 27.55 50.1041C24.7461 50.1041 21.9422 50.1041 19.0533 50.1041C18.8833 49.6801 18.7134 49.2561 18.5383 48.8193Z" fill="#ABABAB"/>
<path d="M115.092 49.0767C117.896 49.0767 120.7 49.0767 123.589 49.0767C123.589 49.4158 123.589 49.755 123.589 50.1044C120.785 50.1044 117.981 50.1044 115.092 50.1044C115.092 49.7653 115.092 49.4261 115.092 49.0767Z" fill="white"/>
<path d="M94.4941 49.0767C97.2981 49.0767 100.102 49.0767 102.991 49.0767C102.991 49.4158 102.991 49.755 102.991 50.1044C100.187 50.1044 97.383 50.1044 94.4941 50.1044C94.4941 49.7653 94.4941 49.4261 94.4941 49.0767Z" fill="white"/>
<path d="M134.705 37.4639C134.968 37.465 134.968 37.465 135.237 37.4661C135.796 37.469 136.355 37.4754 136.913 37.482C137.293 37.4846 137.673 37.4869 138.053 37.489C138.982 37.4947 139.911 37.5035 140.84 37.5141C140.84 37.7685 140.84 38.0229 140.84 38.2849C140.632 38.2887 140.425 38.2924 140.211 38.2963C139.262 38.3155 138.313 38.3403 137.364 38.3652C137.037 38.371 136.711 38.3768 136.374 38.3828C134.61 38.4332 133.16 38.5195 131.571 39.3127C130.932 39.9578 130.932 39.9578 130.541 40.5974C130.46 40.0354 130.46 40.0354 130.541 39.3127C131.824 37.783 132.736 37.4478 134.705 37.4639Z" fill="#ABABAB"/>
<path d="M188.216 49.0767C190.935 49.0767 193.654 49.0767 196.455 49.0767C196.455 49.4158 196.455 49.755 196.455 50.1044C193.736 50.1044 191.017 50.1044 188.216 50.1044C188.216 49.7653 188.216 49.4261 188.216 49.0767Z" fill="white"/>
<path d="M168.648 49.0767C171.367 49.0767 174.086 49.0767 176.887 49.0767C176.887 49.4158 176.887 49.755 176.887 50.1044C174.168 50.1044 171.449 50.1044 168.648 50.1044C168.648 49.7653 168.648 49.4261 168.648 49.0767Z" fill="white"/>
<path d="M85.4824 49.0767C87.7765 49.0767 90.0707 49.0767 92.4343 49.0767C92.4343 49.4158 92.4343 49.755 92.4343 50.1044C90.1402 50.1044 87.8461 50.1044 85.4824 50.1044C85.4824 49.7653 85.4824 49.4261 85.4824 49.0767Z" fill="#ABABAB"/>
<path d="M186.413 50.1042C186.413 50.2738 186.413 50.4434 186.413 50.6181C186.583 50.6181 186.753 50.6181 186.928 50.6181C187.089 51.0839 187.089 51.0839 187.186 51.6459C186.931 52.0275 186.931 52.0275 186.671 52.4167C185.738 52.4649 185.738 52.4649 184.869 52.4167C184.869 52.2472 184.869 52.0776 184.869 51.9029C184.699 51.9029 184.529 51.9029 184.354 51.9029C184.45 51.1481 184.45 51.1481 184.611 50.3612C185.245 50.0448 185.713 50.0859 186.413 50.1042Z" fill="#ABABAB"/>
<path d="M104.278 30.5762C104.278 31.4232 104.087 31.9029 103.763 32.6799C103.668 32.9114 103.572 33.1429 103.474 33.3815C103.399 33.558 103.325 33.7346 103.248 33.9165C103.163 33.9165 103.078 33.9165 102.991 33.9165C103.081 31.8114 103.081 31.8114 103.779 30.9455C103.944 30.8236 104.109 30.7018 104.278 30.5762Z" fill="#ABABAB"/>
<path d="M158.606 30.3193C158.606 31.1664 158.414 31.6461 158.091 32.4231C157.995 32.6546 157.9 32.8861 157.801 33.1246C157.727 33.3012 157.652 33.4777 157.576 33.6596C157.491 33.6596 157.406 33.6596 157.318 33.6596C157.409 31.5546 157.409 31.5546 158.107 30.6887C158.272 30.5668 158.436 30.4449 158.606 30.3193Z" fill="#ABABAB"/>
</svg>
