<svg width="227" height="73" viewBox="0 0 227 73" fill="none" xmlns="http://www.w3.org/2000/svg">
<path d="M221.037 56.409C221.037 54.6865 220.044 53.5602 217.924 53.5602H214.412V59.3241H217.924C220.044 59.3241 221.037 58.2309 221.037 56.409ZM208.748 48.8564H218.255C223.952 48.8564 226.801 52.1359 226.801 56.1771C226.801 59.0922 225.211 61.8416 221.634 62.9016L227 72.1104H220.607L215.77 63.3322H214.412V72.1104H208.748V48.8564Z" fill="#ABABAB"/>
<path d="M205.071 48.8564V53.3946H196.491V58.0984H204.077V62.471H196.491V67.5723H205.071V72.1104H190.827V48.8564H205.071Z" fill="#ABABAB"/>
<path d="M176.667 66.4129L182.463 48.8564H188.459L180.211 72.1104H173.122L164.874 48.8564H170.903L176.667 66.4129Z" fill="#ABABAB"/>
<path d="M156.86 72.1104V48.8564H162.525V72.1104H156.86Z" fill="#ABABAB"/>
<path d="M147.541 56.409C147.541 54.6865 146.547 53.5602 144.427 53.5602H140.916V59.3241H144.427C146.547 59.3241 147.541 58.2309 147.541 56.409ZM135.251 48.8564H144.758C150.456 48.8564 153.304 52.1359 153.304 56.1771C153.304 59.0922 151.714 61.8416 148.137 62.9016L153.503 72.1104H147.11L142.274 63.3322H140.916V72.1104H135.251V48.8564Z" fill="#ABABAB"/>
<path d="M119.895 48.8564C127.316 48.8564 132.086 53.5602 132.086 60.4834C132.086 67.3735 127.316 72.1104 119.895 72.1104H111.183V48.8564H119.895ZM116.848 67.2079H119.531C123.804 67.2079 126.322 64.7566 126.322 60.4834C126.322 56.2103 123.804 53.6927 119.531 53.6927H116.848V67.2079Z" fill="#ABABAB"/>
<path d="M95.6072 72.1104L94.216 68.0029H85.5371L84.1459 72.1104H78.2164L86.6303 48.8564H93.1891L101.603 72.1104H95.6072ZM92.7585 63.6304L89.8766 55.1171L87.0278 63.6304H92.7585Z" fill="#ABABAB"/>
<path d="M69.9698 48.8564H75.6343V72.1104H69.9698L60.496 57.7672V72.1104H54.8315V48.8564H60.496L69.9698 63.266V48.8564Z" fill="#ABABAB"/>
<path d="M46.2751 72.1104L44.8838 68.0029H36.205L34.8137 72.1104H28.8843L37.2981 48.8564H43.8569L52.2708 72.1104H46.2751ZM43.4263 63.6304L40.5444 55.1171L37.6956 63.6304H43.4263Z" fill="#ABABAB"/>
<path d="M0 72.1104V48.8564H6.69132L13.217 64.9554L19.6765 48.8564H26.3347V72.1104H20.6702V58.1647L15.4695 72.1104H10.8982L5.66443 58.1315V72.1104H0Z" fill="#ABABAB"/>
<path d="M143.543 11.2574H135.059L126.154 5.22667C121.148 1.80923 115.238 0 109.187 0H88.0193L63.2931 7.53847V10.2523H65.5044V18.8964H63.2931V25.7313L66.811 30.3549H161.796V25.5705L164.208 20.0825L159.564 16.6047C154.941 13.127 149.332 11.2574 143.543 11.2574Z" fill="#ABABAB"/>
<path d="M82.1895 2.81445H78.7922L63.2931 7.53856L67.4744 7.63907L82.1895 2.81445Z" fill="#D0D0D0"/>
<path d="M121.912 2.81445H119.661L132.004 11.2575H135.059L126.154 5.20666C124.807 4.30204 123.38 3.41753 121.912 2.81445Z" fill="#D0D0D0"/>
<path d="M161.796 30.355H66.811L63.2931 25.7314H161.796V30.355Z" fill="#D0D0D0"/>
<path d="M69.8667 18.8966H65.5044V10.2524H69.8667L71.9774 15.1776L69.8667 18.8966Z" fill="#D0D0D0"/>
<path d="M128.827 10.8555H113.751L80.0787 5.66902L89.8285 2.81445H107.881C114.173 2.81445 120.324 4.78451 125.45 8.44317L128.827 10.8555Z" fill="#B9B9B9"/>
<path d="M134.054 25.5505L101.307 23.6005L95.0752 15.7605L101.588 12.8657L133.451 17.6903C133.451 18.7558 132.526 19.6001 131.461 19.4795L103.981 16.3636L101.548 17.5697L104.946 20.7861L132.526 23.8417C133.391 23.9221 134.054 24.6659 134.054 25.5505Z" fill="#D0D0D0"/>
<path d="M157.976 19.0977H164.208V21.1079H157.976V19.0977Z" fill="#EBEADF"/>
<path d="M81.0035 35.3807C86.4103 35.3807 90.7934 30.9976 90.7934 25.5907C90.7934 20.1839 86.4103 15.8008 81.0035 15.8008C75.5966 15.8008 71.2135 20.1839 71.2135 25.5907C71.2135 30.9976 75.5966 35.3807 81.0035 35.3807Z" fill="#8D8D8D"/>
<path d="M81.4457 15.8006C80.6416 15.7604 79.8375 15.8207 79.0736 15.9816C78.2092 16.1424 78.37 17.4088 79.2344 17.4088H79.3751C84.7425 17.4088 89.1651 21.8314 89.1651 27.1988V27.3395C89.145 28.2039 90.4115 28.3647 90.5924 27.5003C90.7331 26.7364 90.8135 25.9524 90.7733 25.1282C90.5522 20.1026 86.4713 16.0218 81.4457 15.8006Z" fill="#D0D0D0"/>
<path d="M85.3858 30.3346C80.5009 30.033 76.5608 26.0728 76.2391 21.1879C76.2391 21.1477 76.2391 21.1075 76.2391 21.0673C76.1386 19.2781 73.8469 18.655 72.8418 20.1426C71.716 21.8111 71.113 23.8615 71.2135 26.0326C71.4547 31.0382 75.5154 35.119 80.5411 35.3602C82.7323 35.4607 84.7626 34.8375 86.4311 33.7319C87.9187 32.7268 87.2955 30.4351 85.5064 30.3346C85.4662 30.3346 85.426 30.3346 85.3858 30.3346Z" fill="#707070"/>
<path d="M81.0035 30.3952C83.657 30.3952 85.808 28.2441 85.808 25.5906C85.808 22.9372 83.657 20.7861 81.0035 20.7861C78.35 20.7861 76.199 22.9372 76.199 25.5906C76.199 28.2441 78.35 30.3952 81.0035 30.3952Z" fill="#D0D0D0"/>
<path d="M82.6518 28.1437C80.4405 27.9025 78.6715 26.1334 78.4302 23.9222C78.4302 23.902 78.4302 23.8819 78.4302 23.8618C78.3297 22.917 77.0633 22.6758 76.6411 23.5201C76.2994 24.2438 76.1385 25.068 76.1988 25.9324C76.3597 28.2844 78.2895 30.2143 80.6415 30.3751C81.5059 30.4354 82.3301 30.2746 83.0337 29.9328C83.8981 29.5308 83.6368 28.2442 82.692 28.1437C82.692 28.1437 82.6719 28.1437 82.6518 28.1437Z" fill="#8C8C8C"/>
<path d="M66.7106 10.2524H68.2585V18.8966H66.7106V10.2524Z" fill="#ABABAB"/>
<path d="M146.176 35.3807C151.583 35.3807 155.966 30.9976 155.966 25.5907C155.966 20.1839 151.583 15.8008 146.176 15.8008C140.769 15.8008 136.386 20.1839 136.386 25.5907C136.386 30.9976 140.769 35.3807 146.176 35.3807Z" fill="#8D8D8D"/>
<path d="M150.558 30.3346C145.673 30.033 141.733 26.0728 141.412 21.1879C141.412 21.1477 141.412 21.1075 141.412 21.0673C141.311 19.2781 139.02 18.655 138.014 20.1426C136.889 21.8111 136.286 23.8615 136.386 26.0326C136.627 31.0382 140.688 35.119 145.714 35.3602C147.905 35.4607 149.935 34.8375 151.604 33.7319C153.091 32.7268 152.468 30.4351 150.679 30.3346C150.639 30.3346 150.599 30.3346 150.558 30.3346Z" fill="#707070"/>
<path d="M146.136 30.3952C148.789 30.3952 150.94 28.2441 150.94 25.5906C150.94 22.9372 148.789 20.7861 146.136 20.7861C143.482 20.7861 141.331 22.9372 141.331 25.5906C141.331 28.2441 143.482 30.3952 146.136 30.3952Z" fill="#D0D0D0"/>
<path d="M146.578 15.8006C145.774 15.7604 144.97 15.8207 144.206 15.9816C143.342 16.1424 143.502 17.4088 144.367 17.4088H144.507C149.875 17.4088 154.297 21.8314 154.297 27.1988V27.3395C154.277 28.2039 155.544 28.3647 155.725 27.5003C155.865 26.7364 155.946 25.9524 155.906 25.1282C155.684 20.1026 151.604 16.0218 146.578 15.8006Z" fill="#D0D0D0"/>
<path d="M147.784 28.1437C145.573 27.9025 143.804 26.1334 143.563 23.9222C143.563 23.902 143.563 23.8819 143.563 23.8618C143.462 22.917 142.196 22.6758 141.774 23.5201C141.432 24.2438 141.271 25.068 141.331 25.9324C141.492 28.2844 143.422 30.2143 145.774 30.3751C146.638 30.4354 147.463 30.2746 148.166 29.9328C149.031 29.5308 148.769 28.2442 147.824 28.1437C147.824 28.1437 147.804 28.1437 147.784 28.1437Z" fill="#8C8C8C"/>
<path d="M113.751 12.4636H128.827L135.059 12.8657H152.649C149.754 11.8605 146.658 11.2575 143.543 11.2575H143.502H135.059L128.827 10.8554H113.751L80.0586 5.66895L63.2931 7.53849V9.26731L80.0787 7.90033L113.751 12.4636Z" fill="#D0D0D0"/>
<mask id="mask0_221_101" style="mask-type:luminance" maskUnits="userSpaceOnUse" x="80" y="2" width="49" height="9">
<path d="M128.827 10.8555H113.751L80.0787 5.66902L89.8285 2.81445H107.881C114.173 2.81445 120.324 4.78451 125.45 8.44317L128.827 10.8555Z" fill="white"/>
</mask>
<g mask="url(#mask0_221_101)">
<path d="M104.222 12.7251H100.624L88.9641 1.146H92.5625L104.222 12.7251Z" fill="#ABABAB"/>
</g>
<mask id="mask1_221_101" style="mask-type:luminance" maskUnits="userSpaceOnUse" x="80" y="2" width="49" height="9">
<path d="M128.827 10.8555H113.751L80.0787 5.66902L89.8285 2.81445H107.881C114.173 2.81445 120.324 4.78451 125.45 8.44317L128.827 10.8555Z" fill="white"/>
</mask>
<g mask="url(#mask1_221_101)">
<path d="M115.097 12.7251H107.579L95.9196 1.146H103.418L115.097 12.7251Z" fill="#ABABAB"/>
</g>
<path d="M101.528 8.98594L97.4272 8.34266V2.81445H101.528V8.98594Z" fill="#D0D0D0"/>
</svg>
