<svg width="279" height="81" viewBox="0 0 279 81" fill="none" xmlns="http://www.w3.org/2000/svg">
<path d="M0 37C0 32.5817 3.58172 29 8 29C12.4183 29 16 32.5817 16 37V72C16 76.4183 12.4183 80 8 80C3.58172 80 0 76.4183 0 72V37Z" fill="#ABABAB"/>
<path d="M36 37C36 32.5817 39.5817 29 44 29C48.4183 29 52 32.5817 52 37C52 41.4183 48.4183 45 44 45C39.5817 45 36 41.4183 36 37Z" fill="#ABABAB"/>
<path d="M34.5 58.0411V28.5C34.5 24.3579 31.1421 21 27 21C22.8579 21 19.5 24.3579 19.5 28.5V58.7917C19.5 70.2286 28.7714 79.5 40.2083 79.5H47.5C51.6421 79.5 55 76.1421 55 72C55 67.8579 51.6421 64.5 47.5 64.5H40.9589C37.3918 64.5 34.5 61.6082 34.5 58.0411Z" fill="#ABABAB"/>
<path d="M30 11C30 12.6569 28.6569 14 27 14C25.3431 14 24 12.6569 24 11C24 9.34315 25.3431 8 27 8C28.6569 8 30 9.34315 30 11Z" fill="#ABABAB"/>
<path d="M36 2.5C36 3.88071 34.8807 5 33.5 5C32.1193 5 31 3.88071 31 2.5C31 1.11929 32.1193 0 33.5 0C34.8807 0 36 1.11929 36 2.5Z" fill="#ABABAB"/>
<path d="M27 1.5C27 2.32843 26.3284 3 25.5 3C24.6716 3 24 2.32843 24 1.5C24 0.671573 24.6716 0 25.5 0C26.3284 0 27 0.671573 27 1.5Z" fill="#ABABAB"/>
<path d="M273.096 80V43H278.796V80H273.096Z" fill="#ABABAB"/>
<path d="M265.575 52.4502V80.0002H259.875V76.7002C258.075 79.0502 254.975 80.4002 251.725 80.4002C245.275 80.4002 240.375 76.3502 240.375 68.6502V52.4502H246.025V67.8002C246.025 72.8502 248.775 75.4502 252.925 75.4502C257.125 75.4502 259.875 72.8502 259.875 67.8002V52.4502H265.575Z" fill="#ABABAB"/>
<path d="M234.466 72.3C234.466 76.95 230.416 80.45 223.916 80.45C217.316 80.45 212.666 76.55 212.416 71.55H218.316C218.516 73.8 220.666 75.65 223.816 75.65C227.116 75.65 228.866 74.25 228.866 72.35C228.866 66.95 212.866 70.05 212.866 59.95C212.866 55.55 216.966 52 223.466 52C229.716 52 233.816 55.35 234.116 60.85H228.416C228.216 58.45 226.366 56.8 223.266 56.8C220.216 56.8 218.616 58.05 218.616 59.9C218.616 65.45 234.166 62.35 234.466 72.3Z" fill="#ABABAB"/>
<path d="M200.995 80V64.6C200.995 59.55 198.245 56.95 194.095 56.95C189.895 56.95 187.145 59.55 187.145 64.6V80H181.445V52.45H187.145V55.6C188.995 53.35 192.045 52 195.345 52C201.795 52 206.645 56.05 206.645 63.75V80H200.995Z" fill="#ABABAB"/>
<path d="M175.811 66.2C175.811 74.85 169.411 80.45 161.511 80.45C153.661 80.45 147.711 74.85 147.711 66.2C147.711 57.55 153.911 52 161.761 52C169.611 52 175.811 57.55 175.811 66.2ZM153.511 66.2C153.511 72.45 157.211 75.5 161.511 75.5C165.761 75.5 169.961 72.45 169.961 66.2C169.961 59.95 165.911 56.95 161.661 56.95C157.361 56.95 153.511 59.95 153.511 66.2Z" fill="#ABABAB"/>
<path d="M121.875 80V43H127.575V64.5L137.575 52.45H145.475L132.775 66.25L145.475 80H137.775L127.575 68.15V80H121.875Z" fill="#ABABAB"/>
<path d="M108.954 80V64.6C108.954 59.55 106.204 56.95 102.054 56.95C97.8543 56.95 95.1043 59.55 95.1043 64.6V80H89.4043V52.45H95.1043V55.6C96.9543 53.35 100.004 52 103.304 52C109.754 52 114.604 56.05 114.604 63.75V80H108.954Z" fill="#ABABAB"/>
<path d="M76.2207 80V45.25H81.9207V80H76.2207Z" fill="#ABABAB"/>
</svg>
