<svg width="301" height="135" viewBox="0 0 301 135" fill="none" xmlns="http://www.w3.org/2000/svg">
<rect width="250" height="66" transform="translate(50.364)" fill="#00FFE3"/>
<path d="M105.808 48V18H113.208C115.382 18 117.108 18.66 118.388 19.98C119.668 21.2867 120.308 23.0267 120.308 25.2V28.14C120.308 29.34 120.102 30.42 119.688 31.38C119.288 32.34 118.715 33.1267 117.968 33.74L117.868 31.98C118.735 32.58 119.422 33.3933 119.928 34.42C120.448 35.4467 120.708 36.62 120.708 37.94V40.8C120.708 42.9467 120.068 44.6867 118.788 46.02C117.508 47.34 115.782 48 113.608 48H105.808ZM110.408 43.4H113.608C114.395 43.4 115.008 43.16 115.448 42.68C115.888 42.2 116.108 41.5733 116.108 40.8V37.94C116.108 37.1667 115.888 36.54 115.448 36.06C115.008 35.58 114.395 35.34 113.608 35.34H110.408V43.4ZM110.408 30.74H113.208C113.995 30.74 114.608 30.5067 115.048 30.04C115.488 29.56 115.708 28.9267 115.708 28.14V25.2C115.708 24.4133 115.488 23.7867 115.048 23.32C114.608 22.84 113.995 22.6 113.208 22.6H110.408V30.74ZM140.443 18V41.24C140.443 43.4533 139.783 45.24 138.463 46.6C137.143 47.96 135.369 48.64 133.143 48.64C130.929 48.64 129.156 47.96 127.823 46.6C126.503 45.24 125.843 43.4533 125.843 41.24V18H130.443V41.24C130.443 42.08 130.683 42.76 131.163 43.28C131.643 43.7867 132.303 44.04 133.143 44.04C133.983 44.04 134.643 43.7867 135.123 43.28C135.603 42.76 135.843 42.08 135.843 41.24V18H140.443ZM152.752 48.64C150.539 48.64 148.766 47.96 147.432 46.6C146.112 45.24 145.452 43.4533 145.452 41.24V39.84H150.052V41.24C150.052 42.08 150.292 42.76 150.772 43.28C151.252 43.7867 151.912 44.04 152.752 44.04C153.592 44.04 154.252 43.7867 154.732 43.28C155.212 42.76 155.452 42.08 155.452 41.24V38.44C155.452 37.96 155.432 37.5867 155.392 37.32C155.352 37.04 155.252 36.8133 155.092 36.64C154.946 36.4667 154.686 36.3133 154.312 36.18C153.952 36.0333 153.432 35.8533 152.752 35.64C150.926 35.0667 149.512 34.5867 148.512 34.2C147.512 33.8133 146.792 33.3933 146.352 32.94C145.926 32.4867 145.666 31.9 145.572 31.18C145.492 30.4467 145.452 29.4667 145.452 28.24V24.76C145.452 22.5333 146.112 20.7467 147.432 19.4C148.766 18.04 150.539 17.36 152.752 17.36C154.979 17.36 156.752 18.04 158.072 19.4C159.392 20.7467 160.052 22.5333 160.052 24.76V26.16H155.452V24.76C155.452 23.92 155.212 23.2467 154.732 22.74C154.252 22.22 153.592 21.96 152.752 21.96C151.912 21.96 151.252 22.22 150.772 22.74C150.292 23.2467 150.052 23.92 150.052 24.76V28.24C150.052 28.72 150.066 29.1 150.092 29.38C150.132 29.6467 150.226 29.8667 150.372 30.04C150.532 30.2 150.799 30.3533 151.172 30.5C151.546 30.6467 152.072 30.8267 152.752 31.04C154.579 31.6 155.992 32.08 156.992 32.48C157.992 32.8667 158.706 33.2867 159.132 33.74C159.572 34.1933 159.832 34.78 159.912 35.5C160.006 36.22 160.052 37.2 160.052 38.44V41.24C160.052 43.4533 159.392 45.24 158.072 46.6C156.752 47.96 154.979 48.64 152.752 48.64ZM169.783 48H165.183V18H169.783V48ZM176.043 48V18H179.603L187.283 39.1L186.043 39.16V18H190.343V48H186.803L179.103 26.88L180.343 26.82V48H176.043ZM208.889 18V22.6H201.189V30.1H207.809V34.7H201.189V43.4H208.889V48H196.589V18H208.889ZM220.018 48.64C217.805 48.64 216.031 47.96 214.698 46.6C213.378 45.24 212.718 43.4533 212.718 41.24V39.84H217.318V41.24C217.318 42.08 217.558 42.76 218.038 43.28C218.518 43.7867 219.178 44.04 220.018 44.04C220.858 44.04 221.518 43.7867 221.998 43.28C222.478 42.76 222.718 42.08 222.718 41.24V38.44C222.718 37.96 222.698 37.5867 222.658 37.32C222.618 37.04 222.518 36.8133 222.358 36.64C222.211 36.4667 221.951 36.3133 221.578 36.18C221.218 36.0333 220.698 35.8533 220.018 35.64C218.191 35.0667 216.778 34.5867 215.778 34.2C214.778 33.8133 214.058 33.3933 213.618 32.94C213.191 32.4867 212.931 31.9 212.838 31.18C212.758 30.4467 212.718 29.4667 212.718 28.24V24.76C212.718 22.5333 213.378 20.7467 214.698 19.4C216.031 18.04 217.805 17.36 220.018 17.36C222.245 17.36 224.018 18.04 225.338 19.4C226.658 20.7467 227.318 22.5333 227.318 24.76V26.16H222.718V24.76C222.718 23.92 222.478 23.2467 221.998 22.74C221.518 22.22 220.858 21.96 220.018 21.96C219.178 21.96 218.518 22.22 218.038 22.74C217.558 23.2467 217.318 23.92 217.318 24.76V28.24C217.318 28.72 217.331 29.1 217.358 29.38C217.398 29.6467 217.491 29.8667 217.638 30.04C217.798 30.2 218.065 30.3533 218.438 30.5C218.811 30.6467 219.338 30.8267 220.018 31.04C221.845 31.6 223.258 32.08 224.258 32.48C225.258 32.8667 225.971 33.2867 226.398 33.74C226.838 34.1933 227.098 34.78 227.178 35.5C227.271 36.22 227.318 37.2 227.318 38.44V41.24C227.318 43.4533 226.658 45.24 225.338 46.6C224.018 47.96 222.245 48.64 220.018 48.64ZM238.729 48.64C236.516 48.64 234.742 47.96 233.409 46.6C232.089 45.24 231.429 43.4533 231.429 41.24V39.84H236.029V41.24C236.029 42.08 236.269 42.76 236.749 43.28C237.229 43.7867 237.889 44.04 238.729 44.04C239.569 44.04 240.229 43.7867 240.709 43.28C241.189 42.76 241.429 42.08 241.429 41.24V38.44C241.429 37.96 241.409 37.5867 241.369 37.32C241.329 37.04 241.229 36.8133 241.069 36.64C240.922 36.4667 240.662 36.3133 240.289 36.18C239.929 36.0333 239.409 35.8533 238.729 35.64C236.902 35.0667 235.489 34.5867 234.489 34.2C233.489 33.8133 232.769 33.3933 232.329 32.94C231.902 32.4867 231.642 31.9 231.549 31.18C231.469 30.4467 231.429 29.4667 231.429 28.24V24.76C231.429 22.5333 232.089 20.7467 233.409 19.4C234.742 18.04 236.516 17.36 238.729 17.36C240.956 17.36 242.729 18.04 244.049 19.4C245.369 20.7467 246.029 22.5333 246.029 24.76V26.16H241.429V24.76C241.429 23.92 241.189 23.2467 240.709 22.74C240.229 22.22 239.569 21.96 238.729 21.96C237.889 21.96 237.229 22.22 236.749 22.74C236.269 23.2467 236.029 23.92 236.029 24.76V28.24C236.029 28.72 236.042 29.1 236.069 29.38C236.109 29.6467 236.202 29.8667 236.349 30.04C236.509 30.2 236.776 30.3533 237.149 30.5C237.522 30.6467 238.049 30.8267 238.729 31.04C240.556 31.6 241.969 32.08 242.969 32.48C243.969 32.8667 244.682 33.2867 245.109 33.74C245.549 34.1933 245.809 34.78 245.889 35.5C245.982 36.22 246.029 37.2 246.029 38.44V41.24C246.029 43.4533 245.369 45.24 244.049 46.6C242.729 47.96 240.956 48.64 238.729 48.64Z" fill="#011C75"/>
<rect width="280" height="66" transform="translate(5.7522 44.7089) rotate(5)" fill="#00FFE3"/>
<path d="M30.6908 95.074L33.3055 65.1882L45.5586 66.2602L45.1577 70.8427L37.487 70.1716L36.5719 80.6316L43.1667 81.2086L42.7658 85.7911L36.171 85.2141L35.2733 95.4749L30.6908 95.074ZM51.656 96.9082L47.0735 96.5073L49.6882 66.6215L54.2707 67.0224L51.656 96.9082ZM57.8916 97.4538L60.5062 67.5679L67.8781 68.2129C70.0431 68.4023 71.7057 69.2103 72.8658 70.6368C74.027 72.0501 74.513 73.8392 74.3235 76.0043L73.9279 80.527C73.8047 81.935 73.4177 83.1458 72.7668 84.1596C72.116 85.1734 71.2452 85.9472 70.1546 86.4808L69.9631 84.9985C71.056 85.509 71.8714 86.2094 72.4092 87.0997C72.9603 87.9911 73.1847 89.0212 73.0824 90.1901L72.3364 98.7175L67.7539 98.3166L68.4999 89.7892C68.565 89.0454 68.3982 88.4285 67.9993 87.9385C67.6017 87.4353 67.011 87.1494 66.2273 87.0808L63.438 86.8368L62.4741 97.8547L57.8916 97.4538ZM63.8389 82.2543L66.6283 82.4983C67.4119 82.5669 68.0433 82.3879 68.5223 81.9613C69.0024 81.5215 69.2768 80.9098 69.3454 80.1261L69.741 75.6034C69.8096 74.8197 69.6451 74.1762 69.2474 73.673C68.8509 73.1565 68.2608 72.8639 67.4772 72.7954L64.6878 72.5513L63.8389 82.2543ZM84.2882 100.406C82.0833 100.213 80.3759 99.3807 79.1662 97.9097C77.9698 96.4398 77.468 94.6025 77.6609 92.3975L77.7829 91.0029L82.3654 91.4038L82.2434 92.7985C82.1702 93.6353 82.35 94.3336 82.7829 94.8934C83.2169 95.44 83.8523 95.7499 84.6891 95.8231C85.5259 95.8963 86.2055 95.7015 86.7278 95.2386C87.2513 94.7624 87.5496 94.1059 87.6229 93.2691L87.8669 90.4798C87.9087 90.0016 87.9213 89.6279 87.9047 89.3588C87.8893 89.0764 87.8094 88.8418 87.6651 88.6552C87.5341 88.4698 87.2885 88.2944 86.9282 88.129C86.5824 87.9515 86.08 87.7269 85.4212 87.4551C83.6515 86.7247 82.2853 86.1234 81.3228 85.651C80.3603 85.1787 79.6797 84.6975 79.2809 84.2076C78.8953 83.7188 78.6875 83.1117 78.6572 82.3863C78.6415 81.6488 78.687 80.669 78.7939 79.447L79.0972 75.9803C79.2913 73.7621 80.1045 72.0397 81.5369 70.8132C82.9836 69.5746 84.8095 69.0517 87.0144 69.2447C89.2326 69.4387 90.9399 70.2707 92.1364 71.7406C93.334 73.1971 93.8357 75.0345 93.6417 77.2527L93.5197 78.6474L88.9372 78.2465L89.0592 76.8518C89.1324 76.015 88.952 75.3233 88.518 74.7767C88.0851 74.2169 87.4503 73.9004 86.6135 73.8271C85.7767 73.7539 85.0965 73.9554 84.573 74.4316C84.0507 74.8945 83.7529 75.5444 83.6797 76.3812L83.3764 79.8479C83.3346 80.3261 83.3148 80.7058 83.3169 80.9871C83.3335 81.2562 83.4073 81.4835 83.5383 81.669C83.6838 81.8423 83.9361 82.0183 84.2952 82.1969C84.6543 82.3756 85.1633 82.6008 85.8221 82.8726C87.593 83.5897 88.9591 84.191 89.9205 84.6767C90.883 85.149 91.557 85.6296 91.9425 86.1184C92.3413 86.6083 92.5492 87.2154 92.5662 87.9397C92.5964 88.6651 92.5575 89.6454 92.4494 90.8807L92.2054 93.67C92.0124 95.8749 91.1992 97.5973 89.7657 98.8371C88.3322 100.077 86.5064 100.6 84.2882 100.406ZM98.7798 101.031L100.994 75.7277L96.3512 75.3215L96.7522 70.739L110.599 71.9505L110.198 76.533L105.576 76.1286L103.362 101.432L98.7798 101.031ZM122.867 103.138L125.081 77.8351L120.439 77.4289L120.84 72.8464L134.687 74.0579L134.286 78.6404L129.664 78.236L127.45 103.539L122.867 103.138ZM135.68 104.259L138.295 74.3736L142.878 74.7745L141.561 89.817L146.244 90.2267L147.56 75.1841L152.142 75.585L149.527 105.471L144.945 105.07L145.843 94.8092L141.161 94.3995L140.263 104.66L135.68 104.259ZM160.342 106.417L155.76 106.016L158.375 76.1303L162.957 76.5312L160.342 106.417ZM166.578 106.963L169.193 77.0768L172.739 77.387L178.551 99.0761L177.31 99.0278L179.155 77.9483L183.438 78.3231L180.824 108.209L177.297 107.9L171.467 86.1897L172.708 86.238L170.862 107.337L166.578 106.963ZM198.065 109.717L193.835 94.9525L192.304 96.8463L192.963 89.3151L200.679 79.8315L205.62 80.2638L197.376 90.5042L202.986 110.148L198.065 109.717ZM187.047 108.753L189.661 78.8675L194.244 79.2685L191.629 109.154L187.047 108.753ZM211.436 110.887L206.854 110.486L209.468 80.6004L214.051 81.0014L211.436 110.887ZM217.672 111.433L220.287 81.5469L223.833 81.8572L229.645 103.546L228.404 103.498L230.248 82.4185L234.532 82.7932L231.917 112.679L228.391 112.371L222.561 90.6598L223.801 90.7081L221.955 111.808L217.672 111.433ZM244.919 114.459C242.714 114.266 241.006 113.434 239.797 111.963C238.6 110.493 238.098 108.656 238.291 106.451L239.728 90.0336C239.922 87.8154 240.735 86.0931 242.167 84.8666C243.614 83.6279 245.44 83.1051 247.645 83.298C249.863 83.4921 251.57 84.324 252.767 85.7939C253.964 87.2505 254.466 89.0879 254.272 91.3061L254.15 92.7007L249.568 92.2998L249.69 90.9052C249.763 90.0684 249.582 89.3767 249.148 88.8301C248.716 88.2702 248.081 87.9537 247.244 87.8805C246.407 87.8073 245.727 88.0088 245.204 88.485C244.681 88.9479 244.383 89.5977 244.31 90.4345L242.874 106.852C242.801 107.689 242.98 108.387 243.413 108.947C243.847 109.493 244.483 109.803 245.32 109.876C246.156 109.95 246.836 109.755 247.358 109.292C247.882 108.816 248.18 108.159 248.253 107.322L248.553 103.896L245.545 103.632L245.946 99.0498L253.537 99.714L252.836 107.723C252.643 109.928 251.83 111.651 250.396 112.89C248.963 114.13 247.137 114.653 244.919 114.459Z" fill="#011C75"/>
</svg>
