<svg width="480" height="143" viewBox="0 0 480 143" fill="none" xmlns="http://www.w3.org/2000/svg">
<rect width="430" height="66" transform="translate(47.0532 22.5045) rotate(-3)" fill="#B3FF00"/>
<path d="M97.3122 68.5773C95.1019 68.6931 93.2954 68.1069 91.8927 66.8185C90.5034 65.5295 89.7507 63.7798 89.6349 61.5695L89.5616 60.1714L94.1553 59.9307L94.2286 61.3288C94.2726 62.1676 94.5478 62.8341 95.0544 63.3283C95.5602 63.8091 96.2326 64.0276 97.0714 63.9836C97.9103 63.9397 98.5561 63.6521 99.009 63.121C99.4611 62.5766 99.6652 61.885 99.6212 61.0461L99.4747 58.25C99.4495 57.7706 99.41 57.3989 99.3561 57.1347C99.3015 56.8571 99.1898 56.636 99.021 56.4713C98.8654 56.3059 98.5978 56.1664 98.218 56.0527C97.8508 55.9251 97.3221 55.7726 96.6318 55.5951C94.7777 55.1182 93.3411 54.7128 92.3223 54.379C91.3034 54.0452 90.5624 53.6635 90.0993 53.2338C89.6495 52.8034 89.3591 52.2311 89.2282 51.517C89.11 50.7889 89.0187 49.8123 88.9545 48.5873L88.7724 45.1121C88.6559 42.8885 89.2215 41.0697 90.4692 39.6558C91.7295 38.2279 93.4648 37.456 95.6751 37.3402C97.8987 37.2236 99.7052 37.8099 101.095 39.099C102.483 40.3747 103.236 42.1244 103.352 44.348L103.426 45.7461L98.832 45.9868L98.7587 44.5887C98.7147 43.7499 98.4398 43.09 97.934 42.6092C97.4274 42.115 96.7547 41.8899 95.9159 41.9339C95.077 41.9778 94.4315 42.272 93.9794 42.8164C93.5266 43.3475 93.3221 44.0325 93.3661 44.8713L93.5482 48.3466C93.5734 48.8259 93.6066 49.2047 93.6478 49.4829C93.7018 49.7471 93.8065 49.9619 93.962 50.1274C94.1302 50.2788 94.4045 50.4179 94.785 50.5449C95.1655 50.6718 95.7008 50.824 96.3911 51.0014C98.2446 51.4651 99.6811 51.8704 100.701 52.2176C101.72 52.5514 102.454 52.9334 102.904 53.3638C103.367 53.7935 103.657 54.3658 103.775 55.0806C103.906 55.7947 104.003 56.7709 104.068 58.0092L104.215 60.8054C104.331 63.0157 103.765 64.8345 102.518 66.2617C101.271 67.6889 99.5358 68.4608 97.3122 68.5773ZM111.75 67.1798L110.42 41.8146L105.767 42.0585L105.526 37.4648L119.407 36.7373L119.648 41.331L115.014 41.5739L116.343 66.939L111.75 67.1798ZM124.594 66.5067L123.024 36.5478L130.414 36.1605C132.584 36.0467 134.343 36.6155 135.69 37.8667C137.037 39.1045 137.767 40.8087 137.881 42.979L138.119 47.5128C138.192 48.9242 137.978 50.1772 137.474 51.2717C136.971 52.3662 136.216 53.2536 135.211 53.9338L134.815 52.4925C135.968 52.846 136.873 53.4261 137.529 54.2328C138.199 55.0389 138.565 56.0278 138.626 57.1995L139.074 65.7478L134.48 65.9885L134.032 57.4403C133.993 56.6946 133.742 56.1069 133.279 55.6773C132.815 55.2343 132.191 55.0334 131.405 55.0745L128.609 55.2211L129.188 66.2659L124.594 66.5067ZM128.368 50.6274L131.164 50.4808C131.95 50.4397 132.55 50.1745 132.965 49.6855C133.379 49.1831 133.566 48.5391 133.525 47.7535L133.287 43.2198C133.246 42.4342 132.994 41.8199 132.53 41.3769C132.065 40.9206 131.44 40.713 130.655 40.7542L127.858 40.9007L128.368 50.6274ZM157.65 34.7331L158.866 57.9412C158.982 60.1515 158.416 61.9703 157.169 63.3975C155.922 64.8247 154.187 65.5966 151.963 65.7132C149.753 65.829 147.947 65.2427 146.544 63.9544C145.155 62.6653 144.402 60.9157 144.286 58.7054L143.07 35.4972L147.664 35.2565L148.88 58.4646C148.924 59.3035 149.199 59.97 149.706 60.4641C150.211 60.945 150.884 61.1634 151.723 61.1195C152.562 61.0755 153.207 60.788 153.66 60.2569C154.112 59.7125 154.316 59.0208 154.272 58.182L153.056 34.9738L157.65 34.7331ZM178.955 55.4865L179.028 56.8846C179.144 59.0949 178.578 60.9137 177.331 62.3409C176.084 63.7681 174.349 64.54 172.125 64.6565C169.915 64.7723 168.109 64.1861 166.706 62.8977C165.317 61.6087 164.564 59.859 164.448 57.6487L163.586 41.1913C163.469 38.9677 164.035 37.1489 165.282 35.735C166.543 34.3071 168.278 33.5352 170.488 33.4194C172.712 33.3028 174.519 33.8891 175.908 35.1782C177.297 36.4539 178.049 38.2036 178.166 40.4272L178.239 41.8253L173.645 42.066L173.572 40.6679C173.528 39.8291 173.253 39.1692 172.747 38.6884C172.241 38.1942 171.568 37.9691 170.729 38.0131C169.89 38.057 169.245 38.3512 168.793 38.8956C168.34 39.4267 168.135 40.1117 168.179 40.9505L169.042 57.408C169.086 58.2468 169.361 58.9133 169.868 59.4075C170.374 59.8883 171.046 60.1068 171.885 60.0628C172.724 60.0189 173.369 59.7313 173.822 59.2002C174.274 58.6558 174.478 57.9642 174.434 57.1253L174.361 55.7273L178.955 55.4865ZM186.062 63.2853L184.733 37.9201L180.079 38.164L179.838 33.5703L193.719 32.8428L193.96 37.4365L189.326 37.6793L190.656 63.0445L186.062 63.2853ZM211.716 31.8996L212.933 55.1077C213.048 57.318 212.483 59.1368 211.236 60.564C209.989 61.9912 208.253 62.7631 206.03 62.8797C203.82 62.9955 202.013 62.4092 200.61 61.1209C199.221 59.8318 198.468 58.0822 198.353 55.8719L197.136 32.6637L201.73 32.423L202.946 55.6311C202.99 56.47 203.266 57.1365 203.772 57.6306C204.278 58.1115 204.95 58.3299 205.789 58.286C206.628 58.242 207.274 57.9545 207.727 57.4234C208.179 56.879 208.383 56.1873 208.339 55.3485L207.123 32.1403L211.716 31.8996ZM219.308 61.5429L217.738 31.584L225.128 31.1967C227.298 31.083 229.057 31.6517 230.404 32.9029C231.751 34.1408 232.481 35.8449 232.595 38.0153L232.832 42.5491C232.906 43.9605 232.692 45.2134 232.188 46.3079C231.685 47.4024 230.93 48.2898 229.924 48.9701L229.528 47.5288C230.682 47.8823 231.587 48.4624 232.243 49.2691C232.913 50.0752 233.279 51.064 233.34 52.2358L233.788 60.784L229.194 61.0248L228.746 52.4765C228.707 51.7309 228.456 51.1432 227.993 50.7135C227.529 50.2705 226.904 50.0696 226.119 50.1108L223.323 50.2573L223.901 61.3022L219.308 61.5429ZM223.082 45.6636L225.878 45.5171C226.664 45.4759 227.264 45.2108 227.679 44.7217C228.093 44.2194 228.28 43.5754 228.239 42.7898L228.001 38.256C227.96 37.4704 227.707 36.8561 227.243 36.4131C226.779 35.9568 226.154 35.7493 225.368 35.7904L222.572 35.937L223.082 45.6636ZM250.267 29.8793L250.507 34.473L242.818 34.8759L243.21 42.3657L249.821 42.0192L250.062 46.6129L243.451 46.9594L243.906 55.6474L251.596 55.2445L251.837 59.8382L239.553 60.4819L237.983 30.523L250.267 29.8793ZM256.678 59.5844L255.108 29.6255L262.298 29.2487C264.522 29.1322 266.329 29.7184 267.718 31.0075C269.107 32.2832 269.859 34.0329 269.976 36.2565L270.771 51.4357C270.887 53.646 270.321 55.4647 269.074 56.892C267.827 58.3192 266.092 59.091 263.869 59.2076L256.678 59.5844ZM261.031 54.75L263.628 54.6139C264.467 54.5699 265.112 54.2824 265.565 53.7513C266.017 53.2069 266.221 52.5153 266.178 51.6764L265.382 36.4972C265.338 35.6584 265.063 34.9985 264.557 34.5177C264.051 34.0235 263.378 33.7984 262.539 33.8424L259.943 33.9785L261.031 54.75ZM296.765 27.4424L297.006 32.0361L289.317 32.4391L289.709 39.9288L296.32 39.5823L296.561 44.176L289.95 44.5225L290.405 53.2105L298.095 52.8076L298.335 57.4013L286.052 58.045L284.482 28.0861L296.765 27.4424ZM300.82 57.271L305.986 41.9597L299.25 27.3121L303.964 27.0651L308.883 37.6221L307.405 37.6996L311.134 26.6893L315.847 26.4423L310.7 41.7127L317.418 56.4012L312.704 56.6482L307.844 46.0681L309.322 45.9906L305.534 57.024L300.82 57.271ZM331.99 25.5963L332.231 30.19L324.542 30.593L324.934 38.0827L331.545 37.7362L331.786 42.3299L325.175 42.6764L325.63 51.3645L333.32 50.9615L333.56 55.5552L321.277 56.1989L319.707 26.24L331.99 25.5963ZM352.116 46.4115L352.189 47.8096C352.305 50.0199 351.739 51.8387 350.492 53.2659C349.245 54.6931 347.51 55.465 345.286 55.5815C343.076 55.6974 341.269 55.1111 339.867 53.8228C338.477 52.5337 337.725 50.784 337.609 48.5737L336.746 32.1163C336.63 29.8927 337.196 28.0739 338.443 26.66C339.704 25.2321 341.439 24.4602 343.649 24.3444C345.873 24.2279 347.679 24.8141 349.069 26.1032C350.457 27.3789 351.21 29.1286 351.326 31.3522L351.4 32.7503L346.806 32.991L346.733 31.593C346.689 30.7541 346.414 30.0943 345.908 29.6134C345.402 29.1192 344.729 28.8941 343.89 28.9381C343.051 28.9821 342.406 29.2762 341.953 29.8207C341.501 30.3518 341.296 31.0367 341.34 31.8756L342.203 48.333C342.247 49.1718 342.522 49.8383 343.028 50.3325C343.534 50.8134 344.207 51.0318 345.046 50.9878C345.884 50.9439 346.53 50.6564 346.983 50.1253C347.435 49.5809 347.639 48.8892 347.595 48.0504L347.522 46.6523L352.116 46.4115ZM369.976 23.6056L371.192 46.8137C371.308 49.024 370.742 50.8428 369.495 52.27C368.248 53.6972 366.513 54.4691 364.289 54.5856C362.079 54.7015 360.272 54.1152 358.87 52.8269C357.48 51.5378 356.728 49.7881 356.612 47.5778L355.396 24.3697L359.989 24.1289L361.206 47.3371C361.25 48.1759 361.525 48.8424 362.031 49.3366C362.537 49.8175 363.21 50.0359 364.049 49.9919C364.887 49.948 365.533 49.6604 365.986 49.1294C366.438 48.5849 366.642 47.8933 366.598 47.0545L365.382 23.8463L369.976 23.6056ZM379.624 53.1411L378.295 27.7759L373.641 28.0198L373.401 23.4261L387.282 22.6986L387.522 27.2923L382.889 27.5351L384.218 52.9003L379.624 53.1411ZM397.062 52.2272L392.469 52.4679L390.899 22.5091L395.492 22.2683L397.062 52.2272ZM410.197 52.1797C407.987 52.2955 406.18 51.7093 404.778 50.4209C403.388 49.1319 402.636 47.3822 402.52 45.1719L401.657 28.7145C401.541 26.4909 402.106 24.6721 403.354 23.2582C404.615 21.8303 406.35 21.0584 408.56 20.9426C410.784 20.826 412.59 21.4123 413.98 22.7013C415.368 23.9771 416.121 25.7268 416.237 27.9504L417.1 44.4078C417.216 46.6181 416.65 48.4369 415.403 49.8641C414.156 51.2913 412.421 52.0632 410.197 52.1797ZM409.956 47.586C410.795 47.542 411.441 47.2545 411.894 46.7234C412.346 46.179 412.55 45.4874 412.506 44.6485L411.644 28.1911C411.6 27.3523 411.325 26.6924 410.819 26.2116C410.312 25.7174 409.64 25.4923 408.801 25.5363C407.962 25.5802 407.317 25.8744 406.864 26.4188C406.412 26.9499 406.207 27.6349 406.251 28.4737L407.114 44.9311C407.158 45.77 407.433 46.4365 407.939 46.9307C408.445 47.4115 409.118 47.63 409.956 47.586ZM423.247 50.8549L421.677 20.896L425.232 20.7097L434.005 41.3789L432.77 41.5037L431.663 20.3727L435.957 20.1476L437.527 50.1065L433.992 50.2918L425.197 29.6037L426.432 29.4789L427.541 50.6299L423.247 50.8549Z" fill="#011C75"/>
<rect width="430" height="66" transform="translate(1.15186 68.7815) rotate(1)" fill="#B3FF00"/>
<path d="M49.7158 117.636L50.2394 87.641L57.6382 87.7702C59.8112 87.8081 61.5261 88.4981 62.7829 89.8403C64.0399 91.1691 64.6494 92.92 64.6115 95.093L64.5462 98.8324C64.5085 100.992 63.8383 102.721 62.5354 104.018C61.2326 105.316 59.4946 105.945 57.3216 105.907L54.5221 105.859L54.3151 117.717L49.7158 117.636ZM54.6023 101.259L57.4019 101.308C58.1885 101.322 58.8058 101.099 59.2539 100.64C59.7022 100.168 59.9332 99.5387 59.9469 98.7522L60.0122 95.0127C60.0259 94.2262 59.8169 93.5958 59.3851 93.1215C58.9535 92.6339 58.3445 92.3832 57.5579 92.3695L54.7584 92.3206L54.6023 101.259ZM68.5801 117.966L69.1037 87.9703L76.5025 88.0995C78.6755 88.1374 80.3904 88.8274 81.6472 90.1696C82.9042 91.4984 83.5137 93.2493 83.4758 95.4223L83.3966 99.9616C83.3719 101.375 83.0703 102.61 82.4918 103.666C81.9132 104.723 81.0986 105.556 80.0478 106.164L79.7533 104.699C80.8793 105.132 81.7416 105.774 82.3401 106.624C82.952 107.475 83.2478 108.487 83.2273 109.66L83.0779 118.219L78.4786 118.139L78.628 109.58C78.641 108.833 78.4315 108.23 77.9995 107.769C77.5677 107.294 76.9585 107.05 76.172 107.037L73.3724 106.988L73.1794 118.046L68.5801 117.966ZM73.4527 102.388L76.2523 102.437C77.0388 102.451 77.6561 102.228 78.1042 101.769C78.5525 101.297 78.7835 100.668 78.7973 99.8813L78.8765 95.342C78.8902 94.5555 78.6812 93.925 78.2494 93.4508C77.8179 92.9632 77.2088 92.7125 76.4223 92.6988L73.6227 92.6499L73.4527 102.388ZM101.672 88.5388L101.592 93.1381L93.893 93.0037L93.7621 100.503L100.381 100.618L100.301 105.217L93.6819 105.102L93.53 113.801L101.229 113.935L101.149 118.534L88.8504 118.32L89.374 88.3241L101.672 88.5388ZM105.996 118.619L106.52 88.6234L113.719 88.7491C115.945 88.7879 117.706 89.4988 119.002 90.8816C120.299 92.2511 120.927 94.049 120.888 96.2754L120.623 111.473C120.585 113.686 119.894 115.461 118.55 116.798C117.206 118.134 115.422 118.783 113.195 118.745L105.996 118.619ZM110.676 114.1L113.275 114.145C114.115 114.16 114.78 113.918 115.268 113.42C115.757 112.908 116.009 112.233 116.024 111.393L116.289 96.1951C116.304 95.3552 116.076 94.6778 115.605 94.1628C115.134 93.6345 114.478 93.363 113.638 93.3484L111.039 93.303L110.676 114.1ZM130.749 119.051L126.149 118.971L126.673 88.9752L131.272 89.0555L130.749 119.051ZM151.307 111.249L151.283 112.648C151.244 114.861 150.553 116.636 149.21 117.973C147.866 119.31 146.081 119.959 143.855 119.92C141.642 119.881 139.881 119.17 138.571 117.787C137.275 116.404 136.647 114.606 136.685 112.393L136.973 95.916C137.012 93.6897 137.703 91.9148 139.046 90.5914C140.403 89.2549 142.188 88.6059 144.401 88.6445C146.627 88.6834 148.388 89.3942 149.684 90.7771C150.981 92.1466 151.609 93.9445 151.571 96.1708L151.546 97.5706L146.947 97.4903L146.971 96.0905C146.986 95.2507 146.758 94.5732 146.287 94.0583C145.816 93.53 145.16 93.2585 144.321 93.2438C143.481 93.2292 142.816 93.4776 142.327 93.9892C141.839 94.4874 141.587 95.1564 141.572 95.9963L141.285 112.474C141.27 113.314 141.498 113.998 141.969 114.526C142.44 115.041 143.095 115.306 143.935 115.32C144.775 115.335 145.439 115.093 145.928 114.595C146.417 114.084 146.669 113.408 146.684 112.568L146.708 111.168L151.307 111.249ZM157.853 119.524L158.296 94.1279L153.637 94.0466L153.717 89.4473L167.615 89.6898L167.535 94.2891L162.896 94.2082L162.452 119.604L157.853 119.524ZM167.65 119.695L174.133 89.8036L179.092 89.8902L184.448 119.988L179.728 119.906L178.938 114.771L173.359 114.674L172.37 119.777L167.65 119.695ZM174.159 110.087L178.298 110.159L176.183 96.1203L176.823 96.1315L174.159 110.087ZM188.327 120.056L188.851 90.0605L196.25 90.1897C198.423 90.2276 200.138 90.9176 201.395 92.2598C202.652 93.5886 203.261 95.3395 203.223 97.5125L203.172 100.452C203.151 101.652 202.925 102.728 202.495 103.681C202.079 104.634 201.492 105.41 200.735 106.01L200.665 104.249C201.521 104.864 202.194 105.689 202.682 106.724C203.184 107.76 203.424 108.938 203.401 110.258L203.351 113.117C203.313 115.263 202.643 116.992 201.34 118.303C200.037 119.6 198.299 120.23 196.126 120.192L188.327 120.056ZM193.007 115.537L196.207 115.593C196.993 115.607 197.611 115.377 198.059 114.905C198.507 114.433 198.738 113.81 198.752 113.037L198.801 110.177C198.815 109.404 198.606 108.774 198.174 108.286C197.743 107.798 197.134 107.548 196.347 107.534L193.148 107.478L193.007 115.537ZM193.228 102.879L196.028 102.928C196.814 102.941 197.431 102.719 197.88 102.26C198.328 101.788 198.559 101.158 198.573 100.372L198.624 97.4322C198.638 96.6457 198.429 96.0152 197.997 95.541C197.565 95.0534 196.956 94.8027 196.17 94.789L193.37 94.7401L193.228 102.879ZM213.682 90.4939L213.238 115.89L220.137 116.01L220.057 120.61L208.559 120.409L209.082 90.4137L213.682 90.4939ZM236.691 90.8956L236.61 95.4949L228.912 95.3605L228.781 102.859L235.4 102.975L235.319 107.574L228.7 107.459L228.549 116.157L236.247 116.292L236.167 120.891L223.869 120.676L224.393 90.6809L236.691 90.8956ZM250.271 121.137L250.795 91.1417L257.994 91.2674C260.22 91.3063 261.981 92.0171 263.277 93.3999C264.574 94.7694 265.202 96.5674 265.163 98.7937L264.898 113.991C264.859 116.204 264.168 117.979 262.825 119.316C261.481 120.653 259.696 121.302 257.47 121.263L250.271 121.137ZM254.951 116.618L257.55 116.664C258.39 116.678 259.055 116.436 259.543 115.938C260.032 115.427 260.284 114.751 260.299 113.911L260.564 98.7134C260.579 97.8735 260.351 97.1961 259.879 96.6811C259.409 96.1528 258.753 95.8814 257.913 95.8667L255.314 95.8213L254.951 116.618ZM283.246 91.7082L283.166 96.3075L275.467 96.1731L275.336 103.672L281.955 103.787L281.875 108.387L275.256 108.271L275.104 116.97L282.803 117.104L282.722 121.704L270.424 121.489L270.948 91.4935L283.246 91.7082ZM292.693 91.8731L292.25 117.269L299.149 117.39L299.068 121.989L287.57 121.788L288.094 91.7928L292.693 91.8731ZM307.48 122.136L302.88 122.055L303.404 92.06L308.003 92.1403L307.48 122.136ZM317.338 122.308L311.902 92.2084L316.621 92.2908L320.275 115.598L319.615 115.587L323.98 92.4192L328.699 92.5016L322.297 122.394L317.338 122.308ZM344.877 92.784L344.797 97.3833L337.098 97.2489L336.967 104.748L343.586 104.863L343.506 109.463L336.887 109.347L336.735 118.046L344.434 118.18L344.354 122.779L332.056 122.565L332.579 92.5693L344.877 92.784ZM349.201 122.864L349.725 92.8686L357.124 92.9977C359.297 93.0357 361.012 93.7257 362.269 95.0678C363.526 96.3966 364.135 98.1475 364.097 100.321L364.018 104.86C363.993 106.273 363.692 107.508 363.113 108.565C362.535 109.621 361.72 110.454 360.669 111.062L360.375 109.597C361.501 110.03 362.363 110.672 362.961 111.522C363.573 112.373 363.869 113.385 363.849 114.558L363.699 123.117L359.1 123.037L359.249 114.478C359.262 113.732 359.053 113.128 358.621 112.667C358.189 112.193 357.58 111.949 356.793 111.935L353.994 111.886L353.801 122.944L349.201 122.864ZM354.074 107.287L356.874 107.336C357.66 107.349 358.277 107.127 358.726 106.668C359.174 106.196 359.405 105.566 359.419 104.78L359.498 100.24C359.512 99.4537 359.303 98.8233 358.871 98.349C358.439 97.8614 357.83 97.6108 357.044 97.597L354.244 97.5482L354.074 107.287ZM372.49 123.271L372.738 109.073L366.395 93.1595L371.094 93.2416L375.792 106.006L374.412 105.981L379.473 93.3878L384.172 93.4699L377.337 109.153L377.089 123.351L372.49 123.271Z" fill="#011C75"/>
</svg>
