<svg width="398" height="136" viewBox="0 0 398 136" fill="none" xmlns="http://www.w3.org/2000/svg">
<rect width="370" height="66" transform="translate(0 19.3643) rotate(-3)" fill="#FFCF23"/>
<path d="M32.8171 65.7103L31.247 35.7514L38.6369 35.3641C40.8072 35.2503 42.5661 35.8191 43.9134 37.0703C45.26 38.3082 45.9902 40.0123 46.104 42.1826L46.2578 45.1186C46.3206 46.317 46.1708 47.4063 45.8082 48.3866C45.459 49.3662 44.9277 50.1818 44.2141 50.8334L44.0221 49.081C44.919 49.6349 45.6473 50.4111 46.207 51.4099C46.78 52.4079 47.1011 53.566 47.1702 54.8842L47.3198 57.7403C47.4322 59.884 46.8841 61.6552 45.6757 63.0536C44.4665 64.4388 42.7768 65.1883 40.6064 65.302L32.8171 65.7103ZM37.17 60.8758L40.3656 60.7083C41.1512 60.6672 41.7512 60.3954 42.1654 59.893C42.5797 59.3907 42.7666 58.7533 42.7261 57.9811L42.5765 55.125C42.536 54.3527 42.2835 53.7384 41.819 53.2821C41.3545 52.8258 40.7294 52.6182 39.9438 52.6594L36.7482 52.8269L37.17 60.8758ZM36.5075 48.2332L39.3036 48.0866C40.0892 48.0455 40.6895 47.7803 41.1045 47.2913C41.5187 46.7889 41.7053 46.1449 41.6641 45.3593L41.5103 42.4234C41.4691 41.6378 41.2166 41.0235 40.7528 40.5805C40.2883 40.1242 39.6632 39.9166 38.8776 39.9578L36.0814 40.1043L36.5075 48.2332ZM65.8339 33.9387L67.0502 57.1469C67.166 59.3572 66.6005 61.176 65.3534 62.6032C64.1064 64.0304 62.3711 64.8023 60.1475 64.9188C57.9372 65.0346 56.1307 64.4484 54.728 63.16C53.3387 61.871 52.586 60.1213 52.4702 57.911L51.2539 34.7028L55.8476 34.4621L57.0639 57.6703C57.1079 58.5091 57.3831 59.1756 57.8897 59.6698C58.3955 60.1506 59.0679 60.3691 59.9067 60.3251C60.7456 60.2811 61.3914 59.9936 61.8443 59.4625C62.2964 58.9181 62.5005 58.2265 62.4565 57.3876L61.2402 34.1795L65.8339 33.9387ZM78.0191 63.3413L73.4254 63.5821L71.8553 33.6232L76.449 33.3824L78.0191 63.3413ZM87.2935 32.8141L88.6229 58.1793L95.5134 57.8182L95.7542 62.4119L84.2699 63.0137L82.6998 33.0548L87.2935 32.8141ZM100.838 62.1454L99.5091 36.7802L94.8555 37.0241L94.6147 32.4304L108.496 31.7029L108.736 36.2966L104.103 36.5395L105.432 61.9047L100.838 62.1454ZM122.928 60.9878L121.358 31.0289L133.641 30.3851L133.882 34.9788L126.192 35.3818L126.742 45.8674L133.353 45.521L133.593 50.1147L126.982 50.4611L127.521 60.747L122.928 60.9878ZM146.235 60.4072C144.024 60.523 142.218 59.9367 140.815 58.6484C139.426 57.3593 138.673 55.6097 138.557 53.3994L137.695 36.9419C137.578 34.7183 138.144 32.8996 139.392 31.4857C140.652 30.0578 142.387 29.2859 144.598 29.17C146.821 29.0535 148.628 29.6398 150.017 30.9288C151.406 32.2045 152.158 33.9542 152.275 36.1778L153.137 52.6353C153.253 54.8456 152.688 56.6643 151.441 58.0915C150.194 59.5188 148.458 60.2906 146.235 60.4072ZM145.994 55.8135C146.833 55.7695 147.479 55.482 147.931 54.9509C148.384 54.4065 148.588 53.7149 148.544 52.876L147.681 36.4186C147.637 35.5797 147.362 34.9199 146.856 34.439C146.35 33.9449 145.677 33.7198 144.838 33.7637C143.999 33.8077 143.354 34.1019 142.902 34.6463C142.449 35.1774 142.245 35.8624 142.289 36.7012L143.151 53.1586C143.195 53.9975 143.47 54.664 143.977 55.1581C144.483 55.639 145.155 55.8574 145.994 55.8135ZM159.284 59.0824L157.714 29.1235L165.104 28.7362C167.274 28.6225 169.033 29.1912 170.38 30.4424C171.727 31.6803 172.457 33.3844 172.571 35.5548L172.809 40.0885C172.883 41.4999 172.668 42.7529 172.164 43.8474C171.661 44.9419 170.906 45.8293 169.901 46.5095L169.505 45.0683C170.658 45.4217 171.563 46.0018 172.22 46.8086C172.889 47.6146 173.255 48.6035 173.316 49.7753L173.764 58.3235L169.171 58.5643L168.723 50.016C168.684 49.2704 168.432 48.6827 167.969 48.253C167.505 47.81 166.881 47.6091 166.095 47.6503L163.299 47.7968L163.878 58.8417L159.284 59.0824ZM163.058 43.2031L165.854 43.0566C166.64 43.0154 167.24 42.7503 167.655 42.2612C168.07 41.7589 168.256 41.1149 168.215 40.3293L167.977 35.7955C167.936 35.0099 167.684 34.3956 167.22 33.9526C166.755 33.4963 166.13 33.2887 165.345 33.3299L162.549 33.4765L163.058 43.2031ZM202.488 48.647L202.562 50.045C202.678 52.2553 202.112 54.0741 200.865 55.5013C199.618 56.9285 197.883 57.7004 195.659 57.8169C193.449 57.9328 191.642 57.3465 190.24 56.0582C188.85 54.7691 188.098 53.0194 187.982 50.8091L187.119 34.3517C187.003 32.1281 187.568 30.3094 188.816 28.8954C190.076 27.4675 191.812 26.6957 194.022 26.5798C196.246 26.4633 198.052 27.0495 199.441 28.3386C200.83 29.6143 201.583 31.364 201.699 33.5876L201.773 34.9857L197.179 35.2264L197.106 33.8284C197.062 32.9895 196.787 32.3297 196.281 31.8488C195.774 31.3547 195.102 31.1295 194.263 31.1735C193.424 31.2175 192.778 31.5117 192.326 32.0561C191.873 32.5872 191.669 33.2721 191.713 34.111L192.575 50.5684C192.619 51.4072 192.895 52.0738 193.401 52.5679C193.907 53.0488 194.579 53.2672 195.418 53.2233C196.257 53.1793 196.903 52.8918 197.356 52.3607C197.808 51.8163 198.012 51.1246 197.968 50.2858L197.895 48.8877L202.488 48.647ZM214.422 56.8336C212.212 56.9494 210.406 56.3632 209.003 55.0748C207.614 53.7858 206.861 52.0361 206.745 49.8258L205.883 33.3684C205.766 31.1448 206.332 29.326 207.579 27.9121C208.84 26.4842 210.575 25.7123 212.785 25.5965C215.009 25.4799 216.815 26.0662 218.205 27.3552C219.593 28.631 220.346 30.3807 220.463 32.6043L221.325 49.0617C221.441 51.272 220.875 53.0908 219.628 54.518C218.381 55.9452 216.646 56.7171 214.422 56.8336ZM214.182 52.2399C215.02 52.1959 215.666 51.9084 216.119 51.3773C216.571 50.8329 216.775 50.1413 216.731 49.3024L215.869 32.845C215.825 32.0062 215.55 31.3463 215.044 30.8655C214.538 30.3713 213.865 30.1462 213.026 30.1902C212.187 30.2341 211.542 30.5283 211.09 31.0727C210.637 31.6038 210.432 32.2888 210.476 33.1276L211.339 49.5851C211.383 50.4239 211.658 51.0904 212.165 51.5846C212.67 52.0654 213.343 52.2839 214.182 52.2399ZM227.472 55.5088L225.902 25.5499L229.457 25.3636L238.231 46.0328L236.995 46.1576L235.888 25.0266L240.182 24.8015L241.752 54.7604L238.217 54.9457L229.422 34.2576L230.657 34.1328L231.766 55.2838L227.472 55.5088ZM247.991 54.4335L246.42 24.4746L258.704 23.8309L258.944 28.4246L251.255 28.8276L251.804 39.3132L258.415 38.9667L258.656 43.5604L252.045 43.9069L252.584 54.1927L247.991 54.4335ZM269.007 53.3321L264.413 53.5728L262.843 23.6139L267.437 23.3732L269.007 53.3321ZM275.258 53.0045L273.688 23.0456L280.878 22.6688C283.101 22.5522 284.908 23.1385 286.297 24.4275C287.686 25.7033 288.439 27.453 288.555 29.6766L289.351 44.8557C289.466 47.066 288.901 48.8848 287.654 50.312C286.407 51.7392 284.672 52.5111 282.448 52.6277L275.258 53.0045ZM279.611 48.17L282.207 48.034C283.046 47.99 283.692 47.7025 284.145 47.1714C284.597 46.627 284.801 45.9353 284.757 45.0965L283.961 29.9173C283.917 29.0785 283.643 28.4186 283.137 27.9378C282.63 27.4436 281.957 27.2185 281.119 27.2625L278.522 27.3985L279.611 48.17ZM306.1 21.347L306.34 25.9407L298.651 26.3436L299.043 33.8334L305.654 33.4869L305.895 38.0806L299.284 38.4271L299.739 47.1151L307.429 46.7122L307.67 51.3058L295.386 51.9496L293.816 21.9907L306.1 21.347ZM312.511 51.0521L310.941 21.0932L314.496 20.9069L323.27 41.576L322.035 41.7009L320.928 20.5698L325.222 20.3448L326.792 50.3037L323.257 50.489L314.462 29.8009L315.697 29.6761L316.805 50.8271L312.511 51.0521ZM335.087 49.8689L333.758 24.5038L329.104 24.7476L328.864 20.1539L342.745 19.4265L342.985 24.0202L338.352 24.263L339.681 49.6282L335.087 49.8689Z" fill="#011C75"/>
<rect width="320" height="66" transform="translate(77.7412 69.165)" fill="#FFCF23"/>
<path d="M106.193 117.165V87.165H113.393C115.62 87.165 117.393 87.845 118.713 89.205C120.033 90.5517 120.693 92.3384 120.693 94.565V109.765C120.693 111.978 120.033 113.765 118.713 115.125C117.393 116.485 115.62 117.165 113.393 117.165H106.193ZM110.793 112.565H113.393C114.233 112.565 114.893 112.312 115.373 111.805C115.853 111.285 116.093 110.605 116.093 109.765V94.565C116.093 93.725 115.853 93.0517 115.373 92.545C114.893 92.025 114.233 91.765 113.393 91.765H110.793V112.565ZM138.649 87.165V91.765H130.949V99.265H137.569V103.865H130.949V112.565H138.649V117.165H126.349V87.165H138.649ZM157.658 109.005V110.405C157.658 112.618 156.998 114.405 155.678 115.765C154.358 117.125 152.585 117.805 150.358 117.805C148.145 117.805 146.371 117.125 145.038 115.765C143.718 114.405 143.058 112.618 143.058 110.405V93.925C143.058 91.6984 143.718 89.9117 145.038 88.565C146.371 87.205 148.145 86.525 150.358 86.525C152.585 86.525 154.358 87.205 155.678 88.565C156.998 89.9117 157.658 91.6984 157.658 93.925V95.325H153.058V93.925C153.058 93.085 152.818 92.4117 152.338 91.905C151.858 91.385 151.198 91.125 150.358 91.125C149.518 91.125 148.858 91.385 148.378 91.905C147.898 92.4117 147.658 93.085 147.658 93.925V110.405C147.658 111.245 147.898 111.925 148.378 112.445C148.858 112.952 149.518 113.205 150.358 113.205C151.198 113.205 151.858 112.952 152.338 112.445C152.818 111.925 153.058 111.245 153.058 110.405V109.005H157.658ZM166.887 117.165H162.287V87.165H166.887V117.165ZM179.426 117.805C177.213 117.805 175.44 117.125 174.106 115.765C172.786 114.405 172.126 112.618 172.126 110.405V109.005H176.726V110.405C176.726 111.245 176.966 111.925 177.446 112.445C177.926 112.952 178.586 113.205 179.426 113.205C180.266 113.205 180.926 112.952 181.406 112.445C181.886 111.925 182.126 111.245 182.126 110.405V107.605C182.126 107.125 182.106 106.752 182.066 106.485C182.026 106.205 181.926 105.978 181.766 105.805C181.62 105.632 181.36 105.478 180.986 105.345C180.626 105.198 180.106 105.018 179.426 104.805C177.6 104.232 176.186 103.752 175.186 103.365C174.186 102.978 173.466 102.558 173.026 102.105C172.6 101.652 172.34 101.065 172.246 100.345C172.166 99.6117 172.126 98.6317 172.126 97.405V93.925C172.126 91.6984 172.786 89.9117 174.106 88.565C175.44 87.205 177.213 86.525 179.426 86.525C181.653 86.525 183.426 87.205 184.746 88.565C186.066 89.9117 186.726 91.6984 186.726 93.925V95.325H182.126V93.925C182.126 93.085 181.886 92.4117 181.406 91.905C180.926 91.385 180.266 91.125 179.426 91.125C178.586 91.125 177.926 91.385 177.446 91.905C176.966 92.4117 176.726 93.085 176.726 93.925V97.405C176.726 97.885 176.74 98.265 176.766 98.545C176.806 98.8117 176.9 99.0317 177.046 99.205C177.206 99.365 177.473 99.5184 177.846 99.665C178.22 99.8117 178.746 99.9917 179.426 100.205C181.253 100.765 182.666 101.245 183.666 101.645C184.666 102.032 185.38 102.452 185.806 102.905C186.246 103.358 186.506 103.945 186.586 104.665C186.68 105.385 186.726 106.365 186.726 107.605V110.405C186.726 112.618 186.066 114.405 184.746 115.765C183.426 117.125 181.653 117.805 179.426 117.805ZM196.457 117.165H191.857V87.165H196.457V117.165ZM209.577 117.805C207.363 117.805 205.59 117.125 204.257 115.765C202.937 114.405 202.277 112.618 202.277 110.405V93.925C202.277 91.6984 202.937 89.9117 204.257 88.565C205.59 87.205 207.363 86.525 209.577 86.525C211.803 86.525 213.577 87.205 214.897 88.565C216.217 89.9117 216.877 91.6984 216.877 93.925V110.405C216.877 112.618 216.217 114.405 214.897 115.765C213.577 117.125 211.803 117.805 209.577 117.805ZM209.577 113.205C210.417 113.205 211.077 112.952 211.557 112.445C212.037 111.925 212.277 111.245 212.277 110.405V93.925C212.277 93.085 212.037 92.4117 211.557 91.905C211.077 91.385 210.417 91.125 209.577 91.125C208.737 91.125 208.077 91.385 207.597 91.905C207.117 92.4117 206.877 93.085 206.877 93.925V110.405C206.877 111.245 207.117 111.925 207.597 112.445C208.077 112.952 208.737 113.205 209.577 113.205ZM222.678 117.165V87.165H226.238L233.918 108.265L232.678 108.325V87.165H236.978V117.165H233.438L225.738 96.045L226.978 95.985V117.165H222.678ZM242.624 108.485V103.885H254.424V108.485H242.624ZM260.06 117.165V87.165H264.3L270.64 111.225H269.56L275.9 87.165H280.14V117.165H275.84V99.685L276.38 99.785L271.64 117.165H268.56L263.82 99.785L264.36 99.685V117.165H260.06ZM284.029 117.165L289.989 87.165H294.949L300.829 117.165H296.109L295.229 112.045H289.649L288.749 117.165H284.029ZM290.369 107.445H294.509L292.149 93.445H292.789L290.369 107.445ZM315.769 117.165L310.269 102.825L308.909 104.845V97.285L315.769 87.165H320.729L313.409 98.085L320.709 117.165H315.769ZM304.709 117.165V87.165H309.309V117.165H304.709ZM329.192 117.165H324.592V87.165H329.192V117.165ZM335.451 117.165V87.165H339.011L346.691 108.265L345.451 108.325V87.165H349.751V117.165H346.211L338.511 96.045L339.751 95.985V117.165H335.451ZM362.858 117.805C360.645 117.805 358.871 117.125 357.538 115.765C356.218 114.405 355.558 112.618 355.558 110.405V93.925C355.558 91.6984 356.218 89.9117 357.538 88.565C358.871 87.205 360.645 86.525 362.858 86.525C365.085 86.525 366.858 87.205 368.178 88.565C369.498 89.9117 370.158 91.6984 370.158 93.925V95.325H365.558V93.925C365.558 93.085 365.318 92.4117 364.838 91.905C364.358 91.385 363.698 91.125 362.858 91.125C362.018 91.125 361.358 91.385 360.878 91.905C360.398 92.4117 360.158 93.085 360.158 93.925V110.405C360.158 111.245 360.398 111.925 360.878 112.445C361.358 112.952 362.018 113.205 362.858 113.205C363.698 113.205 364.358 112.952 364.838 112.445C365.318 111.925 365.558 111.245 365.558 110.405V106.965H362.538V102.365H370.158V110.405C370.158 112.618 369.498 114.405 368.178 115.765C366.858 117.125 365.085 117.805 362.858 117.805Z" fill="#011C75"/>
</svg>
