<svg width="180" height="180" viewBox="0 0 180 180" fill="none" xmlns="http://www.w3.org/2000/svg">
<line x1="30.9414" y1="2.18557e-08" x2="30.9414" y2="180" stroke="#E7E7E7"/>
<line x1="70.6475" y1="2.18557e-08" x2="70.6475" y2="180" stroke="#E7E7E7"/>
<line x1="110.353" y1="2.18557e-08" x2="110.353" y2="180" stroke="#E7E7E7"/>
<line x1="150.059" y1="2.18557e-08" x2="150.059" y2="180" stroke="#E7E7E7"/>
<line x1="180" y1="30.9414" x2="-2.18557e-08" y2="30.9414" stroke="#E7E7E7"/>
<line x1="180" y1="70.6465" x2="-2.18557e-08" y2="70.6465" stroke="#E7E7E7"/>
<line x1="180" y1="110.354" x2="-2.18557e-08" y2="110.354" stroke="#E7E7E7"/>
<line x1="180" y1="150.059" x2="-2.18557e-08" y2="150.059" stroke="#E7E7E7"/>
<rect width="180" height="180" fill="url(#paint0_radial_1_4589)"/>
<path d="M95.625 103.125V110.625C95.625 112.688 93.9375 114.375 91.875 114.375H73.125C71.0625 114.375 69.375 112.688 69.375 110.625V69.375C69.375 67.3125 71.0625 65.625 73.125 65.625H91.875C93.9375 65.625 95.625 67.3125 95.625 69.375V73.125" stroke="#FFCF23" stroke-width="3" stroke-miterlimit="10" stroke-linecap="round" stroke-linejoin="round"/>
<path d="M69.375 73.125H95.625" stroke="#FFCF23" stroke-width="3" stroke-miterlimit="10" stroke-linecap="round" stroke-linejoin="round"/>
<path d="M69.375 103.125H95.625" stroke="#FFCF23" stroke-width="3" stroke-miterlimit="10" stroke-linecap="round" stroke-linejoin="round"/>
<path d="M80.625 108.75H84.375" stroke="#FFCF23" stroke-width="3" stroke-miterlimit="10" stroke-linecap="round" stroke-linejoin="round"/>
<path d="M86.25 82.5L80.625 88.125L86.25 93.75" stroke="#FFCF23" stroke-width="3" stroke-miterlimit="10" stroke-linecap="round" stroke-linejoin="round"/>
<path d="M105 82.5L110.625 88.125L105 93.75" stroke="#FFCF23" stroke-width="3" stroke-miterlimit="10" stroke-linecap="round" stroke-linejoin="round"/>
<path d="M99.375 80.625L91.875 95.625" stroke="#FFCF23" stroke-width="3" stroke-miterlimit="10" stroke-linecap="round" stroke-linejoin="round"/>
<defs>
<radialGradient id="paint0_radial_1_4589" cx="0" cy="0" r="1" gradientUnits="userSpaceOnUse" gradientTransform="translate(90 90) rotate(90) scale(90)">
<stop stop-color="white" stop-opacity="0"/>
<stop offset="1" stop-color="white"/>
</radialGradient>
</defs>
</svg>
