<svg width="180" height="180" viewBox="0 0 180 180" fill="none" xmlns="http://www.w3.org/2000/svg">
<line x1="30.9414" y1="2.18557e-08" x2="30.9414" y2="180" stroke="#E7E7E7"/>
<line x1="70.6475" y1="2.18557e-08" x2="70.6475" y2="180" stroke="#E7E7E7"/>
<line x1="110.353" y1="2.18557e-08" x2="110.353" y2="180" stroke="#E7E7E7"/>
<line x1="150.059" y1="2.18557e-08" x2="150.059" y2="180" stroke="#E7E7E7"/>
<line x1="180" y1="30.9414" x2="-2.18557e-08" y2="30.9414" stroke="#E7E7E7"/>
<line x1="180" y1="70.6465" x2="-2.18557e-08" y2="70.6465" stroke="#E7E7E7"/>
<line x1="180" y1="110.354" x2="-2.18557e-08" y2="110.354" stroke="#E7E7E7"/>
<line x1="180" y1="150.059" x2="-2.18557e-08" y2="150.059" stroke="#E7E7E7"/>
<rect width="180" height="180" fill="url(#paint0_radial_1_4568)"/>
<path d="M89.9999 82.5645C92.9589 82.5645 95.3577 84.9632 95.3577 87.9222C95.3577 90.8812 92.9589 93.28 89.9999 93.28C87.0409 93.28 84.6421 90.8812 84.6421 87.9222C84.6421 84.9632 87.0409 82.5645 89.9999 82.5645Z" fill="#FFCF23"/>
<path d="M109.332 78.5837C108.71 78.3694 108.065 78.1667 107.401 77.975C107.51 77.5296 107.61 77.0899 107.699 76.6576C109.161 69.5605 108.205 63.843 104.941 61.9606C101.811 60.1556 96.6917 62.0376 91.5218 66.5368C91.0246 66.9695 90.5261 67.4275 90.0278 67.9076C89.6957 67.59 89.3642 67.283 89.0336 66.9894C83.6153 62.1786 78.1844 60.1512 74.9233 62.0391C71.7962 63.8493 70.8701 69.2243 72.1862 75.9503C72.3133 76.6 72.4619 77.2634 72.6299 77.938C71.8612 78.1561 71.1192 78.3888 70.4092 78.6362C64.0569 80.8509 60 84.3219 60 87.9222C60 91.6406 64.3551 95.3703 70.9715 97.6317C71.4936 97.8102 72.0354 97.9789 72.5938 98.1391C72.4125 98.8687 72.2549 99.5836 72.1226 100.281C70.8677 106.89 71.8477 112.138 74.9664 113.937C78.1878 115.795 83.5942 113.885 88.8586 109.283C89.2747 108.92 89.6923 108.534 90.1106 108.13C90.6529 108.652 91.1942 109.146 91.7327 109.609C96.8319 113.997 101.868 115.769 104.984 113.965C108.202 112.102 109.248 106.465 107.89 99.6058C107.787 99.082 107.666 98.5468 107.53 98.0021C107.91 97.8899 108.283 97.774 108.646 97.6535C115.525 95.3745 120 91.6903 120 87.9222C120 84.3088 115.812 80.8145 109.332 78.5837ZM107.84 95.2205C107.512 95.3291 107.175 95.4341 106.832 95.5359C106.073 93.132 105.048 90.5757 103.794 87.9347C104.991 85.3566 105.976 82.833 106.714 80.4446C107.328 80.6222 107.924 80.8096 108.498 81.0073C114.05 82.9186 117.437 85.7447 117.437 87.9222C117.437 90.2417 113.779 93.2526 107.84 95.2205ZM105.376 100.104C105.976 103.137 106.062 105.879 105.664 108.022C105.307 109.949 104.588 111.233 103.7 111.747C101.809 112.842 97.7653 111.419 93.4043 107.666C92.9044 107.236 92.4008 106.777 91.8957 106.291C93.5863 104.442 95.276 102.292 96.9251 99.9048C99.8256 99.6475 102.566 99.2267 105.051 98.6522C105.173 99.1459 105.282 99.6302 105.376 100.104ZM80.4554 111.558C78.6079 112.211 77.1366 112.229 76.2471 111.716C74.3546 110.625 73.5678 106.411 74.641 100.759C74.7639 100.112 74.9102 99.4467 75.0789 98.767C77.5367 99.3105 80.257 99.7016 83.1645 99.9373C84.8247 102.273 86.5632 104.421 88.3151 106.301C87.9324 106.67 87.5511 107.022 87.172 107.353C84.8441 109.388 82.5112 110.832 80.4554 111.558ZM71.8005 95.2063C68.8748 94.2064 66.4587 92.9067 64.8025 91.4885C63.3144 90.2141 62.5631 88.9488 62.5631 87.9222C62.5631 85.7374 65.8203 82.9507 71.2529 81.0566C71.9121 80.8268 72.6021 80.6102 73.3182 80.4067C74.069 82.849 75.0539 85.4025 76.2424 87.9846C75.0385 90.605 74.0396 93.1991 73.2814 95.67C72.7709 95.5233 72.2764 95.3689 71.8005 95.2063ZM74.7017 75.4581C73.5741 69.6954 74.3229 65.3483 76.2074 64.2574C78.2147 63.0953 82.6534 64.7522 87.3316 68.9062C87.6307 69.1717 87.9309 69.4496 88.2319 69.7371C86.4887 71.6089 84.7661 73.74 83.1206 76.0622C80.2988 76.3238 77.5976 76.7439 75.1141 77.3066C74.958 76.6785 74.8197 76.0614 74.7017 75.4581ZM100.583 81.8488C99.9893 80.8234 99.3797 79.8221 98.7584 78.8482C100.673 79.0902 102.507 79.4115 104.229 79.8046C103.712 81.4619 103.068 83.1947 102.309 84.9711C101.765 83.9378 101.189 82.896 100.583 81.8488ZM90.0286 71.5689C91.2109 72.8497 92.3949 74.2798 93.5594 75.8313C92.3859 75.7759 91.1979 75.7471 90 75.7471C88.8135 75.7471 87.6342 75.7753 86.4679 75.8297C87.6337 74.2926 88.8279 72.8645 90.0286 71.5689ZM79.4067 81.8666C78.8136 82.8949 78.2487 83.9311 77.713 84.9692C76.9665 83.199 76.328 81.4583 75.8064 79.7775C77.5183 79.3944 79.3438 79.0811 81.246 78.8437C80.6159 79.8266 80.0014 80.8354 79.4067 81.8666ZM81.3008 97.1835C79.3355 96.9642 77.4825 96.6671 75.771 96.2946C76.301 94.5838 76.9536 92.8059 77.7158 90.9976C78.2529 92.0349 78.8202 93.0715 79.4168 94.1021C80.0246 95.1521 80.6544 96.1805 81.3008 97.1835ZM90.0995 104.456C88.8847 103.145 87.673 101.696 86.4895 100.136C87.6383 100.181 88.8096 100.204 90 100.204C91.223 100.204 92.4319 100.177 93.6219 100.124C92.4535 101.711 91.2738 103.163 90.0995 104.456ZM102.333 90.9054C103.135 92.7333 103.811 94.5019 104.348 96.1835C102.609 96.5804 100.73 96.9 98.7513 97.1376C99.3742 96.1505 99.989 95.1321 100.593 94.0845C101.204 93.0246 101.785 91.9631 102.333 90.9054ZM98.3729 92.804C97.435 94.4302 96.4721 95.9826 95.4946 97.448C93.7142 97.5753 91.8748 97.6409 90 97.6409C88.1328 97.6409 86.3166 97.5829 84.5677 97.4694C83.5507 95.9848 82.5669 94.4278 81.635 92.818C80.7055 91.2126 79.8502 89.5936 79.0751 87.9837C79.85 86.3701 80.7032 84.7493 81.6274 83.1468C82.554 81.54 83.5289 79.9909 84.5365 78.5155C86.3209 78.3806 88.1507 78.3103 89.9999 78.3103C91.8575 78.3103 93.6897 78.3812 95.4736 78.5172C96.4657 79.9818 97.4343 81.5262 98.3645 83.1332C99.3053 84.7583 100.17 86.3683 100.951 87.9473C100.172 89.5534 99.3096 91.1797 98.3729 92.804ZM103.66 64.1812C105.67 65.3398 106.451 70.0127 105.189 76.1403C105.108 76.5313 105.017 76.9296 104.919 77.3332C102.43 76.7588 99.7266 76.3314 96.8966 76.0659C95.2479 73.7181 93.5394 71.5837 91.8246 69.7359C92.2856 69.2923 92.746 68.8694 93.2045 68.4703C97.6341 64.6154 101.774 63.0934 103.66 64.1812Z" fill="#FFCF23"/>
<defs>
<radialGradient id="paint0_radial_1_4568" cx="0" cy="0" r="1" gradientUnits="userSpaceOnUse" gradientTransform="translate(90 90) rotate(90) scale(90)">
<stop stop-color="white" stop-opacity="0"/>
<stop offset="1" stop-color="white"/>
</radialGradient>
</defs>
</svg>
