<svg width="370" height="66" viewBox="0 0 370 66" fill="none" xmlns="http://www.w3.org/2000/svg">
<rect width="370" height="66" fill="#FFCF23"/>
<path d="M331.723 48V22.6H327.062V18H340.963V22.6H336.323V48H331.723Z" fill="#011C75"/>
<path d="M309.116 48V18H312.676L320.356 39.1L319.116 39.16V18H323.416V48H319.876L312.176 26.88L313.416 26.82V48H309.116Z" fill="#011C75"/>
<path d="M304.267 18V22.6H296.567V30.1H303.187V34.7H296.567V43.4H304.267V48H291.967V18H304.267Z" fill="#011C75"/>
<path d="M271.811 48V18H279.011C281.238 18 283.011 18.68 284.331 20.04C285.651 21.3867 286.311 23.1733 286.311 25.4V40.6C286.311 42.8133 285.651 44.6 284.331 45.96C283.011 47.32 281.238 48 279.011 48H271.811ZM276.411 43.4H279.011C279.851 43.4 280.511 43.1467 280.991 42.64C281.471 42.12 281.711 41.44 281.711 40.6V25.4C281.711 24.56 281.471 23.8867 280.991 23.38C280.511 22.86 279.851 22.6 279.011 22.6H276.411V43.4Z" fill="#011C75"/>
<path d="M265.552 48H260.952V18H265.552V48Z" fill="#011C75"/>
<path d="M244.506 48V18H256.806V22.6H249.106V33.1H255.726V37.7H249.106V48H244.506Z" fill="#011C75"/>
<path d="M223.959 48V18H227.519L235.199 39.1L233.959 39.16V18H238.259V48H234.719L227.019 26.88L228.259 26.82V48H223.959Z" fill="#011C75"/>
<path d="M210.859 48.6399C208.645 48.6399 206.872 47.9599 205.539 46.5999C204.219 45.2399 203.559 43.4532 203.559 41.2399V24.7599C203.559 22.5332 204.219 20.7465 205.539 19.3999C206.872 18.0399 208.645 17.3599 210.859 17.3599C213.085 17.3599 214.859 18.0399 216.179 19.3999C217.499 20.7465 218.159 22.5332 218.159 24.7599V41.2399C218.159 43.4532 217.499 45.2399 216.179 46.5999C214.859 47.9599 213.085 48.6399 210.859 48.6399ZM210.859 44.0399C211.699 44.0399 212.359 43.7865 212.839 43.2799C213.319 42.7599 213.559 42.0799 213.559 41.2399V24.7599C213.559 23.9199 213.319 23.2465 212.839 22.7399C212.359 22.2199 211.699 21.9599 210.859 21.9599C210.019 21.9599 209.359 22.2199 208.879 22.7399C208.399 23.2465 208.159 23.9199 208.159 24.7599V41.2399C208.159 42.0799 208.399 42.7599 208.879 43.2799C209.359 43.7865 210.019 44.0399 210.859 44.0399Z" fill="#011C75"/>
<path d="M199.37 39.8399V41.2399C199.37 43.4532 198.71 45.2399 197.39 46.5999C196.07 47.9599 194.296 48.6399 192.07 48.6399C189.856 48.6399 188.083 47.9599 186.75 46.5999C185.43 45.2399 184.77 43.4532 184.77 41.2399V24.7599C184.77 22.5332 185.43 20.7465 186.75 19.3999C188.083 18.0399 189.856 17.3599 192.07 17.3599C194.296 17.3599 196.07 18.0399 197.39 19.3999C198.71 20.7465 199.37 22.5332 199.37 24.7599V26.1599H194.77V24.7599C194.77 23.9199 194.53 23.2465 194.05 22.7399C193.57 22.2199 192.91 21.9599 192.07 21.9599C191.23 21.9599 190.57 22.2199 190.09 22.7399C189.61 23.2465 189.37 23.9199 189.37 24.7599V41.2399C189.37 42.0799 189.61 42.7599 190.09 43.2799C190.57 43.7865 191.23 44.0399 192.07 44.0399C192.91 44.0399 193.57 43.7865 194.05 43.2799C194.53 42.7599 194.77 42.0799 194.77 41.2399V39.8399H199.37Z" fill="#011C75"/>
<path d="M155.678 48V18H163.078C165.252 18 166.978 18.66 168.258 19.98C169.538 21.2867 170.178 23.0267 170.178 25.2V29.74C170.178 31.1533 169.898 32.3933 169.338 33.46C168.778 34.5267 167.978 35.3733 166.938 36L166.618 34.54C167.752 34.9533 168.625 35.58 169.238 36.42C169.865 37.26 170.178 38.2667 170.178 39.44V48H165.578V39.44C165.578 38.6933 165.358 38.0933 164.918 37.64C164.478 37.1733 163.865 36.94 163.078 36.94H160.278V48H155.678ZM160.278 32.34H163.078C163.865 32.34 164.478 32.1067 164.918 31.64C165.358 31.16 165.578 30.5267 165.578 29.74V25.2C165.578 24.4133 165.358 23.7867 164.918 23.32C164.478 22.84 163.865 22.6 163.078 22.6H160.278V32.34Z" fill="#011C75"/>
<path d="M142.577 48.6399C140.364 48.6399 138.591 47.9599 137.257 46.5999C135.937 45.2399 135.277 43.4532 135.277 41.2399V24.7599C135.277 22.5332 135.937 20.7465 137.257 19.3999C138.591 18.0399 140.364 17.3599 142.577 17.3599C144.804 17.3599 146.577 18.0399 147.897 19.3999C149.217 20.7465 149.877 22.5332 149.877 24.7599V41.2399C149.877 43.4532 149.217 45.2399 147.897 46.5999C146.577 47.9599 144.804 48.6399 142.577 48.6399ZM142.577 44.0399C143.417 44.0399 144.077 43.7865 144.557 43.2799C145.037 42.7599 145.277 42.0799 145.277 41.2399V24.7599C145.277 23.9199 145.037 23.2465 144.557 22.7399C144.077 22.2199 143.417 21.9599 142.577 21.9599C141.737 21.9599 141.077 22.2199 140.597 22.7399C140.117 23.2465 139.877 23.9199 139.877 24.7599V41.2399C139.877 42.0799 140.117 42.7599 140.597 43.2799C141.077 43.7865 141.737 44.0399 142.577 44.0399Z" fill="#011C75"/>
<path d="M119.272 48V18H131.572V22.6H123.872V33.1H130.492V37.7H123.872V48H119.272Z" fill="#011C75"/>
<path d="M97.1522 48V22.6H92.4922V18H106.392V22.6H101.752V48H97.1522Z" fill="#011C75"/>
<path d="M85.161 18V43.4H92.061V48H80.561V18H85.161Z" fill="#011C75"/>
<path d="M74.3017 48H69.7017V18H74.3017V48Z" fill="#011C75"/>
<path d="M63.6718 18V41.24C63.6718 43.4533 63.0118 45.24 61.6918 46.6C60.3718 47.96 58.5984 48.64 56.3718 48.64C54.1584 48.64 52.3851 47.96 51.0518 46.6C49.7318 45.24 49.0718 43.4533 49.0718 41.24V18H53.6718V41.24C53.6718 42.08 53.9118 42.76 54.3918 43.28C54.8718 43.7867 55.5318 44.04 56.3718 44.04C57.2118 44.04 57.8718 43.7867 58.3518 43.28C58.8318 42.76 59.0718 42.08 59.0718 41.24V18H63.6718Z" fill="#011C75"/>
<path d="M29.0376 48V18H36.4376C38.6109 18 40.3376 18.66 41.6176 19.98C42.8976 21.2867 43.5376 23.0267 43.5376 25.2V28.14C43.5376 29.34 43.3309 30.42 42.9176 31.38C42.5176 32.34 41.9443 33.1267 41.1976 33.74L41.0976 31.98C41.9643 32.58 42.6509 33.3933 43.1576 34.42C43.6776 35.4467 43.9376 36.62 43.9376 37.94V40.8C43.9376 42.9467 43.2976 44.6867 42.0176 46.02C40.7376 47.34 39.0109 48 36.8376 48H29.0376ZM33.6376 43.4H36.8376C37.6243 43.4 38.2376 43.16 38.6776 42.68C39.1176 42.2 39.3376 41.5733 39.3376 40.8V37.94C39.3376 37.1667 39.1176 36.54 38.6776 36.06C38.2376 35.58 37.6243 35.34 36.8376 35.34H33.6376V43.4ZM33.6376 30.74H36.4376C37.2243 30.74 37.8376 30.5067 38.2776 30.04C38.7176 29.56 38.9376 28.9267 38.9376 28.14V25.2C38.9376 24.4133 38.7176 23.7867 38.2776 23.32C37.8376 22.84 37.2243 22.6 36.4376 22.6H33.6376V30.74Z" fill="#011C75"/>
</svg>
