<svg width="320" height="66" viewBox="0 0 320 66" fill="none" xmlns="http://www.w3.org/2000/svg">
<rect width="320" height="66" fill="#FFCF23"/>
<path d="M28.452 48V18H35.652C37.8787 18 39.652 18.68 40.972 20.04C42.292 21.3867 42.952 23.1733 42.952 25.4V40.6C42.952 42.8133 42.292 44.6 40.972 45.96C39.652 47.32 37.8787 48 35.652 48H28.452ZM33.052 43.4H35.652C36.492 43.4 37.152 43.1467 37.632 42.64C38.112 42.12 38.352 41.44 38.352 40.6V25.4C38.352 24.56 38.112 23.8867 37.632 23.38C37.152 22.86 36.492 22.6 35.652 22.6H33.052V43.4ZM60.9083 18V22.6H53.2083V30.1H59.8283V34.7H53.2083V43.4H60.9083V48H48.6083V18H60.9083ZM79.9167 39.84V41.24C79.9167 43.4533 79.2567 45.24 77.9367 46.6C76.6167 47.96 74.8434 48.64 72.6167 48.64C70.4034 48.64 68.6301 47.96 67.2967 46.6C65.9767 45.24 65.3167 43.4533 65.3167 41.24V24.76C65.3167 22.5333 65.9767 20.7467 67.2967 19.4C68.6301 18.04 70.4034 17.36 72.6167 17.36C74.8434 17.36 76.6167 18.04 77.9367 19.4C79.2567 20.7467 79.9167 22.5333 79.9167 24.76V26.16H75.3167V24.76C75.3167 23.92 75.0767 23.2467 74.5967 22.74C74.1167 22.22 73.4567 21.96 72.6167 21.96C71.7767 21.96 71.1167 22.22 70.6367 22.74C70.1567 23.2467 69.9167 23.92 69.9167 24.76V41.24C69.9167 42.08 70.1567 42.76 70.6367 43.28C71.1167 43.7867 71.7767 44.04 72.6167 44.04C73.4567 44.04 74.1167 43.7867 74.5967 43.28C75.0767 42.76 75.3167 42.08 75.3167 41.24V39.84H79.9167ZM89.1458 48H84.5458V18H89.1458V48ZM101.685 48.64C99.4718 48.64 97.6985 47.96 96.3652 46.6C95.0452 45.24 94.3852 43.4533 94.3852 41.24V39.84H98.9852V41.24C98.9852 42.08 99.2252 42.76 99.7052 43.28C100.185 43.7867 100.845 44.04 101.685 44.04C102.525 44.04 103.185 43.7867 103.665 43.28C104.145 42.76 104.385 42.08 104.385 41.24V38.44C104.385 37.96 104.365 37.5867 104.325 37.32C104.285 37.04 104.185 36.8133 104.025 36.64C103.878 36.4667 103.618 36.3133 103.245 36.18C102.885 36.0333 102.365 35.8533 101.685 35.64C99.8585 35.0667 98.4452 34.5867 97.4452 34.2C96.4452 33.8133 95.7252 33.3933 95.2852 32.94C94.8585 32.4867 94.5985 31.9 94.5052 31.18C94.4252 30.4467 94.3852 29.4667 94.3852 28.24V24.76C94.3852 22.5333 95.0452 20.7467 96.3652 19.4C97.6985 18.04 99.4718 17.36 101.685 17.36C103.912 17.36 105.685 18.04 107.005 19.4C108.325 20.7467 108.985 22.5333 108.985 24.76V26.16H104.385V24.76C104.385 23.92 104.145 23.2467 103.665 22.74C103.185 22.22 102.525 21.96 101.685 21.96C100.845 21.96 100.185 22.22 99.7052 22.74C99.2252 23.2467 98.9852 23.92 98.9852 24.76V28.24C98.9852 28.72 98.9985 29.1 99.0252 29.38C99.0652 29.6467 99.1585 29.8667 99.3052 30.04C99.4652 30.2 99.7318 30.3533 100.105 30.5C100.478 30.6467 101.005 30.8267 101.685 31.04C103.512 31.6 104.925 32.08 105.925 32.48C106.925 32.8667 107.638 33.2867 108.065 33.74C108.505 34.1933 108.765 34.78 108.845 35.5C108.938 36.22 108.985 37.2 108.985 38.44V41.24C108.985 43.4533 108.325 45.24 107.005 46.6C105.685 47.96 103.912 48.64 101.685 48.64ZM118.716 48H114.116V18H118.716V48ZM131.835 48.64C129.622 48.64 127.849 47.96 126.515 46.6C125.195 45.24 124.535 43.4533 124.535 41.24V24.76C124.535 22.5333 125.195 20.7467 126.515 19.4C127.849 18.04 129.622 17.36 131.835 17.36C134.062 17.36 135.835 18.04 137.155 19.4C138.475 20.7467 139.135 22.5333 139.135 24.76V41.24C139.135 43.4533 138.475 45.24 137.155 46.6C135.835 47.96 134.062 48.64 131.835 48.64ZM131.835 44.04C132.675 44.04 133.335 43.7867 133.815 43.28C134.295 42.76 134.535 42.08 134.535 41.24V24.76C134.535 23.92 134.295 23.2467 133.815 22.74C133.335 22.22 132.675 21.96 131.835 21.96C130.995 21.96 130.335 22.22 129.855 22.74C129.375 23.2467 129.135 23.92 129.135 24.76V41.24C129.135 42.08 129.375 42.76 129.855 43.28C130.335 43.7867 130.995 44.04 131.835 44.04ZM144.936 48V18H148.496L156.176 39.1L154.936 39.16V18H159.236V48H155.696L147.996 26.88L149.236 26.82V48H144.936ZM164.883 39.32V34.72H176.683V39.32H164.883ZM182.319 48V18H186.559L192.899 42.06H191.819L198.159 18H202.399V48H198.099V30.52L198.639 30.62L193.899 48H190.819L186.079 30.62L186.619 30.52V48H182.319ZM206.287 48L212.247 18H217.207L223.087 48H218.367L217.487 42.88H211.907L211.007 48H206.287ZM212.627 38.28H216.767L214.407 24.28H215.047L212.627 38.28ZM238.028 48L232.528 33.66L231.168 35.68V28.12L238.028 18H242.988L235.668 28.92L242.968 48H238.028ZM226.968 48V18H231.568V48H226.968ZM251.45 48H246.85V18H251.45V48ZM257.71 48V18H261.27L268.95 39.1L267.71 39.16V18H272.01V48H268.47L260.77 26.88L262.01 26.82V48H257.71ZM285.117 48.64C282.903 48.64 281.13 47.96 279.797 46.6C278.477 45.24 277.817 43.4533 277.817 41.24V24.76C277.817 22.5333 278.477 20.7467 279.797 19.4C281.13 18.04 282.903 17.36 285.117 17.36C287.343 17.36 289.117 18.04 290.437 19.4C291.757 20.7467 292.417 22.5333 292.417 24.76V26.16H287.817V24.76C287.817 23.92 287.577 23.2467 287.097 22.74C286.617 22.22 285.957 21.96 285.117 21.96C284.277 21.96 283.617 22.22 283.137 22.74C282.657 23.2467 282.417 23.92 282.417 24.76V41.24C282.417 42.08 282.657 42.76 283.137 43.28C283.617 43.7867 284.277 44.04 285.117 44.04C285.957 44.04 286.617 43.7867 287.097 43.28C287.577 42.76 287.817 42.08 287.817 41.24V37.8H284.797V33.2H292.417V41.24C292.417 43.4533 291.757 45.24 290.437 46.6C289.117 47.96 287.343 48.64 285.117 48.64Z" fill="#011C75"/>
</svg>
